<svg xmlns="http://www.w3.org/2000/svg" xmlns:xlink="http://www.w3.org/1999/xlink" width="173" height="173" viewBox="0 0 173 173"><defs><clipPath id="a"><rect width="173" height="173" transform="translate(8266 464.063)" fill="#fff" stroke="#707070" stroke-width="1"/></clipPath><clipPath id="b"><rect width="60.316" height="68.846" fill="none"/></clipPath><clipPath id="c"><rect width="57.885" height="61.658" fill="none"/></clipPath><clipPath id="d"><rect width="69.438" height="67.051" fill="none"/></clipPath><clipPath id="f"><rect width="63.14" height="68.966" fill="none"/></clipPath><clipPath id="g"><rect width="68.966" height="63.14" fill="none"/></clipPath></defs><g transform="translate(-8266 -464.063)" clip-path="url(#a)"><g transform="translate(8264.988 471.097)"><path d="M210.579,168.638a22.815,22.815,0,1,1-22.815-22.815,22.815,22.815,0,0,1,22.815,22.815" transform="translate(-100.619 -88.952)" fill="#c04890"/><g transform="translate(84.833)" style="mix-blend-mode:darken;isolation:isolate"><g transform="translate(0)"><g clip-path="url(#b)"><path d="M243.622,68.846c-11.935,0-21.135-5.861-24.61-15.678-1.208-3.5-1.635-7.336-1.452-12.892l.972-26.7a19.238,19.238,0,0,1,1.223-7.246c.835-1.9,3.508-6.332,10.27-6.332,12.369,0,47.811,21.39,47.811,37.687,0,4.533-3.735,11.154-4.879,13.076-2.578,4.421-10.548,18.083-29.334,18.083" transform="translate(-217.52)" fill="#f07800"/></g></g></g><g transform="translate(33.116 91.408)" style="mix-blend-mode:darken;isolation:isolate"><g transform="translate(0 0)"><g clip-path="url(#c)"><path d="M110.141,296.036c-4.411,0-20.506-3.306-23.7-14.153-1.577-5.361-1.533-15.187-1.533-16.287,0-5.561.615-14.95,1.928-19.209l0,0c2.922-11.312,27.484-12.008,31.511-12.008,13.837,0,24.45,16.763,24.45,30.619,0,21.606-22.3,31.039-32.656,31.039" transform="translate(-84.913 -234.378)" fill="#f07800"/></g></g></g><g transform="translate(104.577 50.271)" style="mix-blend-mode:darken;isolation:isolate"><g transform="translate(0 0)"><g clip-path="url(#d)"><path d="M337.53,172.52c0,13.577-8.091,23.432-19.238,23.432-8.894,0-44.8-22.816-46.926-24.943a11.225,11.225,0,0,1-3.221-8.192c0-5.472,8.088-24.023,17.685-28.8,3.475-1.729,27.249-5.206,34.619-5.115,18.972.234,17.082,36.509,17.082,43.617" transform="translate(-268.144 -128.9)" fill="#a8d800"/></g></g></g><g transform="translate(0 42.787)" style="mix-blend-mode:darken;isolation:isolate"><g transform="translate(0 0)"><g clip-path="url(#d)"><path d="M.052,133.143c0-13.577,8.091-23.432,19.238-23.432,8.894,0,44.8,22.816,46.926,24.944a11.223,11.223,0,0,1,3.221,8.192c0,5.472-8.088,24.023-17.685,28.8-3.476,1.73-27.249,5.206-34.619,5.115C-1.838,176.526.052,140.251.052,133.143" transform="translate(0 -109.711)" fill="#a8d800"/></g></g></g><g transform="translate(86.392 89.441)" style="mix-blend-mode:darken;isolation:isolate"><g transform="translate(0 0)"><g clip-path="url(#f)"><path d="M243.435,298.3c-19.453,0-22.585-33.563-21.814-39.185.849-6.183,7.517-29.78,21.4-29.78,1.58,0,2.676.3,8.227,1.889,1.137.326,2.695.772,3.088.867a87.93,87.93,0,0,0,11.479,2.064c13.071,1.246,18.846,24.09,18.846,32.39,0,10.914-5.821,20.058-16.389,25.747a54.788,54.788,0,0,1-24.833,6.01" transform="translate(-221.517 -229.336)" fill="#00a8c0"/></g></g></g><g transform="translate(24.429 5.201)" style="mix-blend-mode:darken;isolation:isolate"><g transform="translate(0 0)"><g clip-path="url(#g)"><path d="M62.638,35.255c0-19.453,33.563-22.585,39.185-21.814,6.183.849,29.78,7.517,29.78,21.4,0,1.58-.3,2.676-1.889,8.227-.326,1.137-.772,2.695-.867,3.088a87.933,87.933,0,0,0-2.064,11.479C125.539,70.7,102.7,76.477,94.4,76.477c-10.914,0-20.058-5.821-25.747-16.389a54.788,54.788,0,0,1-6.01-24.833" transform="translate(-62.638 -13.337)" fill="#00a8c0"/></g></g></g><rect width="174.014" height="158.407" fill="none"/><rect width="174.014" height="158.407" fill="none"/></g></g></svg>