<svg xmlns="http://www.w3.org/2000/svg" xmlns:xlink="http://www.w3.org/1999/xlink" width="659.671" height="493.107" viewBox="0 0 659.671 493.107"><defs><clipPath id="a"><rect width="659.671" height="493.107" fill="none"/></clipPath><clipPath id="c"><rect width="368.101" height="420.159" fill="none"/></clipPath><clipPath id="d"><rect width="353.262" height="376.292" fill="none"/></clipPath></defs><g clip-path="url(#a)"><g clip-path="url(#a)"><g style="mix-blend-mode:darken;isolation:isolate"><g clip-path="url(#c)"><path d="M159.3,420.159c-72.838,0-128.985-35.769-150.193-95.678C1.737,303.115-.869,279.707.248,245.8L6.182,82.865c.688-16.17,1.284-30.13,7.463-44.219C18.741,27.027,35.054,0,76.319,0,151.808,0,368.1,130.543,368.1,230c0,27.667-22.791,68.075-29.776,79.8C322.59,336.783,273.951,420.159,159.3,420.159" transform="translate(0)" fill="#c04890"/></g></g><g transform="translate(306.409 116.815)" style="mix-blend-mode:darken;isolation:isolate"><g clip-path="url(#d)"><path d="M475.807,498.99c-26.92,0-125.144-20.18-144.61-86.373-9.622-32.718-9.355-92.684-9.355-99.4,0-33.94,3.755-91.239,11.767-117.232l-.026-.009C351.415,126.941,501.316,122.7,525.89,122.7,610.335,122.7,675.1,225,675.1,309.563c0,131.857-136.1,189.428-199.3,189.428" transform="translate(-321.841 -122.698)" fill="#00a8c0"/></g></g></g></g></svg>