<svg xmlns="http://www.w3.org/2000/svg" width="152.48" height="73.171" viewBox="0 0 152.48 73.171"><g transform="translate(-727.739 -612)"><path d="M150,36.585V13.259A13.3,13.3,0,0,1,163.259,0H289.221A13.3,13.3,0,0,1,302.48,13.259V36.585" transform="translate(577.739 612)" fill="#585048"/><path d="M302.48,33.111V56.437A13.3,13.3,0,0,1,289.221,69.7H163.259A13.3,13.3,0,0,1,150,56.437V33.111" transform="translate(577.739 615.474)" fill="#fff"/><path d="M9.064-15.686a2.559,2.559,0,0,0-2.09,1.364c-1.54,2.134-3.63,4.994-4.686,6.314C1.276-6.776,1.166-6.622,1.166-6.314a1.151,1.151,0,0,0,1.1,1.056.93.93,0,0,0,.77-.418c1.254-1.452,3.938-5.28,4.8-6.512.594-.858.792-1.078,1.188-1.078.352,0,.55.2.814.55.792,1.078,4.158,5.83,4.906,6.842C18.964-.2,19.25-.2,19.646-.2a1.189,1.189,0,0,0,1.122-1.144c0-.374-.088-.484-.858-1.386C17.754-5.28,15.576-8.1,12.276-12.65,10.34-15.312,10.076-15.686,9.064-15.686Zm6.424.506a.956.956,0,0,0-1.078.9c0,.11,0,.286.308.594a11.519,11.519,0,0,1,1.76,2.2c.418.682.55.858.946.858a.956.956,0,0,0,.9-.924C18.326-12.144,16.148-15.048,15.488-15.18Zm3.036-1.914a.92.92,0,0,0-1.078.88c0,.11,0,.264.308.594A13.1,13.1,0,0,1,19.47-13.4c.44.726.528.88.946.88a.955.955,0,0,0,.9-.924C21.318-14.036,19.206-16.962,18.524-17.094Zm5.742,5.676a1.114,1.114,0,0,0,.22.616A22.376,22.376,0,0,1,25.7-8.668c.616,1.21.726,1.43,1.166,1.43a.931.931,0,0,0,.99-.814A12.432,12.432,0,0,0,26.334-11.2c-.484-.792-.682-1.056-1.122-1.056C24.882-12.254,24.266-11.968,24.266-11.418Zm4.6-1.012c0,.242.088.4.33.836.484.858.836,1.65,1.1,2.222.528,1.166.594,1.3,1.056,1.3a.953.953,0,0,0,1.012-.836,12.2,12.2,0,0,0-1.232-2.882c-.7-1.3-.88-1.452-1.3-1.452A.911.911,0,0,0,28.864-12.43Zm9.834.462c0-.836-.88-.858-.99-.858-.7,0-.77.33-.99,1.5C35.552-5.126,32.384-2.288,28.4-.572c-1.188.528-1.32.572-1.32,1.056a.95.95,0,0,0,.858.99A14.407,14.407,0,0,0,36.212-4.8,20.215,20.215,0,0,0,38.7-11.968Zm8.25,2.376a38.518,38.518,0,0,1,7.084,4.048c.9.66,1.254.924,1.672.924a1.1,1.1,0,0,0,1.012-1.1c0-.44-.286-.682-.638-.946a48.2,48.2,0,0,0-9.13-5.1v-5.346c0-.374-.044-.99-1.012-.99-1.012,0-1.012.7-1.012.99V.418c0,.484.11.99,1.034.99.99,0,.99-.7.99-.99Zm5.324-6.138a.969.969,0,0,0-.968.924c0,.22.066.4.4.66a11.773,11.773,0,0,1,1.98,1.98c.506.616.616.748.946.748a.939.939,0,0,0,.9-.924c0-.33-.11-.528-.924-1.43C53.988-14.454,52.778-15.73,52.272-15.73Zm2.574-2.42a.945.945,0,0,0-.99.924c0,.2.066.374.374.638a12.43,12.43,0,0,1,1.958,2.024c.528.7.594.77.946.77a.955.955,0,0,0,.9-.924c0-.286-.11-.506-.9-1.43C56.562-16.808,55.33-18.15,54.846-18.15Z" transform="translate(773.646 637.928)" fill="#fff"/><path d="M6.8-15.026V-.66C6.8-.022,7.15.352,7.876.352A.941.941,0,0,0,8.932-.66V-16.3c0-.55,0-1.386-1.034-1.386a2.3,2.3,0,0,0-1.21.506l-3.08,2.09c-.286.2-.594.418-.594.792a1.062,1.062,0,0,0,.9,1.034,1.2,1.2,0,0,0,.66-.264ZM20.086.352c6.05,0,6.05-7.282,6.05-9.02s0-9.02-6.05-9.02c-6.028,0-6.028,7.282-6.028,9.02S14.058.352,20.086.352Zm0-1.936c-3.366,0-3.916-3.938-3.916-7.084,0-3.1.55-7.084,3.916-7.084,3.432,0,3.916,4.07,3.916,7.084S23.518-1.584,20.086-1.584Zm27.478-7.59a.778.778,0,0,0,.9-.858c0-.726-.418-.88-.9-.88H40.942v-2.332c0-.374-.044-.924-.9-.924-.682,0-.946.264-.946.924v2.332h-6.05a.778.778,0,0,0-.9.836c0,.616.242.9.9.9h5.544a19.088,19.088,0,0,1-6.732,7.436.894.894,0,0,0-.484.77,1.055,1.055,0,0,0,.99,1.034c.726,0,2.706-1.914,3.52-2.75A19.137,19.137,0,0,0,39.094-7V1.012a.807.807,0,0,0,.88.924c.7,0,.968-.264.968-.924V-6.974a20.713,20.713,0,0,0,4.136,5.258c.572.528,1.848,1.65,2.4,1.65a1.066,1.066,0,0,0,.99-1.012.884.884,0,0,0-.4-.726,20.038,20.038,0,0,1-4.884-4.532A17.149,17.149,0,0,1,41.4-9.174ZM37.532-16.456H32.494c-2.068,0-2.86.7-2.86,2.838V-8.03c0,.44-.044,1.408-.11,2.288A18.226,18.226,0,0,1,27.984.022a2.554,2.554,0,0,0-.11.528,1.05,1.05,0,0,0,1.056.99c.55,0,.88-.352,1.5-2.42a25.233,25.233,0,0,0,1.056-7.172V-13.42a1.149,1.149,0,0,1,1.3-1.3H47.586c.572,0,.924-.2.924-.9a.787.787,0,0,0-.924-.836H39.424v-1.32c0-.7-.374-.9-.946-.9-.88,0-.946.506-.946.9Z" transform="translate(779.193 674.524)" fill="#585048"/></g></svg>