<svg xmlns="http://www.w3.org/2000/svg" width="152.48" height="73.171" viewBox="0 0 152.48 73.171"><path d="M150,216.808V193.482a13.3,13.3,0,0,1,13.259-13.259H289.221a13.3,13.3,0,0,1,13.259,13.259v23.326" transform="translate(-150 -180.223)" fill="#585048"/><path d="M302.48,213.334V236.66a13.3,13.3,0,0,1-13.259,13.259H163.259A13.3,13.3,0,0,1,150,236.66V213.334" transform="translate(-150 -176.748)" fill="#fff"/><path d="M20.416-10.076a.787.787,0,0,0,.924-.836c0-.616-.242-.924-.924-.924H13.552v-2.288c0-1.276,0-1.342.924-1.474.55-.066,2.97-.352,3.454-.44,1.518-.308,1.65-.308,2-.4.66-.176.77-.55.77-.88a.906.906,0,0,0-.858-.99c-.11,0-2.574.55-3.08.638-.528.088-2.86.352-3.344.418-1.628.22-1.628.946-1.628,2.6v6.028a14.853,14.853,0,0,1-2.31,8.58,1.2,1.2,0,0,0-.33.726.976.976,0,0,0,1.012.9c.418,0,.682-.11,1.364-1.3A16.581,16.581,0,0,0,13.4-5.632c.132-1.21.154-2.574.154-2.86v-1.584h3.3V.99c0,.308.044.924.836.924.638,0,.968-.2.968-.924V-10.076ZM8.778-11.792c.22-.88.506-2.508.594-3.256h.836c.55,0,.77-.286.77-.792,0-.814-.616-.814-.88-.814H7.062v-1.232c0-.55-.308-.792-.88-.792-.616,0-.858.33-.858.792v1.232H2.046c-.374,0-.88.066-.88.814a.7.7,0,0,0,.792.792h.99c.308,1.276.528,2.948.572,3.256h-1.8c-.308,0-.924.022-.924.814,0,.814.616.814.924.814H5.324v2.178h-3.3c-.616,0-.924.264-.924.858,0,.77.726.77.924.77H5.148A16.732,16.732,0,0,1,1.738-2.53C.748-1.716.726-1.694.726-1.342a.97.97,0,0,0,.9.99c.286,0,.528-.132,1.034-.616A23.556,23.556,0,0,0,5.324-4V1.034c0,.682.33.9.9.9a.777.777,0,0,0,.814-.9V-4.422A17.6,17.6,0,0,0,8.47-2.64c.682.748.836.814,1.078.814a1,1,0,0,0,.88-.968c0-.308-.044-.352-.968-1.144a13.841,13.841,0,0,1-2.2-2.42H9.944c.4,0,.924-.11.924-.814a.788.788,0,0,0-.924-.814H7.04v-2.178h3.168c.33,0,.924,0,.924-.814,0-.792-.594-.814-.88-.814Zm-3.674,0c-.176-1.3-.308-2.2-.528-3.256H7.744a32.5,32.5,0,0,1-.572,3.256ZM28.424-1.8c-.462.022-1.276.066-1.386.088a.652.652,0,0,0-.462.7c0,.792.55.792.792.792.308,0,1.012-.066,2.794-.2,3.146-.242,3.5-.264,5.676-.462v1.5c0,.242,0,.836.836.836s.836-.594.836-.836V-8.47h1.21a.644.644,0,0,0,.726-.7c0-.726-.594-.726-.814-.726H27.456c-.242,0-.836,0-.836.726a.651.651,0,0,0,.748.7h1.056Zm7.414-4.114v1.254H30.052V-5.918ZM30.052-3.41h5.786v1.122c-2.4.2-2.728.22-5.786.4Zm5.786-5.06v1.3H30.052v-1.3ZM25.322-11.11h4.686c1.54,0,2.046-.572,2.046-2.024v-2.75c0-1.452-.528-2.024-2.046-2.024H25.63c-1.474,0-2.046.55-2.046,2.024V.99c0,.55.22.88.9.88a.764.764,0,0,0,.836-.88Zm0-4.07v-.594c0-.462.2-.726.7-.726h3.608a.642.642,0,0,1,.726.726v.594Zm5.038,2a.642.642,0,0,1-.726.726H25.322V-13.86H30.36ZM40.854-11.11V-.924c0,.44-.11.748-.66.792-.176,0-1.3-.022-1.474-.022a.738.738,0,0,0-.814.836.94.94,0,0,0,.506.9,6.893,6.893,0,0,0,1.408.088c1.936,0,2.75-.066,2.75-2.112V-15.884c0-1.5-.572-2.024-2.024-2.024h-4.4c-1.474,0-2.046.55-2.046,2.024v2.75c0,1.518.572,2.024,2.046,2.024ZM35.86-15.774c0-.374.132-.726.7-.726H40.15c.484,0,.7.242.7.726v.594H35.86Zm4.994,1.914v1.408h-4.29c-.484,0-.7-.242-.7-.726v-.682Zm8.734,3.344A2.145,2.145,0,0,0,47.432-8.36a2.164,2.164,0,0,0,2.156,2.178A2.178,2.178,0,0,0,51.744-8.36,2.145,2.145,0,0,0,49.588-10.516ZM60.1-16.94a.852.852,0,0,0-.968.968.848.848,0,0,0,.968.946H72.05a.855.855,0,0,0,.968-.968.848.848,0,0,0-.968-.946Zm-1.87,4.84a.848.848,0,0,0-.968.946.848.848,0,0,0,.968.946H71.39c.352,0,.99,0,.99.55a8.689,8.689,0,0,1-1.43,3.212A14.357,14.357,0,0,1,63.118-.99c-.748.242-1.166.374-1.166.99a1.025,1.025,0,0,0,.968,1.012A17.356,17.356,0,0,0,70.708-3.08c2.442-2.4,3.938-5.808,3.938-7.26,0-1.76-1.5-1.76-2.354-1.76Zm21.89-4.466a1,1,0,0,0,.77.9c1.562.572,2.97,1.1,4.2,1.672a1.6,1.6,0,0,0,.77.242.981.981,0,0,0,.88-1.034c0-.616-.176-.682-1.694-1.342a27.5,27.5,0,0,0-4.026-1.43A.952.952,0,0,0,80.124-16.566ZM78.188-11.2a.908.908,0,0,0,.7.858c1.452.55,3.344,1.3,4.334,1.76a1.671,1.671,0,0,0,.77.242.968.968,0,0,0,.88-1.034c0-.638-.33-.77-1.936-1.452a22.034,22.034,0,0,0-3.85-1.364A.95.95,0,0,0,78.188-11.2Zm13.354-6.974a.88.88,0,0,0-1.078.858c0,.088,0,.242.264.55a12.935,12.935,0,0,1,1.606,2.31c.418.77.506.924.946.924a.893.893,0,0,0,.858-.88C94.138-14.982,92.224-18,91.542-18.172ZM80.564.9c.506,0,4.62-1.078,9.108-4.62,3.63-2.86,6.6-6.754,6.6-7.48a1.123,1.123,0,0,0-1.1-1.034c-.418,0-.66.308-1.1.924A26.274,26.274,0,0,1,81.114-1.386C79.9-1.012,79.53-.9,79.53-.242A1.084,1.084,0,0,0,80.564.9ZM95-19.14a.9.9,0,0,0-1.1.836.925.925,0,0,0,.242.572A12.039,12.039,0,0,1,95.7-15.4c.4.792.484.946.946.946a.893.893,0,0,0,.858-.88C97.5-15.906,95.656-18.942,95-19.14ZM108.9-11.7a33.356,33.356,0,0,1-8.646,8.426c-.7.484-.968.66-.968,1.1a1.02,1.02,0,0,0,.946.99c.55,0,1.826-.968,2.684-1.628A33.32,33.32,0,0,0,109.8-9.834l.066,7.392c0,.836-.066,1.188-.374,1.364-.22.11-.4.11-2,.11a.791.791,0,0,0-.88.88c0,1.034.858,1.034,1.452,1.034,3.388,0,3.762-.726,3.74-3.08l-.088-9.57h4.752c.638,0,.99-.22.99-.946,0-.858-.594-.924-.99-.924h-4.774l-.044-3.63c0-.506-.154-.946-.946-.946a.83.83,0,0,0-.946.968l.022,3.608h-9.724c-.572,0-1.012.176-1.012.946,0,.88.616.924,1.012.924Z" transform="translate(16.323 25.928)" fill="#fff"/><path d="M5.632-6.292c2.4-1.078,2.53-1.144,2.53-1.716a.756.756,0,0,0-.7-.836A.866.866,0,0,0,7-8.712c-.374.154-.99.418-1.364.594V-12.76H7.26a.757.757,0,0,0,.88-.858.763.763,0,0,0-.88-.858H5.632v-3.256a.812.812,0,0,0-.9-.924.806.806,0,0,0-.88.924v3.256H1.65a.778.778,0,0,0-.9.858.785.785,0,0,0,.9.858h2.2v5.324c-.418.154-2.4.748-2.75.9a.707.707,0,0,0-.484.748c0,.484.286,1.034.792,1.034A15.663,15.663,0,0,0,3.85-5.544V-.968c0,.682-.352.77-.792.77-1.672,0-2.046,0-2.046.88,0,.99.616.99,1.826.99,1.958,0,2.794,0,2.794-2.046ZM9.57-4.444c0,.242.044.308.528.924.374.484.99,1.276,1.342,1.848s.594.9,1.056.9a1.085,1.085,0,0,0,1.034-.946c0-.484-.836-1.518-1.232-2.046-1.034-1.32-1.276-1.54-1.76-1.54A.953.953,0,0,0,9.57-4.444Zm9.064-1.628h1.54c.572,0,.858-.264.858-.836a.742.742,0,0,0-.858-.836h-1.54v-2.4H20.35c.462,0,.858-.154.858-.858,0-.836-.616-.836-.9-.836H15.334v-2.882h4.18a.765.765,0,0,0,.9-.814.773.773,0,0,0-.9-.814h-4.18V-17.82c0-.682-.374-.858-.968-.858-.858,0-.88.594-.88.858v1.474h-4a.757.757,0,0,0-.88.814.757.757,0,0,0,.88.814h4v2.882H8.558c-.418,0-.858.11-.858.858a.739.739,0,0,0,.858.836h8.228v2.4H9.108c-.44,0-.88.11-.88.836,0,.792.55.836.88.836h7.678V-1.3c0,.682-.264,1.056-.88,1.078-.286.022-1.694,0-2.024,0-.352,0-.924,0-.924.792,0,.066,0,.836.594,1.012a11.431,11.431,0,0,0,2.09.088c2.068,0,2.992-.132,2.992-2.42ZM23.5-17.27c.044.286.242.44.594.7a30.221,30.221,0,0,1,2.354,1.914c.55.506.792.682,1.122.682a1.044,1.044,0,0,0,.968-.99c0-.286-.066-.528-.88-1.21-.682-.572-2.662-2.178-3.212-2.178A1,1,0,0,0,23.5-17.27ZM33.154-.308c-3.784,0-5.236-1.54-5.456-3.74v-4c0-1.65-.484-2.068-2.068-2.068H23.848c-.374,0-.924.088-.924.88a.77.77,0,0,0,.88.858h1.408a.659.659,0,0,1,.7.77V-2.75A17.287,17.287,0,0,1,23.628-.4c-.572.484-.748.682-.748,1.078a1.011,1.011,0,0,0,.946,1.012c.44,0,.7-.242,1.452-1.056a18.781,18.781,0,0,0,1.738-2.112A4.649,4.649,0,0,0,28.622.308,8.208,8.208,0,0,0,33.176,1.43h9.35A.833.833,0,0,0,43.45.484a.768.768,0,0,0-.88-.792Zm1.782-15.884c.7,0,.726.484.726.836,0,1.562-1.21,5.148-2.948,7.788a15.588,15.588,0,0,1-3.322,3.7.817.817,0,0,0-.352.66,1.129,1.129,0,0,0,1.012,1.078c.638,0,1.738-1.21,2.332-1.892a21.266,21.266,0,0,0,4.158-7.722,19.275,19.275,0,0,0,2.684,6.512C39.93-4.18,41.4-2.09,42.262-2.09a1.147,1.147,0,0,0,1.012-1.034c0-.352-.044-.4-1.32-1.76A18.566,18.566,0,0,1,37.51-15.07c-.132-2.178-.2-2.882-2.156-2.882H31.548a.821.821,0,0,0-.946.88.821.821,0,0,0,.946.88Zm9.878,7.524a8.784,8.784,0,0,0,9,9.02,8.784,8.784,0,0,0,9-9.02,8.784,8.784,0,0,0-9-9.02A8.771,8.771,0,0,0,44.814-8.668Zm2.134,0a6.868,6.868,0,0,1,6.864-7.084,6.868,6.868,0,0,1,6.864,7.084,6.868,6.868,0,0,1-6.864,7.084A6.868,6.868,0,0,1,46.948-8.668ZM68.024-9.812v-6.864a.92.92,0,0,0-1.056-1.012.943.943,0,0,0-1.056,1.012V-.66c0,.726.44,1.012,1.078,1.012A.911.911,0,0,0,68.024-.66V-9.13L75.7-.352c.352.4.616.7,1.034.7A1.138,1.138,0,0,0,77.88-.66c0-.286-.154-.484-.528-.9l-7.128-7.9,6.556-6.556a1.2,1.2,0,0,0,.374-.7,1.08,1.08,0,0,0-1.1-.968c-.33,0-.4.044-1.012.682Z" transform="translate(36.809 62.524)" fill="#585048"/></svg>