<svg xmlns="http://www.w3.org/2000/svg" width="318.22" height="99.689" viewBox="0 0 318.22 99.689"><g transform="translate(-562 -698.43)"><path d="M0,114.807V91.481A13.3,13.3,0,0,1,13.259,78.222h291.7A13.3,13.3,0,0,1,318.22,91.481v23.326" transform="translate(562 620.208)" fill="#585048"/><path d="M0,114.807V91.481A13.3,13.3,0,0,1,13.259,78.222h291.7A13.3,13.3,0,0,1,318.22,91.481v23.326" transform="translate(562 620.208)" fill="#585048"/><path d="M318.22,111.333v49.845a13.3,13.3,0,0,1-13.259,13.259H13.259A13.3,13.3,0,0,1,0,161.178V111.333" transform="translate(562 623.682)" fill="#fff"/><path d="M8.3-14.7h4.788a.838.838,0,0,0,.924-.945.832.832,0,0,0-.924-.9H1.491a.831.831,0,0,0-.924.924.834.834,0,0,0,.924.924H6.279V-.63A.886.886,0,0,0,7.287.336.9.9,0,0,0,8.3-.63ZM22.638-1.911,17.22-16.086c-.189-.483-.315-.8-.966-.8A.986.986,0,0,0,15.162-16a2.094,2.094,0,0,0,.231.84l5.523,14.07c.252.63.567,1.428,1.743,1.428,1.134,0,1.449-.8,1.7-1.428L29.9-15.162a2.6,2.6,0,0,0,.21-.84.974.974,0,0,0-1.092-.882c-.651,0-.777.336-.945.8Zm13.335-8.127A2.048,2.048,0,0,0,33.915-7.98,2.066,2.066,0,0,0,35.973-5.9,2.079,2.079,0,0,0,38.031-7.98,2.048,2.048,0,0,0,35.973-10.038Z" transform="translate(677.34 723.369)" fill="#fff"/><path d="M4.862-16.434c0-.33.022-1.628-.022-1.826a.757.757,0,0,0-.792-.462c-.858,0-.858.594-.88.814v1.474h-1.5c-.506,0-.9.176-.9.814,0,.792.616.814.9.814H3.08A7.228,7.228,0,0,1,1.1-10.362a.936.936,0,0,0-.308.66,1.018,1.018,0,0,0,.968.924c.242,0,.528-.022,1.254-1.034a10.5,10.5,0,0,0,1.738-4.994h.506a.626.626,0,0,1,.7.7v2.486c0,.99,0,2.068,1.8,2.068,1.342,0,1.738-.11,1.936-1.32a1.022,1.022,0,0,0,.9.66c.4,0,.594-.264.792-.572V-.55c0,1.518.594,2.024,2.046,2.024h6.886c.55,0,.924-.2.924-.858,0-.792-.572-.836-.924-.836H17.71V-3.85h2.156c.528,0,.814-.22.814-.77,0-.682-.44-.77-.814-.77H17.71V-8.58h2.134c.4,0,.836-.088.836-.792,0-.726-.528-.77-.836-.77H17.71v-3.234h2.354c.682,0,.9-.286.9-.858a.77.77,0,0,0-.9-.814H17.732a11.875,11.875,0,0,0,1.034-2.816c0-.506-.55-.7-.924-.7-.506,0-.7.33-.924,1.012-.572,1.716-.616,1.892-.88,2.508h-2.42a13.779,13.779,0,0,0,.9-2.882c0-.594-.572-.77-.946-.77-.572,0-.7.352-.814.726a19.251,19.251,0,0,1-1.958,4.8c-.132.242-.9,1.32-1.012,1.5.044-.374.066-1.166.066-1.386,0-.286,0-.77-.682-.77-.55,0-.55.176-.594,1.562-.044.946-.044,1.1-.55,1.1-.418,0-.572-.176-.572-.572v-2.618c0-1.584-.462-2.068-2.046-2.068ZM16.126-5.39H13.112V-8.58h3.014Zm-3.014-4.752v-2.53a.618.618,0,0,1,.7-.7h2.31v3.234Zm.7,9.922a.611.611,0,0,1-.7-.7V-3.85h3.014V-.22ZM4.664,1.056A.787.787,0,0,0,5.5,1.98c.814,0,.858-.594.858-.924V-3.388c.726,1.012,2.354,2.9,2.948,2.9a.95.95,0,0,0,.858-.924c0-.352-.154-.462-1.012-1.166a15.255,15.255,0,0,1-2.794-2.97v-.242H9.2c.242,0,.924,0,.924-.814,0-.836-.66-.836-.924-.836H6.358V-8.514c0-.286,0-.9-.792-.9-.748,0-.9.33-.9.9v1.078H1.672a.773.773,0,0,0-.9.814c0,.726.506.836.9.836h2.75A18.848,18.848,0,0,1,1.056-1.21a.855.855,0,0,0-.352.7.979.979,0,0,0,.88.968c.286,0,.506-.176.946-.682A17.5,17.5,0,0,0,4.664-3.454ZM29.3-3.322c0-1.584-.44-2-1.98-2H25.256c-1.584,0-2,.462-2,2V-.506c0,1.54.418,2,1.98,2h2.09c1.584,0,1.98-.484,1.98-2ZM27.742-.748c0,.484-.22.726-.7.726h-1.43c-.484,0-.7-.242-.7-.726v-2.4c0-.462.2-.726.7-.726h1.43c.506,0,.7.264.7.726Zm7.436-3.96a.732.732,0,0,0-.836-.814.721.721,0,0,0-.814.814v4c0,1.672.616,2.068,1.166,2.244a8.492,8.492,0,0,0,2.662.154c.814,0,1.848,0,2.244-.55a6.205,6.205,0,0,0,.616-2.618c0-.594-.4-.792-.88-.792-.682,0-.7.44-.77,1.034C38.456-.066,38.258,0,37.84,0H36.256c-.506,0-1.078-.022-1.078-.99Zm-.7-3.608a.828.828,0,0,0-.7.858c0,.154.044.418.462.594a23.314,23.314,0,0,1,2.508,1.21c.836.506.924.55,1.188.55.616,0,.726-.814.726-.968,0-.374-.154-.528-1.144-1.034A10.564,10.564,0,0,0,34.474-8.316ZM28.556-16.39a.714.714,0,0,0,.836-.792.715.715,0,0,0-.836-.77H24c-.352,0-.858.044-.858.792,0,.77.594.77.858.77Zm.7,3.168c.33,0,.858-.022.858-.814a.733.733,0,0,0-.858-.792H23.408c-.33,0-.858.044-.858.814,0,.792.594.792.858.792Zm-.7,3.146c.308,0,.836-.044.836-.792a.714.714,0,0,0-.836-.792H24c-.286,0-.858.022-.858.792a.729.729,0,0,0,.858.792Zm0,3.124c.528,0,.836-.22.836-.77,0-.594-.4-.748-.814-.748h-4.6c-.528,0-.836.22-.836.77,0,.594.418.748.836.748Zm9.306-8.866V-17.8c0-.44-.154-.9-.946-.9-.924,0-.924.66-.924.9v1.98H31.306c-.264,0-.9,0-.9.836a.778.778,0,0,0,.9.858h4.686v3.784H31.834a.794.794,0,0,0-.924.836.788.788,0,0,0,.924.814H41.91a.787.787,0,0,0,.924-.836c0-.814-.682-.814-.924-.814H37.862v-3.784h4.51a.792.792,0,0,0,.924-.858.787.787,0,0,0-.924-.836ZM31.768-5.28a.7.7,0,0,0-.594.7,17.422,17.422,0,0,1-.946,3.08A8.12,8.12,0,0,0,29.59-.088a.977.977,0,0,0,.99.9C31,.814,31.262.66,31.7-.55a20.177,20.177,0,0,0,1.078-4C32.78-5.214,32.032-5.3,31.768-5.28Zm8.976-.484c-.242,0-.924.176-.924.77a.946.946,0,0,0,.132.44,18.009,18.009,0,0,1,1.364,3.41c.374,1.408.418,1.65.968,1.65.286,0,1.034-.154,1.034-.792A16.549,16.549,0,0,0,41.8-4.576C41.36-5.5,41.228-5.764,40.744-5.764Z" transform="translate(720.698 724.369)" fill="#fff"/><path d="M16.148-7.458a21.756,21.756,0,0,0-5.126-2.42c.594-1.32,1.5-3.454,2.09-4.8a6.7,6.7,0,0,0,.594-1.518,1.139,1.139,0,0,0-1.1-.968c-.154,0-.924.154-1.1.176a33.393,33.393,0,0,1-4.092.242c-.264,0-1.518-.044-1.8-.044-.462,0-1.144,0-1.144.946,0,.924.7.924,1.452.924a52.888,52.888,0,0,0,5.39-.33c-.506,1.364-1.166,3.1-2.068,5.016a6.794,6.794,0,0,0-1.254-.11A6.241,6.241,0,0,0,1.54-4.2C1.54-2.112,2.772-.77,4.2-.77c.88,0,2.442-.088,6.05-7.48A20.409,20.409,0,0,1,15.51-5.632a9.845,9.845,0,0,1-3.454,4.51c-1.232.836-1.364.9-1.364,1.342a.938.938,0,0,0,.9.924c.33,0,.66-.088,1.716-.836a11.724,11.724,0,0,0,3.762-4.8c.242.22,1.43,1.254,1.694,1.474a1.639,1.639,0,0,0,.946.484,1.061,1.061,0,0,0,.924-1.078c0-.308-.132-.528-.55-.9a26.553,26.553,0,0,0-2.31-1.848A22.034,22.034,0,0,0,18.81-11.44c0-.22,0-.946-1.034-.946-.748,0-.836.616-.88,1.012A25.525,25.525,0,0,1,16.148-7.458ZM8.36-8.558C7.106-6.116,5.368-2.684,4.2-2.684c-.594,0-.968-.726-.968-1.518A4.572,4.572,0,0,1,8.36-8.558ZM27.434-9.746c-2.156,3.278-2.4,3.652-3.3,4.994-.814,1.21-.924,1.364-.924,1.716a.994.994,0,0,0,.99.968c.176,0,.44-.066.836-.66.264-.418,1.958-3.256,2.332-3.872l-.11,6.556c-.022.682.066,1.276.924,1.276.88,0,.9-.638.9-1.474.022-1.166.066-6.952.088-8.272,1.54-1.936,4.2-4.818,6.556-4.818a1.954,1.954,0,0,1,2.112,2c0,.594-.2,2.332-.44,4.114-.22,1.76-.462,3.542-.462,4.2A2.518,2.518,0,0,0,39.556-.176c1.166,0,3.3-.814,3.3-2.112a.774.774,0,0,0-.748-.77c-.2,0-.264.044-.66.308a2.8,2.8,0,0,1-1.562.66c-.99,0-.99-.99-.99-1.232,0-.594.22-2.31.462-4.048.22-1.738.44-3.5.44-4.136,0-2.926-2.508-3.63-3.916-3.63a5.96,5.96,0,0,0-3.872,1.5,17.209,17.209,0,0,0-2.794,2.706c0-.88.154-5.126.154-6.094,0-.33,0-.968-.9-.968s-.924.748-.924,1.408L27.5-13.662c-1.232.154-1.738.176-2.816.242-.528.022-1.122.044-1.122.88a.891.891,0,0,0,.924.968c.55,0,2.332-.2,2.97-.286Zm27.72-3.344c2.178-.022,4.62-.066,6.556-.154a.824.824,0,0,0,.946-.9.836.836,0,0,0-.968-.88c-.2,0-2.288.066-2.706.088-.77.022-1.958.044-3.828.088l-.022-2.376c0-.66-.352-.924-.968-.924a.81.81,0,0,0-.924.9v2.4c-1.76.022-2.6.044-3.322.022-.506,0-2.926-.088-3.476-.088-.374,0-1.122,0-1.122.924,0,.836.638.88.99.9.11.022,1.54.066,6.952.022v2.706c-.858.022-5.126-.022-6.094-.022-.308,0-1.056,0-1.056.858,0,.88.572.924.968.946,1.034.044,3.762.022,6.2,0v3.036c-.264-.022-1.32-.132-1.98-.132-3.476,0-5.258,1.386-5.258,3.388,0,2.046,1.914,3.322,4.73,3.322,4.356,0,4.378-2.464,4.4-4.378a18.779,18.779,0,0,1,4.84,2.288,1.755,1.755,0,0,0,.924.4,1.022,1.022,0,0,0,.924-1.056c0-.4-.242-.7-.968-1.144a22.186,22.186,0,0,0-5.72-2.354v-3.41c1.628-.022,3.872-.066,5.61-.154.242-.022.924-.044.924-.88a.871.871,0,0,0-1.012-.924c-.858,0-4.686.176-5.544.2Zm-1.87,9.262c0,2.046,0,3.19-2.684,3.19-1.144,0-2.728-.374-2.728-1.628,0-.638.484-1.738,3.5-1.738A12.875,12.875,0,0,1,53.284-3.828Zm25.366-9.7,2.222-.066H83.71c.572,0,1.232,0,1.232-.946,0-.638-.374-.88-.968-.88-.088,0-2.75.11-3.058.11l-2.288.044-.022-2.2a.852.852,0,0,0-.946-.946.844.844,0,0,0-.946.968l.044,2.222-6.842.154H67.232c-.924,0-1.562,0-1.562.924,0,.946.77.946,1.056.946.484,0,2.838-.088,3.366-.11l6.71-.176.066,2.86a3.619,3.619,0,0,0-2.86-1.3A4.213,4.213,0,0,0,69.7-7.546a4.081,4.081,0,0,0,4.07,4.312,3.482,3.482,0,0,0,2.948-1.408c-.088.748-.352,2.706-3.586,4.158-1.232.55-1.364.616-1.364,1.1a1.027,1.027,0,0,0,.968,1.012,8.786,8.786,0,0,0,4.444-2.794,7.686,7.686,0,0,0,1.54-5.016ZM76.714-7.656a2.689,2.689,0,0,1-2.662,2.772,2.456,2.456,0,0,1-2.508-2.662A2.522,2.522,0,0,1,74.1-10.274,2.563,2.563,0,0,1,76.714-7.656Z" transform="translate(677.805 760.964)" fill="#585048"/><path d="M11.625-5.7A11,11,0,0,1,13.56-12c.21-.3.24-.345.24-.495a.456.456,0,0,0-.48-.435.626.626,0,0,0-.51.315A11.09,11.09,0,0,0,10.32-5.7a11.214,11.214,0,0,0,2.4,6.825c.255.3.375.4.6.4A.456.456,0,0,0,13.8,1.1a.6.6,0,0,0-.15-.36A11.1,11.1,0,0,1,11.625-5.7Zm9.3-4.8h3.42a.6.6,0,0,0,.66-.675.594.594,0,0,0-.66-.645h-8.28a.594.594,0,0,0-.66.66.6.6,0,0,0,.66.66h3.42V-.45a.633.633,0,0,0,.72.69.646.646,0,0,0,.72-.69ZM31.17-1.365,27.3-11.49c-.135-.345-.225-.57-.69-.57a.7.7,0,0,0-.78.63,1.5,1.5,0,0,0,.165.6L29.94-.78c.18.45.405,1.02,1.245,1.02.81,0,1.035-.57,1.215-1.02l3.96-10.05a1.855,1.855,0,0,0,.15-.6.7.7,0,0,0-.78-.63c-.465,0-.555.24-.675.57Zm11.07-8c.9-.045,2.82-.165,4.365-.375,1.23-.18,1.53-.21,1.53-.69a.562.562,0,0,0-.555-.615c-.18,0-1.26.18-1.5.21-1.59.21-3.09.27-3.105.27.195-.33.57-.93.6-1.005a.725.725,0,0,0,.09-.315.609.609,0,0,0-.675-.51.67.67,0,0,0-.615.435c-.12.21-.645,1.23-.765,1.455-.825.015-.915.015-1.215.015-.255,0-1.47-.045-1.74-.045s-.72,0-.72.615c0,.51.36.585.7.6.075,0,1.215.015,2.3,0A42.373,42.373,0,0,1,38.49-5.64c-.615.825-.675.93-.675,1.11a.615.615,0,0,0,.615.6c.27,0,.33-.075.795-.7.705-.96,2-2.445,3.645-2.445a1.38,1.38,0,0,1,1.485,1.14c-2.295,1.08-4.02,2.19-4.02,3.855C40.335.48,43.8.48,45.09.48A21.3,21.3,0,0,0,48.285.255.553.553,0,0,0,48.8-.33c0-.06,0-.63-.525-.63a2.922,2.922,0,0,0-.375.03A19.066,19.066,0,0,1,44.7-.7c-.87,0-3.165,0-3.165-1.44,0-1.11,1.695-1.98,2.94-2.565.015.285-.045,1.71-.045,2.04a.569.569,0,0,0,.615.63c.63,0,.63-.36.63-1.755,0-.735-.015-.99-.045-1.425.075-.03,1.8-.75,3.075-1.2.66-.225.87-.3.87-.66,0-.135-.09-.675-.57-.675A26.646,26.646,0,0,0,45.42-6.42a2.273,2.273,0,0,0-2.385-1.695,3.614,3.614,0,0,0-2.04.69C41.415-8.055,41.505-8.19,42.24-9.36ZM61.215-5.085a14.834,14.834,0,0,0-3.5-1.65c.4-.9,1.02-2.355,1.425-3.27a4.567,4.567,0,0,0,.4-1.035.777.777,0,0,0-.75-.66c-.105,0-.63.1-.75.12a22.768,22.768,0,0,1-2.79.165c-.18,0-1.035-.03-1.23-.03-.315,0-.78,0-.78.645s.48.63.99.63a36.06,36.06,0,0,0,3.675-.225c-.345.93-.795,2.115-1.41,3.42a4.632,4.632,0,0,0-.855-.075,4.255,4.255,0,0,0-4.4,4.185c0,1.425.84,2.34,1.815,2.34.6,0,1.665-.06,4.125-5.1A13.915,13.915,0,0,1,60.78-3.84,6.713,6.713,0,0,1,58.425-.765c-.84.57-.93.615-.93.915a.639.639,0,0,0,.615.63c.225,0,.45-.06,1.17-.57a7.994,7.994,0,0,0,2.565-3.27c.165.15.975.855,1.155,1.005a1.117,1.117,0,0,0,.645.33.724.724,0,0,0,.63-.735c0-.21-.09-.36-.375-.615a18.1,18.1,0,0,0-1.575-1.26,15.023,15.023,0,0,0,.7-3.465c0-.15,0-.645-.7-.645-.51,0-.57.42-.6.69A17.4,17.4,0,0,1,61.215-5.085Zm-5.31-.75c-.855,1.665-2.04,4-2.835,4-.405,0-.66-.5-.66-1.035A3.117,3.117,0,0,1,55.905-5.835Zm17.55-4.8c-1.035.87-4.695,3.93-6.63,5.55-.9.75-1,.825-1,1.11a.686.686,0,0,0,.66.66c.21,0,.285-.075,1.05-.735A8.4,8.4,0,0,1,72.99-6.4c2.745,0,3.39,1.635,3.39,2.76A2.959,2.959,0,0,1,74.64-.93a3.847,3.847,0,0,0-3.69-2.895A2.256,2.256,0,0,0,68.415-1.71c0,1.74,2.1,2.46,3.96,2.46,3.12,0,5.31-1.845,5.31-4.44,0-1.59-1.05-3.78-4.305-3.78a7.6,7.6,0,0,0-2.835.6c1.305-1.065,2.145-1.77,4.155-3.3.705-.525.78-.585.78-.885a.812.812,0,0,0-.915-.78c-.3,0-1.725.165-2.04.18-.57.045-1.665.135-3.705.15-1.185.015-1.5.015-1.5.645,0,.615.585.615.735.615A53.717,53.717,0,0,0,73.455-10.635ZM73.47-.5a4.761,4.761,0,0,1-1.23.15c-1.155,0-2.64-.42-2.64-1.38,0-.465.36-.99,1.275-.99C72.165-2.715,73-1.89,73.47-.5Zm16.95-5.49c.165,0,.615,0,.57-.645a11.093,11.093,0,0,0,1.14,1.065.687.687,0,0,0,.36.12.654.654,0,0,0,.6-.66.63.63,0,0,0-.33-.51A9.664,9.664,0,0,1,91.14-8.16c.36-.375,1.575-1.86,1.575-2.775,0-.885-.855-.885-1.245-.885H90.045a.444.444,0,0,0-.51.48.444.444,0,0,0,.51.48h1.11c.1,0,.375,0,.375.225A4.875,4.875,0,0,1,90.495-9.03a9.605,9.605,0,0,1-1.29-3.06c-.09-.33-.165-.525-.525-.525a.487.487,0,0,0-.54.465A10.819,10.819,0,0,0,90.6-7.065a.937.937,0,0,0-.18-.015H85.98c.87-.975,2.19-2.91,2.19-3.96,0-.585-.5-.765-1.035-.765h-.87a1.128,1.128,0,0,0,.15-.48.5.5,0,0,0-.51-.45.514.514,0,0,0-.48.36A10.064,10.064,0,0,1,83.16-9.33c-.165.18-.255.3-.255.45a.546.546,0,0,0,.51.555c.2,0,.315-.09.66-.435.435.3.57.405,1.215.915a9.6,9.6,0,0,1-1.485,1.35c-.195.15-.315.255-.315.465a.575.575,0,0,0,.54.57c.36,0,1.08-.7,1.425-1.05a.5.5,0,0,0,.585.525ZM86.64-10.89c.165,0,.39,0,.39.255a3.618,3.618,0,0,1-.42.99,10.507,10.507,0,0,0-1.17-.78c.195-.27.225-.33.315-.465ZM84.57-9.3a5.589,5.589,0,0,0,.45-.57,14.476,14.476,0,0,1,1.215.84c-.2.285-.3.42-.435.6A10.3,10.3,0,0,0,84.57-9.3Zm-3.885-1.335c0-.345.165-.495.48-.495h.765c.315,0,.375.21.375.315,0,.51-1.08,2.7-1.08,3.21a1.371,1.371,0,0,0,.315.765,5.26,5.26,0,0,1,.87,2.88c0,.945-.42.945-.975.945-.24,0-.57,0-.57.57,0,.675.4.675.87.675.585,0,1.8,0,1.8-2.01a6.485,6.485,0,0,0-.96-3.345c-.285-.435-.315-.48-.315-.6,0-.09.03-.165.315-.81a7.27,7.27,0,0,0,.885-2.76c0-.96-.81-.96-1.365-.96h-1.17c-1.1,0-1.395.33-1.395,1.41V.735c0,.225.015.585.585.585a.5.5,0,0,0,.57-.585Zm6.87,7.02V-.57c0,.375-.135.525-.525.525-.075,0-.75-.03-.84-.03a.5.5,0,0,0-.555.57.613.613,0,0,0,.33.585c.135.06.21.06.9.06,1.365,0,1.9,0,1.9-1.41V-3.615H92.4A.521.521,0,0,0,93-4.17a.523.523,0,0,0-.6-.54H84.285a.506.506,0,0,0-.585.555.5.5,0,0,0,.585.54ZM85.47-2.73a.507.507,0,0,0-.51.27A7.41,7.41,0,0,1,83.475-.825c-.795.615-.825.645-.825.885a.652.652,0,0,0,.615.63A.629.629,0,0,0,83.6.57,8.253,8.253,0,0,0,84.93-.615c.375-.405,1.095-1.215,1.095-1.59A.58.58,0,0,0,85.47-2.73Zm5.025,0a.632.632,0,0,0-.585.555,5.243,5.243,0,0,0,.99,1.62C91.275-.075,91.965.75,92.385.75a.642.642,0,0,0,.6-.645c0-.2,0-.21-.57-.765A9.386,9.386,0,0,1,91-2.46.5.5,0,0,0,90.495-2.73Zm14-5.31c2.355-.21,2.49-.225,2.49-.84,0-.165-.045-.645-.54-.645-.015,0-1.71.18-1.98.21l-.045-2.19c-.015-.405-.195-.675-.63-.675a.609.609,0,0,0-.675.69l.06,2.25c-.93.045-1.065.045-1.62.045-.345,0-2.085-.06-2.28-.06-.33,0-.75,0-.75.645a.513.513,0,0,0,.45.585,20.261,20.261,0,0,0,2.58.12c.84,0,1.215-.015,1.65-.045l.075,3.87a6.525,6.525,0,0,0-1.71-.225c-2.235,0-3.03,1.29-3.03,2.4C98.535-.57,99.675.51,101.73.51c.57,0,2.1-.105,2.6-1.185a4.242,4.242,0,0,0,.255-1.71,9.679,9.679,0,0,1,1.59.855c.375.255.465.315.675.315a.658.658,0,0,0,.585-.675c0-.225-.1-.42-.45-.645a12.48,12.48,0,0,0-2.415-1.185Zm-1.185,5.175c0,1.4,0,2.22-1.68,2.22-1.335,0-1.9-.645-1.9-1.29,0-.75.735-1.215,1.83-1.215A5.754,5.754,0,0,1,103.305-2.865ZM95.025-5.19a20.578,20.578,0,0,0,.54,5.2.646.646,0,0,0,.66.525c.18,0,.675-.09.675-.555a2.454,2.454,0,0,0-.12-.675A17.941,17.941,0,0,1,96.315-4.9a27.121,27.121,0,0,1,.645-5.97,3.122,3.122,0,0,0,.075-.54.6.6,0,0,0-.675-.57.539.539,0,0,0-.585.42A29.757,29.757,0,0,0,95.025-5.19ZM115.9-7.935A33.08,33.08,0,0,0,119.7-10.71c.375-.33.54-.495.54-.75a.721.721,0,0,0-.7-.69c-.2,0-.285.075-1.02.7a31.533,31.533,0,0,1-8.79,5.07c-1.02.39-1.14.435-1.14.825a.712.712,0,0,0,.645.735,23.671,23.671,0,0,0,5.295-2.3V.225c0,.21,0,.675.69.675.66,0,.69-.45.69-.675Zm12.12.2,4.575-.675a1.653,1.653,0,0,1,.27-.03.1.1,0,0,1,.1.105,17.361,17.361,0,0,1-1.935,3.45c-.165.24-.225.33-.225.495a.678.678,0,0,0,.7.615c.39,0,.57-.225,1.185-1.23.6-.975,1.965-3.315,1.965-4.05a.767.767,0,0,0-.81-.81,3.609,3.609,0,0,0-.585.06l-5.46.81-.465-2.745c-.045-.3-.15-.6-.63-.6-.51,0-.735.315-.735.585a1.044,1.044,0,0,0,.03.24l.45,2.715-3.855.555c-.24.03-.6.12-.6.6,0,.78.555.7.78.675l3.885-.57L127.98.2c.075.4.225.63.615.63.525,0,.765-.3.765-.585a1.321,1.321,0,0,0-.03-.255ZM142.29-9.21H137.1a.592.592,0,0,0-.675.66.589.589,0,0,0,.675.63h5.19v6.5c0,.81-.225.81-1.35.81-.24,0-.675,0-.675.585,0,.69.51.69,1.05.69,1.83,0,2.325-.435,2.325-1.95V-7.92h4.89a.593.593,0,0,0,.675-.645.593.593,0,0,0-.675-.645h-4.89v-2.445c0-.435-.195-.645-.675-.645-.645,0-.675.405-.675.645ZM137.16-.975c.24,0,.4,0,1.47-1.44a13.274,13.274,0,0,0,1.86-3.225.746.746,0,0,0-.765-.63c-.285,0-.4.135-.57.435a16.06,16.06,0,0,1-1.995,3.12c-.66.795-.735.885-.735,1.065A.748.748,0,0,0,137.16-.975Zm8.22-4.665c0,.18.06.255.27.555a33.445,33.445,0,0,1,1.815,2.895c.54.975.6,1.08.93,1.08a.739.739,0,0,0,.765-.645A15.526,15.526,0,0,0,147.45-4.8c-.96-1.44-1.065-1.47-1.35-1.47A.715.715,0,0,0,145.38-5.64ZM162.39-8.3a.674.674,0,0,0-.57.39,17.458,17.458,0,0,1-2.25,2.715,15.989,15.989,0,0,1-7.065,4.065c-.96.24-1.2.3-1.2.78a.772.772,0,0,0,.735.81,15.713,15.713,0,0,0,6.18-2.715c3.06-2.13,4.92-4.92,4.92-5.355A.772.772,0,0,0,162.39-8.3ZM152.055-11.16a.729.729,0,0,0-.735.7c0,.3.21.435.435.54a20.628,20.628,0,0,1,3.15,1.47,1.607,1.607,0,0,0,.705.285.745.745,0,0,0,.66-.765c0-.3,0-.525-2.01-1.44A10.387,10.387,0,0,0,152.055-11.16Zm17.115,1.8c.9-.045,2.82-.165,4.365-.375,1.23-.18,1.53-.21,1.53-.69a.562.562,0,0,0-.555-.615c-.18,0-1.26.18-1.5.21-1.59.21-3.09.27-3.1.27.2-.33.57-.93.6-1.005a.725.725,0,0,0,.09-.315.609.609,0,0,0-.675-.51.67.67,0,0,0-.615.435c-.12.21-.645,1.23-.765,1.455-.825.015-.915.015-1.215.015-.255,0-1.47-.045-1.74-.045s-.72,0-.72.615c0,.51.36.585.705.6.075,0,1.215.015,2.295,0A42.375,42.375,0,0,1,165.42-5.64c-.615.825-.675.93-.675,1.11a.615.615,0,0,0,.615.6c.27,0,.33-.075.795-.7.705-.96,1.995-2.445,3.645-2.445a1.38,1.38,0,0,1,1.485,1.14c-2.295,1.08-4.02,2.19-4.02,3.855C167.265.48,170.73.48,172.02.48a21.3,21.3,0,0,0,3.195-.225.553.553,0,0,0,.51-.585c0-.06,0-.63-.525-.63a2.922,2.922,0,0,0-.375.03A19.065,19.065,0,0,1,171.63-.7c-.87,0-3.165,0-3.165-1.44,0-1.11,1.7-1.98,2.94-2.565.015.285-.045,1.71-.045,2.04a.569.569,0,0,0,.615.63c.63,0,.63-.36.63-1.755,0-.735-.015-.99-.045-1.425.075-.03,1.8-.75,3.075-1.2.66-.225.87-.3.87-.66,0-.135-.09-.675-.57-.675A26.646,26.646,0,0,0,172.35-6.42a2.273,2.273,0,0,0-2.385-1.695,3.614,3.614,0,0,0-2.04.69C168.345-8.055,168.435-8.19,169.17-9.36ZM181.2-4.29c1.635-.735,1.725-.78,1.725-1.17a.516.516,0,0,0-.48-.57.59.59,0,0,0-.315.09c-.255.105-.675.285-.93.405V-8.7h1.11a.516.516,0,0,0,.6-.585.52.52,0,0,0-.6-.585H181.2v-2.22a.554.554,0,0,0-.615-.63.549.549,0,0,0-.6.63v2.22h-1.5a.531.531,0,0,0-.615.585.535.535,0,0,0,.615.585h1.5v3.63c-.285.105-1.635.51-1.875.615a.482.482,0,0,0-.33.51c0,.33.2.705.54.705a10.68,10.68,0,0,0,1.665-.54V-.66c0,.465-.24.525-.54.525-1.14,0-1.4,0-1.4.6,0,.675.42.675,1.245.675,1.335,0,1.9,0,1.9-1.4Zm2.685,1.26c0,.165.03.21.36.63.255.33.675.87.915,1.26s.4.615.72.615a.74.74,0,0,0,.705-.645c0-.33-.57-1.035-.84-1.395-.7-.9-.87-1.05-1.2-1.05A.65.65,0,0,0,183.885-3.03Zm6.18-1.11h1.05c.39,0,.585-.18.585-.57a.506.506,0,0,0-.585-.57h-1.05V-6.915h1.17c.315,0,.585-.105.585-.585,0-.57-.42-.57-.615-.57h-3.39v-1.965h2.85a.522.522,0,0,0,.615-.555.527.527,0,0,0-.615-.555h-2.85V-12.15c0-.465-.255-.585-.66-.585-.585,0-.6.4-.6.585v1.005h-2.73a.516.516,0,0,0-.6.555.516.516,0,0,0,.6.555h2.73V-8.07H183.2c-.285,0-.585.075-.585.585a.5.5,0,0,0,.585.57h5.61V-5.28H183.57c-.3,0-.6.075-.6.57,0,.54.375.57.6.57H188.8V-.885c0,.465-.18.72-.6.735-.2.015-1.155,0-1.38,0s-.63,0-.63.54c0,.045,0,.57.4.69a7.794,7.794,0,0,0,1.425.06c1.41,0,2.04-.09,2.04-1.65Zm3.45-4.02a.545.545,0,0,0-.63.54.539.539,0,0,0,.63.54h3.525a11.326,11.326,0,0,1-3.66,2.22c-.345.135-.48.24-.48.51a.614.614,0,0,0,.585.66,4.616,4.616,0,0,0,1.275-.51,11.673,11.673,0,0,0,3.765-2.88h2.745a10.628,10.628,0,0,0,2.79,2.595,7.091,7.091,0,0,0,2.175,1.02.674.674,0,0,0,.6-.72c0-.315-.03-.33-.945-.7a7.431,7.431,0,0,1-3.18-2.19h3.585a.545.545,0,0,0,.63-.54.539.539,0,0,0-.63-.54h-6.99a7.041,7.041,0,0,0,.585-1.08,42.548,42.548,0,0,0,4.485-.255c.645.555.72.615.975.615a.668.668,0,0,0,.6-.615c0-.27-.135-.39-.93-1.035a19.407,19.407,0,0,0-2.175-1.53.916.916,0,0,0-.54-.195.578.578,0,0,0-.585.555c0,.15.09.255.255.39.24.2.87.66,1.3.975-1.995.135-3.975.195-5.97.195.285-.36.5-.63.93-1.275.315-.465.375-.585.375-.75,0-.375-.5-.495-.72-.495-.345,0-.42.12-.885.915-.135.225-.72,1.1-1.11,1.59-.135,0-1.845-.015-1.9-.015a.442.442,0,0,0-.42.48c0,.54.36.54.615.54,1.47,0,2.985-.03,4.455-.06A5.5,5.5,0,0,1,198-8.16Zm10.98,5.145a.966.966,0,0,0-.465.225A15.874,15.874,0,0,1,195.045.075c-.285.015-.645.045-.645.51a.567.567,0,0,0,.63.615,22.48,22.48,0,0,0,3.51-.435,16.736,16.736,0,0,0,5.76-2.31c.735-.5.825-.615.825-.87A.623.623,0,0,0,204.495-3.015Zm-4.1-3.09a.8.8,0,0,0-.4.165,12.332,12.332,0,0,1-4.425,1.86c-.225.045-.42.12-.42.42,0,.15.075.585.51.585a12.848,12.848,0,0,0,4.5-1.695c.705-.465.795-.525.795-.735A.61.61,0,0,0,200.4-6.105Zm1.9,1.575a.866.866,0,0,0-.39.165,15.2,15.2,0,0,1-6.8,2.325c-.285.03-.54.09-.54.48a.544.544,0,0,0,.54.585,17.375,17.375,0,0,0,6.9-2.13c.585-.345.885-.51.885-.795A.638.638,0,0,0,202.3-4.53ZM212.73-9.675c.045-.21.255-1.23.3-1.455h1.38c.225,0,.63-.03.63-.555,0-.54-.465-.54-.63-.54h-4.17c-1.155,0-1.605.405-1.605,1.605v5.25a13.15,13.15,0,0,1-.765,5.325.882.882,0,0,0-.1.405.619.619,0,0,0,.645.6c.345,0,.495-.24.735-1.125a20.349,20.349,0,0,0,.57-5.175v-5.115a.591.591,0,0,1,.675-.675h1.56c-.135.75-.18.99-.3,1.455-.87.045-1.155.3-1.155,1.3v3.09c0,1.035.3,1.3,1.305,1.3h.375v3.51c0,.225-.015.42-.24.465a7.027,7.027,0,0,1-.795,0c-.135,0-.48,0-.48.525,0,.18.06.54.4.6a7.725,7.725,0,0,0,.855.03c.915,0,1.245-.15,1.245-1.11v-4.02h.42c1.035,0,1.3-.3,1.3-1.3V-8.37c0-1-.285-1.3-1.3-1.3Zm4.365-.2c-1.065,0-1.38.3-1.38,1.41v5.19c0,1.08.285,1.41,1.38,1.41h2.73c1.05,0,1.38-.285,1.38-1.41V-8.46c0-1.11-.315-1.41-1.38-1.41h-1.4c.285-.93.315-1.005.375-1.26h2.4a.5.5,0,0,0,.585-.54.5.5,0,0,0-.585-.54H215.85a.492.492,0,0,0-.57.54.487.487,0,0,0,.57.54h1.77a10.227,10.227,0,0,1-.315,1.26Zm2.97,4.575h-3.21V-6.63h3.21Zm-3.21-3.135c0-.3.135-.48.5-.48h2.235a.424.424,0,0,1,.48.48v.885h-3.21Zm3.21,4.08v1.035a.423.423,0,0,1-.48.48H217.35c-.375,0-.5-.2-.5-.48V-4.35ZM211.53-8.31a.422.422,0,0,1,.48-.48h1.38a.421.421,0,0,1,.48.48V-7.3h-2.34Zm2.34,1.875V-5.4a.42.42,0,0,1-.48.48h-1.38a.422.422,0,0,1-.48-.48V-6.435ZM210.9-3.33c-.27,0-.33.225-.36.345a8.2,8.2,0,0,1-.585,2.025c-.225.525-.255.585-.255.705a.511.511,0,0,0,.54.465c.27,0,.4-.12.675-.915a13.04,13.04,0,0,0,.51-2.22C211.425-3.27,211.14-3.33,210.9-3.33Zm8.625,1.89a.573.573,0,0,0-.615.54c0,.15,0,.3.735.96.39.345,1.29,1.125,1.65,1.125a.634.634,0,0,0,.57-.63A.427.427,0,0,0,221.61.15a8.9,8.9,0,0,1-1.56-1.23C219.705-1.41,219.675-1.44,219.525-1.44ZM214.29-3.45a.446.446,0,0,0-.5.39,1.324,1.324,0,0,0,.09.39c.045.15.375,1.215.39,1.275.2.75.225.84.525.84.09,0,.51-.045.51-.42a8.761,8.761,0,0,0-.4-1.515C214.635-3.27,214.575-3.45,214.29-3.45Zm2.88,2c-.15,0-.18.03-.69.48a8.828,8.828,0,0,1-1.125.795c-.675.39-.75.435-.75.7a.648.648,0,0,0,.555.645A3.819,3.819,0,0,0,216.6.33c.96-.735,1.155-.99,1.155-1.23A.577.577,0,0,0,217.17-1.455Zm7.545-9.78c-.525,0-.6.405-.645.63a22.588,22.588,0,0,0-.3,3.705c0,4.845,1.77,7.14,3.225,7.14,1.98,0,3.15-4.02,3.15-4.23a.641.641,0,0,0-.69-.57c-.345,0-.39.09-.72.96-.375,1.005-1.05,2.355-1.7,2.355-1.1,0-1.935-2.49-1.935-5.58a20.533,20.533,0,0,1,.165-2.625c.03-.18.165-1.05.165-1.245C225.435-11.085,225.06-11.235,224.715-11.235Zm8.55,1.065a.655.655,0,0,0-.645.615c0,.15.045.21.4.765a11.726,11.726,0,0,1,1.71,5.13c.09,1.065.135,1.515.705,1.515.69,0,.69-.645.69-.975a12.144,12.144,0,0,0-1-4.59C234.765-8.535,233.91-10.17,233.265-10.17Zm11.19,1.245c1.485-.015,3.15-.045,4.47-.1a.562.562,0,0,0,.645-.615.57.57,0,0,0-.66-.6c-.135,0-1.56.045-1.845.06-.525.015-1.335.03-2.61.06l-.015-1.62c0-.45-.24-.63-.66-.63a.552.552,0,0,0-.63.615v1.635c-1.2.015-1.77.03-2.265.015-.345,0-2-.06-2.37-.06-.255,0-.765,0-.765.63,0,.57.435.6.675.615.075.015,1.05.045,4.74.015v1.845c-.585.015-3.5-.015-4.155-.015-.21,0-.72,0-.72.585s.39.63.66.645c.7.03,2.565.015,4.23,0v2.07c-.18-.015-.9-.09-1.35-.09-2.37,0-3.585.945-3.585,2.31,0,1.4,1.3,2.265,3.225,2.265,2.97,0,2.985-1.68,3-2.985a12.8,12.8,0,0,1,3.3,1.56,1.2,1.2,0,0,0,.63.27.7.7,0,0,0,.63-.72c0-.27-.165-.48-.66-.78a15.127,15.127,0,0,0-3.9-1.605V-5.88c1.11-.015,2.64-.045,3.825-.105.165-.015.63-.03.63-.6a.594.594,0,0,0-.69-.63c-.585,0-3.195.12-3.78.135ZM243.18-2.61c0,1.395,0,2.175-1.83,2.175-.78,0-1.86-.255-1.86-1.11,0-.435.33-1.185,2.385-1.185A8.778,8.778,0,0,1,243.18-2.61ZM259.7-9.225l1.515-.045h1.935c.39,0,.84,0,.84-.645,0-.435-.255-.6-.66-.6-.06,0-1.875.075-2.085.075l-1.56.03-.015-1.5a.581.581,0,0,0-.645-.645.575.575,0,0,0-.645.66l.03,1.515-4.665.1h-1.83c-.63,0-1.065,0-1.065.63,0,.645.525.645.72.645.33,0,1.935-.06,2.3-.075l4.575-.12.045,1.95a2.468,2.468,0,0,0-1.95-.885,2.873,2.873,0,0,0-2.94,2.985,2.782,2.782,0,0,0,2.775,2.94,2.374,2.374,0,0,0,2.01-.96c-.06.51-.24,1.845-2.445,2.835-.84.375-.93.42-.93.75a.7.7,0,0,0,.66.69A5.99,5.99,0,0,0,258.69-.8a5.241,5.241,0,0,0,1.05-3.42Zm-1.32,4.005a1.834,1.834,0,0,1-1.815,1.89,1.674,1.674,0,0,1-1.71-1.815,1.719,1.719,0,0,1,1.74-1.86A1.747,1.747,0,0,1,258.375-5.22Zm9.495-.48A11,11,0,0,1,265.935.6c-.21.3-.24.345-.24.5a.456.456,0,0,0,.48.435c.21,0,.33-.105.51-.315a11.045,11.045,0,0,0,2.49-6.915,11.176,11.176,0,0,0-2.4-6.825c-.255-.3-.375-.405-.6-.405a.456.456,0,0,0-.48.435.6.6,0,0,0,.15.36A11.133,11.133,0,0,1,267.87-5.7Z" transform="translate(577.469 781.994)" fill="#585048"/></g></svg>