<svg xmlns="http://www.w3.org/2000/svg" width="152.48" height="73.171" viewBox="0 0 152.48 73.171"><path d="M0,294.808V271.482a13.3,13.3,0,0,1,13.259-13.259H139.221a13.3,13.3,0,0,1,13.259,13.259v23.326" transform="translate(0 -258.223)" fill="#585048"/><path d="M152.48,291.334V314.66a13.3,13.3,0,0,1-13.259,13.259H13.259A13.3,13.3,0,0,1,0,314.66V291.334" transform="translate(0 -254.748)" fill="#fff"/><path d="M7.084-14.036c-.99.044-2.068.044-2.31.044s-1.386-.044-1.628-.044c-.462,0-.99.154-.99.924,0,.968.594.968,2.486.968,1.056,0,2.068-.044,2.442-.066v3.432C4.708-7.656,1.672-5.7,1.672-2.992,1.672-.528,4.422.9,6.314.9c2.618,0,2.64-2.31,2.64-3.784V-7.7a13.568,13.568,0,0,1,4.576-.968c3.19,0,4.62,1.65,4.62,3.806,0,1.716-.792,3.476-3.674,3.476a4.212,4.212,0,0,1-.99-.11,2.59,2.59,0,0,0-.594-.11.846.846,0,0,0-.836.88c0,1.034,1.408,1.21,2.53,1.21a5.079,5.079,0,0,0,5.5-5.39c0-2.97-2.068-5.522-6.248-5.522A14.243,14.243,0,0,0,8.954-9.5v-2.838c.352-.022,2.838-.308,3.894-.55.462-.11,1.056-.286,1.056-.946a.886.886,0,0,0-.836-.924c-.088,0-1.122.2-1.3.22-.814.154-2.068.308-2.816.374v-3.014a.874.874,0,0,0-.946-1.012c-.924,0-.924.726-.924,1.012ZM7.106-2.948c0,1.144,0,2.068-1.056,2.068-1.034,0-2.618-.858-2.618-2.09,0-1.936,3.08-3.564,3.674-3.894Zm8.932-13.2a.93.93,0,0,0-.9.858.993.993,0,0,0,.462.748A18.676,18.676,0,0,1,17.952-12.5c1.166,1.276,1.21,1.3,1.584,1.3a1.01,1.01,0,0,0,.99-.968c0-.66-1.3-1.782-2.024-2.4C17.754-15.2,16.588-16.148,16.038-16.148ZM31.57-5.126C34.21.7,41.756,1.914,42.284,1.914c.7,0,.946-.726.946-1.144,0-.594-.506-.7-.858-.77a16.6,16.6,0,0,1-4.906-1.518A29.973,29.973,0,0,0,40.788-4c1.21-1.078,1.3-1.232,1.3-1.562a1.046,1.046,0,0,0-1.012-.946.942.942,0,0,0-.726.4A20.95,20.95,0,0,1,35.9-2.486a9.626,9.626,0,0,1-2.376-2.64h4.488c1.628,0,2.068-.44,2.068-2.046V-11.11c0-1.628-.462-2.068-2.068-2.068H33.968v-1.65c0-.55-.264-.836-.924-.836-.836,0-.9.484-.9.836v1.65H28.028c-1.628,0-2.068.462-2.068,2.068V-.242c-1.738.154-1.936.154-2.068.2a.763.763,0,0,0-.528.814c0,.946.638.946.9.946.616,0,5.346-.506,8.206-.946,1.452-.22,1.8-.286,1.8-.99,0-.374-.176-.88-.726-.88-.132,0-1.672.242-1.914.286-1.452.22-2.486.308-3.85.418v-4.73ZM27.786-9.812v-1.232a.619.619,0,0,1,.7-.7h9.086a.619.619,0,0,1,.7.7v1.232ZM38.28-7.3c0,.462-.2.726-.7.726h-9.79V-8.47H38.28Zm-5.214-9.878a.4.4,0,0,1,.242.088c.154.132.9.814,1.078.968A25.1,25.1,0,0,0,42.57-11.88c.7,0,.9-.726.9-1.078,0-.528-.308-.7-.814-.88a19.407,19.407,0,0,1-7.964-4.268,2.028,2.028,0,0,0-1.606-.638,2.065,2.065,0,0,0-1.628.66,19.632,19.632,0,0,1-8.008,4.268c-.286.088-.748.242-.748.836,0,.286.176,1.078.924,1.078a24.234,24.234,0,0,0,9-4.972C32.868-17.116,32.934-17.182,33.066-17.182ZM63.6-4.708h.946a.7.7,0,0,0,.792-.7.693.693,0,0,0-.792-.726H63.6v-.836c0-1.474-.594-1.914-1.914-1.914H55.836v-1.166h5.39c1.386,0,1.848-.44,1.848-1.826v-.55c0-1.408-.484-1.848-1.848-1.848h-5.39v-1.144h8.492a.716.716,0,0,0,.836-.748.724.724,0,0,0-.836-.748H55.836v-.924c0-.616-.4-.748-.968-.748-.638,0-.814.33-.814.748v.924H45.628a.732.732,0,0,0-.858.748.732.732,0,0,0,.858.748h8.426v1.144h-5.5c-1.408,0-1.826.462-1.826,1.826v.572c0,1.43.462,1.826,1.848,1.826h5.478v1.166h-7.37c-.33,0-.748.11-.748.682,0,.506.374.66.748.66h7.37v1.408H45.408a.719.719,0,0,0-.836.726c0,.7.66.7.836.7h8.646v1.474h-7.3c-.242,0-.814.022-.814.726a.69.69,0,0,0,.814.7h7.3v.836c0,.792-.418.946-1.012.946H51.128c-.506,0-1.012,0-1.012.77,0,.506.2.836.66.9.352.044,1.5.044,1.914.044,1.914,0,3.146,0,3.146-2.354V-1.8h5.852c.88,0,1.914-.132,1.914-1.782Zm-14.52-6.644c-.374,0-.55-.154-.55-.506V-12.5c0-.352.2-.506.55-.506h4.972v1.65ZM55.836-13h4.818c.242,0,.616,0,.616.506v.638c0,.506-.4.528-.616.506H55.836Zm5.3,5.456a.619.619,0,0,1,.7.7v.7H55.836V-7.546Zm.7,3.608c0,.506-.242.7-.7.7h-5.3V-4.708h6.006Z" transform="translate(43.106 25.928)" fill="#fff"/><path d="M1.232-8.668a8.784,8.784,0,0,0,9,9.02,8.784,8.784,0,0,0,9-9.02,8.784,8.784,0,0,0-9-9.02A8.771,8.771,0,0,0,1.232-8.668Zm2.134,0a6.868,6.868,0,0,1,6.864-7.084,6.868,6.868,0,0,1,6.864,7.084A6.868,6.868,0,0,1,10.23-1.584,6.868,6.868,0,0,1,3.366-8.668ZM24.42-9.812v-6.864a.92.92,0,0,0-1.056-1.012.943.943,0,0,0-1.056,1.012V-.66c0,.726.44,1.012,1.078,1.012A.911.911,0,0,0,24.42-.66V-9.13L32.1-.352c.352.4.616.7,1.034.7A1.138,1.138,0,0,0,34.276-.66c0-.286-.154-.484-.528-.9L26.62-9.46l6.556-6.556a1.2,1.2,0,0,0,.374-.7,1.08,1.08,0,0,0-1.1-.968c-.33,0-.4.044-1.012.682Z" transform="translate(58.708 62.524)" fill="#585048"/></svg>