<svg xmlns="http://www.w3.org/2000/svg" width="152.48" height="73.171" viewBox="0 0 152.48 73.171"><path d="M0,216.808V193.482a13.3,13.3,0,0,1,13.259-13.259H139.221a13.3,13.3,0,0,1,13.259,13.259v23.326" transform="translate(0 -180.223)" fill="#585048"/><path d="M152.48,213.334V236.66a13.3,13.3,0,0,1-13.259,13.259H13.259A13.3,13.3,0,0,1,0,236.66V213.334" transform="translate(0 -176.748)" fill="#fff"/><path d="M11.176-16.5a7.406,7.406,0,0,0,.594-1.562c0-.66-.77-.7-.9-.7-.55,0-.726.4-.9.792a18.811,18.811,0,0,1-3.124,5.236.841.841,0,0,0-.264.594.929.929,0,0,0,.88.88c.308,0,.506-.088,1.32-1.166v2.97c0,1.562.638,2.024,2.046,2.024H20.5c.418,0,.748-.154.748-.638,0-.55-.44-.66-.748-.66h-4.6v-1.342h3.52c.484,0,.7-.22.7-.638,0-.44-.286-.594-.7-.594h-3.52V-12.65h3.542c.418,0,.682-.176.682-.594,0-.44-.286-.616-.682-.616H15.906v-1.32h3.982c.55,0,.77-.264.77-.682,0-.462-.286-.66-.77-.66h-3.85A7.124,7.124,0,0,0,16.632-18c0-.66-.792-.682-.88-.682a.827.827,0,0,0-.726.374c-.066.132-.726,1.518-.858,1.8ZM14.3-11.308H10.472V-12.65H14.3Zm-3.828-3.146a.635.635,0,0,1,.7-.726H14.3v1.32H10.472ZM14.3-10.076v1.342H11.176a.619.619,0,0,1-.7-.7v-.638ZM5.016-6.336A20.333,20.333,0,0,0,7.062-7.26a.78.78,0,0,0,.308-.682c0-.44-.242-.836-.682-.836a1.286,1.286,0,0,0-.418.088c-.066.022-.836.33-1.254.484V-12.76h1.43c.528,0,.726-.33.726-.858,0-.682-.308-.858-.726-.858H5.016V-17.82c0-.242,0-.88-.88-.88a.763.763,0,0,0-.858.88v3.344H1.584c-.33,0-.9.044-.9.858,0,.836.594.858.9.858H3.278v5.17c-.286.088-1.782.528-2.112.66a.818.818,0,0,0-.594.836.867.867,0,0,0,.792.946,8.652,8.652,0,0,0,1.914-.528v4.73c0,.352-.066.638-.462.726C2.75-.2,2.244-.2,1.628-.2A.707.707,0,0,0,.836.594c0,1.078.77,1.078,1.078,1.078A6.392,6.392,0,0,0,4.07,1.54c.946-.308.946-1.32.946-1.936ZM10.78-4.862A5.893,5.893,0,0,1,8.206-.55C6.512.484,6.512.484,6.512.88a.977.977,0,0,0,.9.99A6.633,6.633,0,0,0,10.34-.022a8.554,8.554,0,0,0,2.266-4.84h2.662c.132,0,.352,0,.352.264,0,.132-.132.726-.132.858,0,1.078.814,1.078,1.232,1.078h1.232c.22,0,.594,0,.594.44A11.967,11.967,0,0,1,18.37-.836c-.132.616-.308.814-.682.858C17.38.044,15.84,0,15.488,0c-.176,0-.726,0-.726.748a.884.884,0,0,0,.484.88,5.946,5.946,0,0,0,1.628.066c1.848,0,2.244,0,2.86-.88.528-.748.66-3.234.66-3.454,0-1.056-.7-1.386-1.628-1.386H17.8c-.154,0-.462.022-.462-.33,0-.132.154-.814.154-.968,0-.99-1.122-.99-1.606-.99H8.052c-.242,0-.836,0-.836.726s.616.726.836.726ZM40.436-15.224h2.09c.22,0,.858,0,.858-.748a.738.738,0,0,0-.858-.77h-2.09v-1.122c0-.572-.33-.792-.968-.792-.7,0-.836.44-.836.792v1.122h-4.62v-1.122c0-.352-.11-.792-.9-.792-.77,0-.9.44-.9.792v1.122H27.676v-1.122c0-.55-.33-.792-.99-.792s-.858.352-.858.792v1.122H23.672c-.352,0-.836.066-.836.77,0,.748.572.748.836.748h2.156v1.364c0,1.628.462,2.068,2.068,2.068H38.368c1.65,0,2.068-.484,2.068-2.068Zm-8.228,0V-13.2H28.38c-.506,0-.7-.264-.7-.726v-1.3Zm6.424,0v1.3a.633.633,0,0,1-.726.726H34.012v-2.024Zm-4.6,8.382v-2H40c.528,0,.924.2.924.946V-6.2c0,.286.022.858.946.858.9,0,.9-.594.9-.858v-1.8c0-1.892-.572-2.376-2.376-2.376H25.85c-1.87,0-2.376.55-2.376,2.376v1.8c0,.55.2.858.946.858a.756.756,0,0,0,.858-.858V-7.9c0-.616.264-.946.946-.946h5.94v2H28.138c-1.892,0-2.376.55-2.376,2.376V-.11c0,.33.022.858.924.858s.9-.572.9-.858v-4.2a.866.866,0,0,1,.99-.99h3.586V1.122c0,.374.066.858.946.858.9,0,.924-.55.924-.858V-5.3h3.674a.875.875,0,0,1,.99.99V-1.98c0,.792-.4.924-.792.968-.2.022-1.144,0-1.364,0-.44,0-.946,0-.946.77,0,.9.572.9,1.672.9,2.068,0,3.234,0,3.234-2.332V-4.466c0-1.87-.55-2.376-2.376-2.376ZM55.616-1.628h5.742c1.5,0,2.046-.55,2.046-2.024V-7.106c0-1.5-.572-2.024-2.046-2.024H48.18c-1.43,0-2.024.484-2.024,2.024v3.432c0,1.5.528,2.046,2.024,2.046h5.654V-.616c0,1.98.77,2.068,2.552,2.068h5.39c1.562,0,2.508,0,2.9-.88a8.223,8.223,0,0,0,.418-2.2.832.832,0,0,0-.924-.9c-.616,0-.682.44-.77.946C63.25-.55,63.162-.066,62.348,0c-.22.022-.374.022-5.764.022-.484,0-.968,0-.968-.726Zm-7.678-4.51v-.968a.619.619,0,0,1,.7-.7h5.192v1.672Zm.7,3.124c-.484,0-.7-.242-.7-.726V-4.884h5.9v1.87Zm6.974-4.8h5.236a.619.619,0,0,1,.7.7v.968h-5.94Zm5.94,2.926V-3.74a.635.635,0,0,1-.7.726H55.616v-1.87Zm-5.874-9.152h6.16a.866.866,0,0,1,.99.99v1.584c0,.66.286.9.968.9a.771.771,0,0,0,.836-.9v-1.452c0-1.892-.55-2.376-2.376-2.376H55.682v-1.1H62.92c.308,0,.814-.022.814-.748,0-.682-.55-.7-.814-.7H46.794c-.22,0-.836,0-.836.726a.711.711,0,0,0,.836.726h7.194v1.1H47.432c-1.87,0-2.376.528-2.376,2.376v1.452c0,.66.308.88.9.88a.764.764,0,0,0,.836-.88v-1.584c0-.638.264-.99.968-.99h6.226v3.564c0,.572.2.858.9.858a.729.729,0,0,0,.792-.858ZM48.312-11.2c-.352,0-.572.154-.572.506,0,.506.418.506.572.506H52.25c.308,0,.572-.088.572-.506s-.308-.506-.572-.506Zm9.064,0c-.352,0-.55.154-.55.506,0,.44.33.506.55.506h4.048c.33,0,.572-.132.572-.506-.022-.4-.264-.506-.572-.506Zm-9.064-1.914c-.352,0-.55.132-.55.506,0,.418.308.484.55.484h3.96c.264,0,.55-.088.55-.506a.476.476,0,0,0-.55-.484Zm9.064,0c-.308,0-.55.11-.55.506,0,.44.352.484.55.484h4.048c.33,0,.572-.132.572-.506,0-.44-.352-.484-.572-.484ZM82.39-16.06a22.82,22.82,0,0,0,3.85-.792.734.734,0,0,0,.462-.7.8.8,0,0,0-.748-.836c-.264,0-2.662.572-3.168.66a60.985,60.985,0,0,1-6.292.572c-.352.022-.88.044-.88.77,0,.858.594.858.88.858.22,0,1.254-.044,4.158-.33V-12.3H76.12a.75.75,0,0,0-.88.814.764.764,0,0,0,.88.836h4.532V-6.93h-1.8c-1.672,0-2.354.55-2.354,2.332V-.9c0,1.8.7,2.354,2.354,2.354h5.346c1.672,0,2.354-.594,2.354-2.354V-4.6c0-1.782-.682-2.332-2.354-2.332h-1.8v-3.718H86.7a.764.764,0,0,0,.88-.836.757.757,0,0,0-.88-.814H82.39Zm2.4,14.894a.875.875,0,0,1-.99.99H79.244a.875.875,0,0,1-.99-.99V-4.334c0-.682.352-.968.99-.968H83.8c.616,0,.99.264.99.968ZM74.47-3.3c0-1.54-.418-2-2-2h-2.86c-1.584,0-2,.462-2,2V-.55c0,1.584.484,1.98,2,1.98H72.49c1.584,0,1.98-.462,1.98-1.98ZM72.864-.792c0,.506-.242.726-.7.726H69.982c-.572,0-.7-.352-.7-.726V-3.146a.616.616,0,0,1,.7-.7H72.16a.619.619,0,0,1,.7.7Zm-4.51-17.05c-.242,0-.836,0-.836.77,0,.748.594.748.836.748h5.368a.73.73,0,0,0,.858-.77c0-.748-.638-.748-.858-.748Zm-.7,3.124c-.286,0-.836.022-.836.792a.714.714,0,0,0,.836.792h6.776a.729.729,0,0,0,.858-.792.736.736,0,0,0-.858-.792Zm.7,3.124a.714.714,0,0,0-.836.792.715.715,0,0,0,.836.77h5.368a.733.733,0,0,0,.858-.792c0-.77-.616-.77-.858-.77Zm0,3.168a.715.715,0,0,0-.836.77.715.715,0,0,0,.836.77H73.7c.264,0,.88,0,.88-.77a.73.73,0,0,0-.858-.77Z" transform="translate(31.924 25.928)" fill="#fff"/><path d="M5.632-6.292c2.4-1.078,2.53-1.144,2.53-1.716a.756.756,0,0,0-.7-.836A.866.866,0,0,0,7-8.712c-.374.154-.99.418-1.364.594V-12.76H7.26a.757.757,0,0,0,.88-.858.763.763,0,0,0-.88-.858H5.632v-3.256a.812.812,0,0,0-.9-.924.806.806,0,0,0-.88.924v3.256H1.65a.778.778,0,0,0-.9.858.785.785,0,0,0,.9.858h2.2v5.324c-.418.154-2.4.748-2.75.9a.707.707,0,0,0-.484.748c0,.484.286,1.034.792,1.034A15.663,15.663,0,0,0,3.85-5.544V-.968c0,.682-.352.77-.792.77-1.672,0-2.046,0-2.046.88,0,.99.616.99,1.826.99,1.958,0,2.794,0,2.794-2.046ZM9.57-4.444c0,.242.044.308.528.924.374.484.99,1.276,1.342,1.848s.594.9,1.056.9a1.085,1.085,0,0,0,1.034-.946c0-.484-.836-1.518-1.232-2.046-1.034-1.32-1.276-1.54-1.76-1.54A.953.953,0,0,0,9.57-4.444Zm9.064-1.628h1.54c.572,0,.858-.264.858-.836a.742.742,0,0,0-.858-.836h-1.54v-2.4H20.35c.462,0,.858-.154.858-.858,0-.836-.616-.836-.9-.836H15.334v-2.882h4.18a.765.765,0,0,0,.9-.814.773.773,0,0,0-.9-.814h-4.18V-17.82c0-.682-.374-.858-.968-.858-.858,0-.88.594-.88.858v1.474h-4a.757.757,0,0,0-.88.814.757.757,0,0,0,.88.814h4v2.882H8.558c-.418,0-.858.11-.858.858a.739.739,0,0,0,.858.836h8.228v2.4H9.108c-.44,0-.88.11-.88.836,0,.792.55.836.88.836h7.678V-1.3c0,.682-.264,1.056-.88,1.078-.286.022-1.694,0-2.024,0-.352,0-.924,0-.924.792,0,.066,0,.836.594,1.012a11.431,11.431,0,0,0,2.09.088c2.068,0,2.992-.132,2.992-2.42ZM23.5-17.27c.044.286.242.44.594.7a30.221,30.221,0,0,1,2.354,1.914c.55.506.792.682,1.122.682a1.044,1.044,0,0,0,.968-.99c0-.286-.066-.528-.88-1.21-.682-.572-2.662-2.178-3.212-2.178A1,1,0,0,0,23.5-17.27ZM33.154-.308c-3.784,0-5.236-1.54-5.456-3.74v-4c0-1.65-.484-2.068-2.068-2.068H23.848c-.374,0-.924.088-.924.88a.77.77,0,0,0,.88.858h1.408a.659.659,0,0,1,.7.77V-2.75A17.287,17.287,0,0,1,23.628-.4c-.572.484-.748.682-.748,1.078a1.011,1.011,0,0,0,.946,1.012c.44,0,.7-.242,1.452-1.056a18.781,18.781,0,0,0,1.738-2.112A4.649,4.649,0,0,0,28.622.308,8.208,8.208,0,0,0,33.176,1.43h9.35A.833.833,0,0,0,43.45.484a.768.768,0,0,0-.88-.792Zm1.782-15.884c.7,0,.726.484.726.836,0,1.562-1.21,5.148-2.948,7.788a15.588,15.588,0,0,1-3.322,3.7.817.817,0,0,0-.352.66,1.129,1.129,0,0,0,1.012,1.078c.638,0,1.738-1.21,2.332-1.892a21.266,21.266,0,0,0,4.158-7.722,19.275,19.275,0,0,0,2.684,6.512C39.93-4.18,41.4-2.09,42.262-2.09a1.147,1.147,0,0,0,1.012-1.034c0-.352-.044-.4-1.32-1.76A18.566,18.566,0,0,1,37.51-15.07c-.132-2.178-.2-2.882-2.156-2.882H31.548a.821.821,0,0,0-.946.88.821.821,0,0,0,.946.88Zm9.878,7.524a8.784,8.784,0,0,0,9,9.02,8.784,8.784,0,0,0,9-9.02,8.784,8.784,0,0,0-9-9.02A8.771,8.771,0,0,0,44.814-8.668Zm2.134,0a6.868,6.868,0,0,1,6.864-7.084,6.868,6.868,0,0,1,6.864,7.084,6.868,6.868,0,0,1-6.864,7.084A6.868,6.868,0,0,1,46.948-8.668ZM68.024-9.812v-6.864a.92.92,0,0,0-1.056-1.012.943.943,0,0,0-1.056,1.012V-.66c0,.726.44,1.012,1.078,1.012A.911.911,0,0,0,68.024-.66V-9.13L75.7-.352c.352.4.616.7,1.034.7A1.138,1.138,0,0,0,77.88-.66c0-.286-.154-.484-.528-.9l-7.128-7.9,6.556-6.556a1.2,1.2,0,0,0,.374-.7,1.08,1.08,0,0,0-1.1-.968c-.33,0-.4.044-1.012.682Z" transform="translate(36.808 62.524)" fill="#585048"/></svg>