<svg xmlns="http://www.w3.org/2000/svg" width="152.48" height="73.171" viewBox="0 0 152.48 73.171"><path d="M150,294.808V271.482a13.3,13.3,0,0,1,13.259-13.259H289.221a13.3,13.3,0,0,1,13.259,13.259v23.326" transform="translate(-150 -258.223)" fill="#585048"/><path d="M302.48,291.334V314.66a13.3,13.3,0,0,1-13.259,13.259H163.259A13.3,13.3,0,0,1,150,314.66V291.334" transform="translate(-150 -254.748)" fill="#fff"/><path d="M8.631-9.135a39.614,39.614,0,0,1,6.783,3.843c1.092.8,1.218.882,1.575.882a1.055,1.055,0,0,0,.966-1.071c0-.462-.315-.693-1.323-1.365a45.953,45.953,0,0,0-8-4.347v-5.166c0-.294-.021-.945-.987-.945s-.966.672-.966.945V.441c0,.336.042.924.987.924s.966-.63.966-.924Zm22.6-1.974a46.312,46.312,0,0,0,5.313-3.885c.525-.462.756-.693.756-1.05a1.01,1.01,0,0,0-.987-.966c-.273,0-.4.1-1.428.987a44.146,44.146,0,0,1-12.306,7.1c-1.428.546-1.6.609-1.6,1.155a1,1,0,0,0,.9,1.029A33.139,33.139,0,0,0,29.3-9.954V.315c0,.294,0,.945.966.945.924,0,.966-.63.966-.945Zm12.117-4.83c0-.252-.021-.945-.987-.945a.847.847,0,0,0-.966.945V-1.554A1.718,1.718,0,0,0,43.2.42c1.449,0,5.9-1.407,9.786-4.662C54.348-5.4,56.553-7.6,56.553-8.3a1.033,1.033,0,0,0-1.029-.945c-.315,0-.336.021-1.26,1.092C49.476-2.625,44.1-1.575,43.827-1.575c-.483,0-.483-.378-.483-.84Z" transform="translate(45.78 24.928)" fill="#fff"/><path d="M9.35-10.868c.022-.11.066-.858.33-2.486a61.885,61.885,0,0,0,8.008-.9c.616-.132,1.078-.264,1.078-.946a.834.834,0,0,0-.836-.9,11.084,11.084,0,0,0-1.716.264c-.7.11-3.08.506-6.182.7.066-.374.572-2.09.572-2.486,0-.55-.528-.748-.968-.748-.572,0-.9,0-1.452,3.3-.88.022-1.716.022-2.574,0-.264,0-1.782-.066-2-.066a.844.844,0,0,0-.946.9c0,.924.682.946,1.342.968,1.232.022,2.684.022,3.916-.022-.132.88-.264,2.024-.308,2.9-3.036,1.1-5.984,3.652-5.984,6.952A3.45,3.45,0,0,0,5.236.33c2.442,0,4.554-1.76,5.61-2.838a19.069,19.069,0,0,0,4.246-6.754,4.008,4.008,0,0,1,3.3,4.048c0,3.63-3.7,4.29-4.73,4.488-.66.11-.99.176-.99.814a.894.894,0,0,0,.924.968c.44,0,6.71-.7,6.71-6.182,0-3.1-2.134-6.138-7.744-6.138A13.423,13.423,0,0,0,9.35-10.868ZM9.262-9.174a12.584,12.584,0,0,1,3.278-.44,5.437,5.437,0,0,1,.836.044,16.25,16.25,0,0,1-3.74,5.83A22.673,22.673,0,0,1,9.262-9.174Zm-1.738.638a24.245,24.245,0,0,0,.594,6.05A4.838,4.838,0,0,1,5.28-1.452,1.824,1.824,0,0,1,3.41-3.476C3.41-5.06,4.488-7.128,7.524-8.536ZM26.114-7.15c-.044-.4-.2-2.376-.2-2.838a32.468,32.468,0,0,1,.4-5.148c.044-.242.308-1.452.308-1.716,0-.572-.462-.77-.968-.77a.916.916,0,0,0-.968.858,32.426,32.426,0,0,0-.616,6.05,30.365,30.365,0,0,0,.7,6.226c.132.572.33,1.012.946,1.012.748,0,.858-.4,1.1-1.122a35.7,35.7,0,0,1,1.606-3.96,8.032,8.032,0,0,0,.682-1.628c0-.44-.484-.66-.836-.66a.755.755,0,0,0-.66.4A28.685,28.685,0,0,0,26.114-7.15ZM36.85-17.732c-1.1,0-1.1.682-1.1.924,0,.022.132,1.606.154,1.782.11,1.386.176,3.278.176,4.312,0,3.388-.308,7.194-4.642,9.724C30.184-.264,30.03-.176,30.03.286A1.057,1.057,0,0,0,31,1.342,5.411,5.411,0,0,0,32.956.418c3.63-2.376,5.126-5.324,5.126-10.8,0-1.716-.154-4.466-.308-6.094C37.708-17.05,37.642-17.732,36.85-17.732ZM52.206-13.09c2.178-.022,4.62-.066,6.556-.154a.824.824,0,0,0,.946-.9.836.836,0,0,0-.968-.88c-.2,0-2.288.066-2.706.088-.77.022-1.958.044-3.828.088l-.022-2.376c0-.66-.352-.924-.968-.924a.81.81,0,0,0-.924.9v2.4c-1.76.022-2.6.044-3.322.022-.506,0-2.926-.088-3.476-.088-.374,0-1.122,0-1.122.924,0,.836.638.88.99.9.11.022,1.54.066,6.952.022v2.706c-.858.022-5.126-.022-6.094-.022-.308,0-1.056,0-1.056.858,0,.88.572.924.968.946,1.034.044,3.762.022,6.2,0v3.036c-.264-.022-1.32-.132-1.98-.132C44.88-5.676,43.1-4.29,43.1-2.288c0,2.046,1.914,3.322,4.73,3.322,4.356,0,4.378-2.464,4.4-4.378a18.779,18.779,0,0,1,4.84,2.288,1.755,1.755,0,0,0,.924.4,1.022,1.022,0,0,0,.924-1.056c0-.4-.242-.7-.968-1.144a22.186,22.186,0,0,0-5.72-2.354v-3.41c1.628-.022,3.872-.066,5.61-.154.242-.022.924-.044.924-.88a.871.871,0,0,0-1.012-.924c-.858,0-4.686.176-5.544.2Zm-1.87,9.262c0,2.046,0,3.19-2.684,3.19-1.144,0-2.728-.374-2.728-1.628,0-.638.484-1.738,3.5-1.738A12.875,12.875,0,0,1,50.336-3.828ZM75.7-13.53l2.222-.066h2.838c.572,0,1.232,0,1.232-.946,0-.638-.374-.88-.968-.88-.088,0-2.75.11-3.058.11l-2.288.044-.022-2.2a.852.852,0,0,0-.946-.946.844.844,0,0,0-.946.968l.044,2.222-6.842.154H64.284c-.924,0-1.562,0-1.562.924,0,.946.77.946,1.056.946.484,0,2.838-.088,3.366-.11l6.71-.176.066,2.86a3.619,3.619,0,0,0-2.86-1.3,4.213,4.213,0,0,0-4.312,4.378,4.081,4.081,0,0,0,4.07,4.312,3.482,3.482,0,0,0,2.948-1.408c-.088.748-.352,2.706-3.586,4.158-1.232.55-1.364.616-1.364,1.1a1.027,1.027,0,0,0,.968,1.012,8.786,8.786,0,0,0,4.444-2.794,7.686,7.686,0,0,0,1.54-5.016ZM73.766-7.656A2.689,2.689,0,0,1,71.1-4.884,2.456,2.456,0,0,1,68.6-7.546a2.522,2.522,0,0,1,2.552-2.728A2.563,2.563,0,0,1,73.766-7.656Z" transform="translate(34.399 62.524)" fill="#585048"/></svg>