<svg xmlns="http://www.w3.org/2000/svg" width="152.48" height="73.171" viewBox="0 0 152.48 73.171"><g transform="translate(-562 -612)"><path d="M0,36.585V13.259A13.3,13.3,0,0,1,13.259,0H139.221A13.3,13.3,0,0,1,152.48,13.259V36.585" transform="translate(562 612)" fill="#585048"/><path d="M152.48,33.111V56.437A13.3,13.3,0,0,1,139.221,69.7H13.259A13.3,13.3,0,0,1,0,56.437V33.111" transform="translate(562 615.474)" fill="#fff"/><path d="M4-10.472c0-.42-.21-.588-.644-.588-.574,0-.63.336-.63.588v6.3c0,.182.014.6.644.6S4-4,4-4.172Zm5.964,3.85c0,1.736-.112,4.494-3.6,5.852C5.5-.434,5.4-.392,5.4-.056a.655.655,0,0,0,.6.7A7.506,7.506,0,0,0,8.946-.77c2.086-1.624,2.3-3.766,2.3-5.978V-10.7c0-.392-.168-.6-.644-.6-.6,0-.63.378-.63.6Zm8.806-3.85c-.812,0-1.232,0-1.61.616A10.356,10.356,0,0,1,14.742-6.79c-.56.5-.63.56-.63.8a.684.684,0,0,0,.658.644,1.021,1.021,0,0,0,.616-.322,13.46,13.46,0,0,0,2.52-2.954c.392-.616.42-.672.84-.672h4.172c.252,0,.546,0,.546.35A11.11,11.11,0,0,1,17.15-.756c-.938.434-1.008.476-1.008.812a.645.645,0,0,0,.588.658,9.913,9.913,0,0,0,4.354-2.59,13.176,13.176,0,0,0,3.794-7.518c0-1.078-.994-1.078-1.344-1.078Zm10.08-.308a.542.542,0,0,0-.616.616.54.54,0,0,0,.616.6h7.6a.544.544,0,0,0,.616-.616.54.54,0,0,0-.616-.6ZM27.664-7.7a.54.54,0,0,0-.616.6.54.54,0,0,0,.616.6h8.372c.224,0,.63,0,.63.35a5.529,5.529,0,0,1-.91,2.044A9.136,9.136,0,0,1,30.772-.63c-.476.154-.742.238-.742.63a.652.652,0,0,0,.616.644A11.045,11.045,0,0,0,35.6-1.96a8.47,8.47,0,0,0,2.506-4.62c0-1.12-.952-1.12-1.5-1.12Zm19.348.294A30.875,30.875,0,0,0,50.554-10c.35-.308.5-.462.5-.7a.673.673,0,0,0-.658-.644c-.182,0-.266.07-.952.658a29.431,29.431,0,0,1-8.2,4.732c-.952.364-1.064.406-1.064.77a.665.665,0,0,0,.6.686,22.092,22.092,0,0,0,4.942-2.142V.21c0,.2,0,.63.644.63.616,0,.644-.42.644-.63Zm7-2.506c-.35,0-.644.126-.644.63a.562.562,0,0,0,.644.616h8.75c.35,0,.644-.126.644-.63a.562.562,0,0,0-.644-.616ZM52.864-2.044a.565.565,0,0,0-.644.63.567.567,0,0,0,.644.616H63.84a.55.55,0,0,0,.63-.63.553.553,0,0,0-.63-.616Zm23.968-5.7a.629.629,0,0,0-.532.364,16.3,16.3,0,0,1-2.1,2.534A14.923,14.923,0,0,1,67.606-1.05c-.9.224-1.12.28-1.12.728a.721.721,0,0,0,.686.756A14.665,14.665,0,0,0,72.94-2.1c2.856-1.988,4.592-4.592,4.592-5A.721.721,0,0,0,76.832-7.742Zm-9.646-2.674a.681.681,0,0,0-.686.658c0,.28.2.406.406.5a19.252,19.252,0,0,1,2.94,1.372,1.5,1.5,0,0,0,.658.266.7.7,0,0,0,.616-.714c0-.28,0-.49-1.876-1.344A9.694,9.694,0,0,0,67.186-10.416ZM87.4-9.226c.252,0,.546,0,.546.364a9.518,9.518,0,0,1-.868,2.87A11.045,11.045,0,0,1,81.746-.77c-.882.434-.98.476-.98.826a.672.672,0,0,0,.644.672,10.506,10.506,0,0,0,4.746-3.094,12.118,12.118,0,0,0,3.024-6.16,1.929,1.929,0,0,0-.588-1.288A1.447,1.447,0,0,0,87.22-10.4H83.762c-.882,0-1.232,0-1.638.686a10.493,10.493,0,0,1-2.3,2.94c-.588.518-.658.574-.658.812a.683.683,0,0,0,.644.658c.56,0,2.184-1.792,3.08-3.248.378-.6.42-.672.84-.672Zm3.416-3.206a.542.542,0,0,0-.126-.014.554.554,0,0,0-.588.532c0,.042,0,.14.154.35a7.744,7.744,0,0,1,.924,1.526c.238.518.294.63.6.63a.568.568,0,0,0,.546-.56A5.81,5.81,0,0,0,90.818-12.432Zm-1.862.588a.569.569,0,0,0-.7.546c0,.042.014.14.168.336a8.2,8.2,0,0,1,.966,1.5c.252.5.308.616.6.616a.583.583,0,0,0,.56-.574A5.907,5.907,0,0,0,88.956-11.844ZM99.974-9.38a20.246,20.246,0,0,0,2.254-.7c.378-.14.644-.252.644-.588a.634.634,0,0,0-.6-.644c-.154,0-1.554.5-1.848.588a30.453,30.453,0,0,1-4.942.966c-1.218.14-1.414.168-1.414.658a.588.588,0,0,0,.616.63,32.11,32.11,0,0,0,4.046-.616v2.408H93.492a.535.535,0,0,0-.616.6.535.535,0,0,0,.616.6h5.222A5.36,5.36,0,0,1,95.76-.77C95.074-.364,95-.322,95-.014a.661.661,0,0,0,.63.658A6.156,6.156,0,0,0,98.2-1.036,6.458,6.458,0,0,0,99.96-5.474h4.4a.538.538,0,0,0,.616-.6.54.54,0,0,0-.616-.6H99.974Zm12.334,8.344V-6.468h3.01c.322,0,.588-.112.588-.56a.505.505,0,0,0-.588-.532h-7.154c-.322,0-.588.112-.588.546a.509.509,0,0,0,.588.546h3.01v5.432h-3.78c-.308,0-.574.112-.574.56a.5.5,0,0,0,.574.546h8.694a.5.5,0,0,0,.574-.56.5.5,0,0,0-.574-.546Zm6.678-9.24c-.224,0-.63.014-.63.644a.549.549,0,0,0,.63.6h9.17c.1,0,.224,0,.224.1a11.339,11.339,0,0,1-1.988,2.618c-.616.644-.686.714-.686.924a.677.677,0,0,0,.63.644c.434,0,1.358-1.106,1.89-1.764C128.7-7.084,130.2-9.016,130.2-9.6c0-.1,0-.672-.938-.672ZM120.358.686a5.825,5.825,0,0,0,2.758-2.072,9.366,9.366,0,0,0,1.512-5.1c0-.532-.2-.742-.686-.742s-.574.294-.6.49c-.014.1-.028.6-.028.714a6.1,6.1,0,0,1-3.08,5.4c-.378.238-.546.336-.546.63A.7.7,0,0,0,120.358.686Z" transform="translate(571.971 638.663)" fill="#fff"/><path d="M3.344-8.976c.814-6.6,5.5-6.754,6.05-6.776.638-.022,1.254-.044,1.254-.968A.97.97,0,0,0,9.5-17.688c-5.016,0-8.382,4.642-8.382,10.318C1.122-1.628,4.51.352,7.48.352a5.766,5.766,0,0,0,5.94-5.94A5.465,5.465,0,0,0,7.744-11.22,4.812,4.812,0,0,0,3.344-8.976ZM11.308-5.5a3.7,3.7,0,0,1-3.85,3.916A3.951,3.951,0,0,1,3.41-5.632,3.886,3.886,0,0,1,7.546-9.35,3.57,3.57,0,0,1,11.308-5.5ZM34.364-9.174a.778.778,0,0,0,.9-.858c0-.726-.418-.88-.9-.88H27.742v-2.332c0-.374-.044-.924-.9-.924-.682,0-.946.264-.946.924v2.332h-6.05a.778.778,0,0,0-.9.836c0,.616.242.9.9.9h5.544a19.089,19.089,0,0,1-6.732,7.436.894.894,0,0,0-.484.77,1.055,1.055,0,0,0,.99,1.034c.726,0,2.706-1.914,3.52-2.75A19.137,19.137,0,0,0,25.894-7V1.012a.807.807,0,0,0,.88.924c.7,0,.968-.264.968-.924V-6.974a20.713,20.713,0,0,0,4.136,5.258c.572.528,1.848,1.65,2.4,1.65a1.066,1.066,0,0,0,.99-1.012.884.884,0,0,0-.4-.726,20.038,20.038,0,0,1-4.884-4.532A17.15,17.15,0,0,1,28.2-9.174ZM24.332-16.456H19.294c-2.068,0-2.86.7-2.86,2.838V-8.03c0,.44-.044,1.408-.11,2.288A18.226,18.226,0,0,1,14.784.022a2.554,2.554,0,0,0-.11.528,1.05,1.05,0,0,0,1.056.99c.55,0,.88-.352,1.5-2.42a25.233,25.233,0,0,0,1.056-7.172V-13.42a1.149,1.149,0,0,1,1.3-1.3H34.386c.572,0,.924-.2.924-.9a.787.787,0,0,0-.924-.836H26.224v-1.32c0-.7-.374-.9-.946-.9-.88,0-.946.506-.946.9Z" transform="translate(620.083 674.514)" fill="#585048"/></g></svg>