<svg xmlns="http://www.w3.org/2000/svg" xmlns:xlink="http://www.w3.org/1999/xlink" width="1031.017" height="938.546" viewBox="0 0 1031.017 938.546"><defs><clipPath id="a"><rect width="357.366" height="407.906" fill="none"/></clipPath><clipPath id="b"><rect width="342.96" height="365.32" fill="none"/></clipPath><clipPath id="c"><rect width="411.412" height="397.27" fill="none"/></clipPath><clipPath id="e"><rect width="374.101" height="408.616" fill="none"/></clipPath><clipPath id="f"><rect width="408.618" height="374.101" fill="none"/></clipPath></defs><g transform="translate(26.595 -1577.44)"><path d="M435.3,281A135.177,135.177,0,1,1,300.126,145.823,135.176,135.176,0,0,1,435.3,281" transform="translate(189.607 1768.573)" fill="#c04890"/><g transform="translate(476.033 1577.44)" style="mix-blend-mode:darken;isolation:isolate"><g transform="translate(0)"><g clip-path="url(#a)"><path d="M372.177,407.906c-70.713,0-125.222-34.725-145.813-92.889-7.159-20.743-9.689-43.467-8.6-76.385L223.521,80.45c.668-15.7,1.245-29.254,7.244-42.931C235.715,26.238,251.553,0,291.614,0,364.9,0,574.887,126.736,574.887,223.294c0,26.857-22.127,66.089-28.909,77.474-15.276,26.194-62.5,107.139-173.8,107.139" transform="translate(-217.521)" fill="#f07800"/></g></g></g><g transform="translate(169.616 2119.022)" style="mix-blend-mode:darken;isolation:isolate"><g transform="translate(0 0)"><g clip-path="url(#b)"><path d="M234.389,599.7c-26.134,0-121.5-19.59-140.392-83.854-9.342-31.765-9.083-89.982-9.083-96.5,0-32.951,3.646-88.577,11.424-113.812l-.023-.009c17.31-67.025,162.841-71.145,186.7-71.145,81.984,0,144.863,99.317,144.863,181.417,0,128.011-132.131,183.9-193.486,183.9" transform="translate(-84.915 -234.378)" fill="#f07800"/></g></g></g><g transform="translate(593.01 1875.292)" style="mix-blend-mode:darken;isolation:isolate"><g transform="translate(0 0)"><g clip-path="url(#c)"><path d="M679.246,387.339c0,80.443-47.938,138.83-113.985,138.83-52.7,0-265.414-135.182-278.03-147.787-8.707-8.7-19.087-24.175-19.087-48.539,0-32.419,47.92-142.336,104.78-170.628,20.591-10.246,161.447-30.843,205.113-30.305,112.407,1.384,101.209,216.313,101.209,258.428" transform="translate(-268.144 -128.899)" fill="#a8d800"/></g></g></g><g transform="translate(-26.595 1830.952)" style="mix-blend-mode:darken;isolation:isolate"><g transform="translate(0 0)"><g clip-path="url(#c)"><path d="M.309,248.541c0-80.443,47.938-138.83,113.985-138.83,52.7,0,265.414,135.184,278.03,147.789,8.707,8.693,19.087,24.172,19.087,48.537,0,32.419-47.92,142.336-104.78,170.628-20.593,10.248-161.448,30.844-205.113,30.305C-10.888,505.585.309,290.656.309,248.541" transform="translate(0 -109.711)" fill="#a8d800"/></g></g></g><g transform="translate(485.268 2107.371)" style="mix-blend-mode:darken;isolation:isolate"><g transform="translate(0 0)"><g clip-path="url(#e)"><path d="M351.382,637.952c-115.259,0-133.816-198.858-129.245-232.169,5.028-36.632,44.537-176.446,126.764-176.446,9.363,0,15.854,1.775,48.742,11.191,6.736,1.932,15.967,4.573,18.3,5.134,21.041,5.261,48.758,10.391,68.014,12.226,77.444,7.385,111.663,142.731,111.663,191.905,0,64.663-34.487,118.84-97.106,152.549-41.427,22.3-96.431,35.61-147.13,35.61" transform="translate(-221.517 -229.336)" fill="#00a8c0"/></g></g></g><g transform="translate(118.145 1608.258)" style="mix-blend-mode:darken;isolation:isolate"><g transform="translate(0 0)"><g clip-path="url(#f)"><path d="M62.638,143.2C62.638,27.943,261.5,9.386,294.807,13.956c36.632,5.028,176.446,44.537,176.446,126.764,0,9.363-1.775,15.854-11.191,48.742-1.932,6.736-4.573,15.967-5.134,18.3-5.262,21.041-10.391,48.758-12.226,68.014C435.317,353.218,299.972,387.438,250.8,387.438c-64.663,0-118.84-34.487-152.549-97.106-22.3-41.427-35.61-96.431-35.61-147.13" transform="translate(-62.638 -13.337)" fill="#00a8c0"/></g></g></g><rect width="1031.017" height="938.546" transform="translate(-26.595 1577.44)" fill="none"/><path d="M-13.815-33.3A53.074,53.074,0,0,0-5.13-34.6a1.3,1.3,0,0,0,1.125-1.44A1.425,1.425,0,0,0-5.4-37.62c-.315,0-4.32.81-5.13.945A149.743,149.743,0,0,1-25.47-35.6c-1.035,0-1.8.09-1.8,1.4,0,1.53,1.08,1.53,2.43,1.53,1.935,0,5.04-.18,7.56-.36v2.88H-27.405c-1.035,0-1.71.45-1.71,1.53,0,1.26.945,1.485,1.71,1.485H-17.28v2.655h-5.67c-3.33,0-4.185.99-4.185,4.23v6.03c0,3.33.9,4.23,4.185,4.23h5.67v3.105h-9.45c-1.08,0-1.62.45-1.62,1.485,0,.99.585,1.44,1.575,1.44h9.5V-.315H-27.5c-.81,0-1.71.315-1.71,1.485,0,1.35,1.215,1.44,1.71,1.44h24.03c.945,0,1.71-.36,1.71-1.44,0-1.26-.99-1.485-1.71-1.485h-10.35V-3.96H-4.41c1.17,0,1.62-.54,1.62-1.485,0-1.035-.63-1.44-1.62-1.44h-9.405V-9.99h5.76c3.375,0,4.23-.99,4.23-4.23v-6.03c0-3.285-.945-4.23-4.23-4.23h-5.76v-2.655H-3.69c.99,0,1.665-.4,1.665-1.485,0-1.305-.945-1.53-1.665-1.53H-13.815ZM-23.85-20.745c0-.765.4-1.08,1.125-1.08h5.445v3.33h-6.57Zm1.125,8.145a.982.982,0,0,1-1.125-1.125V-16.11h6.57v3.51Zm8.91-5.9v-3.33H-8.28c.72,0,1.125.315,1.125,1.08v2.25Zm6.66,4.77A.981.981,0,0,1-8.28-12.6h-5.535v-3.51h6.66ZM-33.12-11.25v9.5c0,1.575-.72,1.575-2.385,1.575-2.115,0-2.79.225-2.79,1.62,0,1.89,1.35,2.025,3.2,2.025,4.32,0,5.13-1.08,5.13-4.23v-31.77c0-3.285-.9-4.23-4.23-4.23h-3.555c-3.33,0-4.185.99-4.185,4.23v17.82A49.385,49.385,0,0,1-43.02-3.33c-.135.72-1.35,4-1.35,4.815a1.878,1.878,0,0,0,1.98,1.8c1.08,0,1.305-.585,2.025-2.925a47.049,47.049,0,0,0,1.71-11.61Zm-5.49-20.925c0-.765.315-1.125,1.08-1.125h3.33c.765,0,1.08.4,1.08,1.125v6.7h-5.49Zm5.49,17.685h-5.49v-7.74h5.49Zm72.9-11.2c0-2.925-.99-3.78-3.87-3.78H19.44c-2.925,0-3.87.945-3.87,3.78v4.14c0,2.925.99,3.825,3.87,3.825H35.91c2.88,0,3.87-.945,3.87-3.825Zm-20.565.81v-1.08A1,1,0,0,1,20.34-27.09H35.055a.982.982,0,0,1,1.125,1.125v1.08Zm16.965,3.69a.983.983,0,0,1-1.125,1.125H20.34a.982.982,0,0,1-1.125-1.125V-22.68H36.18ZM30.78-8.37A23.441,23.441,0,0,1,23.265-.675C20.43.99,20.115,1.17,20.115,1.89a1.861,1.861,0,0,0,1.71,1.845c1.62,0,8.91-5.13,12.555-12.1h2.115a1.246,1.246,0,0,1,1.4,1.3,25.832,25.832,0,0,1-.72,5c-.5,1.89-1.305,2.16-2.34,2.2-.315.045-2.835,0-3.375,0-.945,0-2.07,0-2.07,1.485a1.677,1.677,0,0,0,1.89,1.755c.54.045,2.2.045,3.285.045,2.115,0,4.23-.09,5.355-2.925a29.571,29.571,0,0,0,1.44-8.055c0-3.2-1.935-3.51-4-3.51H21.375A24.508,24.508,0,0,0,23-13.1h18.99c.765,0,1.665-.27,1.665-1.44,0-1.395-1.4-1.395-1.71-1.395H13.68A1.338,1.338,0,0,0,12.2-14.49,1.366,1.366,0,0,0,13.68-13.1h5.625c-.36.315-1.89,2.025-2.25,2.34A24.562,24.562,0,0,1,12.87-7.92c-2.07.99-2.2,1.08-2.2,1.89A1.5,1.5,0,0,0,12.06-4.455c.63,0,3.2-1.08,6.57-3.915h4.005c-.585.63-1.35,1.53-1.71,1.89a22.145,22.145,0,0,1-5.94,4.05C12.375-1.26,12.2-1.17,12.2-.36A1.869,1.869,0,0,0,13.86,1.53,11.82,11.82,0,0,0,17.28,0,29.252,29.252,0,0,0,26.6-8.37ZM8.145-19.125c0,.63,0,.945-.045,2.34A42.633,42.633,0,0,1,3.555-14.22c-1.98.99-2.3,1.17-2.3,2.205,0,.9.5,2.025,1.53,2.025.72,0,1.575-.495,5.04-2.835A26.846,26.846,0,0,1,3.015.225a1.965,1.965,0,0,0-.495,1.26C2.52,2.7,3.87,3.33,4.635,3.33S6.03,2.88,7.47.4c4.185-7.29,4.23-15.57,4.23-19.665V-29.61c0-1.35.585-2.025,1.98-2.025H41.67c.54,0,1.845,0,1.845-1.575s-1.35-1.575-1.845-1.575H26.82v-1.89c0-.9-.4-1.53-1.935-1.53-1.89,0-1.935,1.035-1.935,1.53v1.89H12.915c-3.375,0-4.77,1.17-4.77,4.77Zm-4.5-11.61c-.54,0-1.71.45-1.71,1.53a2.541,2.541,0,0,0,.315,1.17c.675,1.575,1.485,3.465,1.665,4.005.63,1.8.765,2.295,1.89,2.295A1.639,1.639,0,0,0,7.56-23.31a17.2,17.2,0,0,0-1.35-3.96C4.86-30.33,4.725-30.735,3.645-30.735Zm-75.33,62.55,16.02-1.035c.63-.045.9-.045.9.27,0,.4-1.935,3.375-4.9,6.57-2.115,2.2-2.16,2.295-2.16,2.97a1.98,1.98,0,0,0,2.025,1.8c1.17,0,2.61-1.71,3.87-3.15,2.295-2.7,6.57-8.1,6.57-10.125,0-2.475-2.52-2.3-4.275-2.205l-18.045,1.08V18.81c0-.765-.09-1.98-2.025-1.98-1.98,0-2.025,1.35-2.025,1.98v9.4L-85,28.8c-.99.045-1.98.36-1.98,1.89a1.82,1.82,0,0,0,2.205,1.98l9.045-.585V47.07c0,7.425,4.545,8.1,12.42,8.1,1.125,0,5.76-.045,10.8-.27,1.215-.045,2.61-.27,2.61-2.16a1.766,1.766,0,0,0-1.98-1.935c-.405,0-2.34.135-2.79.18-2.925.135-5.805.225-8.73.225-6.885,0-8.28-.36-8.28-4.77Zm65.925-2.7a2.023,2.023,0,0,0-1.71,1.17,52.375,52.375,0,0,1-6.75,8.145,47.968,47.968,0,0,1-21.2,12.195c-2.88.72-3.6.9-3.6,2.34a2.317,2.317,0,0,0,2.2,2.43c.99,0,9.54-1.845,18.54-8.145C-9.09,40.86-3.51,32.49-3.51,31.185A2.317,2.317,0,0,0-5.76,29.115Zm-31-8.6a2.187,2.187,0,0,0-2.205,2.115c0,.9.63,1.305,1.305,1.62,7.245,3.105,7.335,3.15,9.45,4.41a4.82,4.82,0,0,0,2.115.855,2.235,2.235,0,0,0,1.98-2.3c0-.9,0-1.575-6.03-4.32C-32.76,21.735-35.91,20.52-36.765,20.52Zm56.7-.18c-3.87,0-4.14.225-5.895,3.24a35.171,35.171,0,0,1-8.1,9.765c-1.125.945-1.62,1.35-1.62,2.2a2.224,2.224,0,0,0,2.07,2.07c1.3,0,4.455-3.2,5.94-4.905a110.886,110.886,0,0,1,14.31,9.09,36.7,36.7,0,0,1-14.49,10.08c-1.665.63-2.7,1.035-2.7,2.25a2.1,2.1,0,0,0,1.935,2.115c1.125,0,9-2.79,15.435-8.865A40.028,40.028,0,0,0,38.7,23.76c0-3.42-3.15-3.42-4.32-3.42Zm12.42,3.78c.855,0,1.89,0,1.89,1.215a21.573,21.573,0,0,1-1.08,4.77,35.445,35.445,0,0,1-4.14,8.46,115.182,115.182,0,0,0-14.31-8.73c.54-.765,2.835-4.32,3.33-4.95a1.919,1.919,0,0,1,1.8-.765Zm17.82,10.71a1.779,1.779,0,0,0-2.07,1.98,1.78,1.78,0,0,0,2.07,1.935h34.65a1.767,1.767,0,0,0,2.07-1.89,1.779,1.779,0,0,0-2.07-2.025Z" transform="translate(486.903 2037.77)" fill="#fff"/><path d="M-77.895-32.175a24.427,24.427,0,0,0,.9-4.59c0-1.53-1.755-1.53-1.935-1.53a1.525,1.525,0,0,0-1.4.675c-.315.5-1.08,4.635-1.305,5.49-1.53,6.075-5,10.485-6.84,12.87-.63.765-.72,1.125-.72,1.485a2.007,2.007,0,0,0,1.98,1.845,1.577,1.577,0,0,0,1.17-.5A31.051,31.051,0,0,0-83.385-19.8a56.494,56.494,0,0,1,8.28,8.64A34.3,34.3,0,0,1-86.625-.09,2.062,2.062,0,0,0-87.93,1.755,2.221,2.221,0,0,0-85.9,3.825,3.049,3.049,0,0,0-84.15,3.15,41.811,41.811,0,0,0-74.34-5.8c8.01-9.945,8.73-22.545,8.73-22.725,0-3.33-2.25-3.645-4.5-3.645Zm6.39,3.42c1.485,0,2.205.225,2.205,1.44a37.744,37.744,0,0,1-3.825,12.69,77.616,77.616,0,0,0-8.415-8.28,38.853,38.853,0,0,0,2.565-5.85Zm16.515,16.83c1.215.855,5.13,3.51,6.345,3.51,1.125,0,1.89-1.305,1.89-2.34,0-.945-.54-1.305-1.4-1.71a34.371,34.371,0,0,1-6.84-4.185V-36.27c0-1.53-.72-1.89-2.07-1.89-1.665,0-1.755,1.215-1.755,1.89v16.11A29.142,29.142,0,0,1-62.1-24.345c-.585-.855-.9-1.215-1.575-1.215a1.951,1.951,0,0,0-1.89,1.8c0,1.26,3.06,5.49,6.75,8.73V2.025c0,1.485.675,1.89,2.025,1.89a1.635,1.635,0,0,0,1.8-1.89ZM-25.515-33.3H-40.9a1.621,1.621,0,0,0-1.89,1.755,1.609,1.609,0,0,0,1.89,1.71h15.39V-18.36H-42.7a1.63,1.63,0,0,0-1.89,1.755A1.621,1.621,0,0,0-42.7-14.85H-27.81C-32.175-9.135-39.15-4.635-43.11-2.61c-.81.4-1.4.765-1.4,1.62,0,.9.72,2.43,1.98,2.43,2.025,0,11.925-6.84,17.01-13.95V2.07c0,1.35.54,1.89,1.98,1.89A1.641,1.641,0,0,0-21.69,2.07V-12.645a41.74,41.74,0,0,0,9.9,9.9c1.71,1.215,5.94,4.14,7.335,4.14A2.317,2.317,0,0,0-2.43-.99,1.712,1.712,0,0,0-3.645-2.61c-7.11-3.6-10.665-6.21-15.795-12.24H-4.32c.855,0,1.845-.18,1.845-1.755A1.592,1.592,0,0,0-4.32-18.36H-21.69V-29.835H-6.03c.945,0,1.845-.225,1.845-1.755,0-1.62-1.125-1.71-1.845-1.71H-21.69v-2.88c0-1.44-.765-1.89-2.025-1.89a1.65,1.65,0,0,0-1.8,1.89ZM-36.09-28.71c-.9,0-2.115.675-2.115,1.62a3.367,3.367,0,0,0,.45,1.44c.585,1.17,1.215,2.52,1.62,3.6C-35.28-19.89-35.1-19.4-34.11-19.4c.945,0,2.16-.585,2.16-1.755a17.764,17.764,0,0,0-1.845-4.95C-34.695-27.99-35.1-28.71-36.09-28.71Zm25.065.045c-.9,0-1.3.945-1.4,1.215-.54,1.44-1.26,3.15-1.8,4.23-.765,1.44-.99,1.89-.99,2.25a1.933,1.933,0,0,0,2.025,1.665c.765,0,1.215-.36,2.25-2.25.36-.675,2.205-4.23,2.205-5.445C-8.73-27.81-9.495-28.665-11.025-28.665Zm23,2.3c3.285-5.715,4.275-9.45,4.275-10.035,0-1.215-1.215-1.62-2.025-1.62-1.125,0-1.44.63-1.845,1.665C9.585-28.89,7.47-25.335,2.16-20.025a2.323,2.323,0,0,0-.945,1.8,2.133,2.133,0,0,0,1.935,2.2A2.185,2.185,0,0,0,4.545-16.6a28.641,28.641,0,0,0,3.51-3.915V2.025c0,1.26.495,1.89,2.07,1.89a1.656,1.656,0,0,0,1.845-1.89ZM25.7-18.18a59.97,59.97,0,0,0,12.87-5.58c3.465-2.115,3.69-2.655,3.69-3.555A2.087,2.087,0,0,0,40.32-29.3c-.54,0-.585.045-2.925,1.71A47.9,47.9,0,0,1,25.7-21.87V-36.135c0-1.17-.45-1.89-2.025-1.89a1.634,1.634,0,0,0-1.845,1.89V-1.62c0,2.2.4,3.96,2.61,4.59.72.225.9.27,8.01.27,1.125,0,5.76-.045,6.525-.135a3.44,3.44,0,0,0,2.7-1.485C42.8-.09,43.2-5.04,43.2-7.11a1.931,1.931,0,0,0-2.115-2.07,1.728,1.728,0,0,0-1.665.9,10.637,10.637,0,0,0-.27,2.655C38.88-.5,38.7-.5,34.605-.5h-6.93C26.6-.5,25.7-.9,25.7-2.52Zm31.05-12.51c1.215-.315,1.575-1.035,1.575-1.62,0-.765-1.035-2.52-1.575-3.42-.99-1.62-1.44-2.3-2.475-2.3-.945,0-2.07.63-2.07,1.575a2.549,2.549,0,0,0,.45,1.17c.18.27,1.17,1.89,1.35,2.25,1.08,1.935,1.17,2.16,1.71,2.34H53.1c-3.375,0-4.815,1.125-4.815,4.77v3.735c0,1.395.63,1.845,2.025,1.845,1.755,0,1.8-1.26,1.8-1.89v-3.33A1.685,1.685,0,0,1,54-27.5H81.945c1.305,0,1.89.63,1.89,1.935v3.33c0,1.215.45,1.845,2.025,1.845,1.8,0,1.8-1.26,1.8-1.845v-3.69c0-1.845-.18-4.77-4.365-4.77h-2.34c.855-1.305,2.88-4.59,2.88-5.67,0-1.26-1.395-1.71-2.115-1.71-1.035,0-1.215.4-2.25,2.52a44.671,44.671,0,0,1-2.61,4.86ZM70.2-12.1v-.945a61.008,61.008,0,0,0,6.39-3.51c2.43-1.575,3.96-2.7,3.96-4.5,0-2.25-1.98-2.25-3.51-2.25H55.8a1.564,1.564,0,0,0-1.755,1.665,1.489,1.489,0,0,0,1.71,1.665H73.71c.585,0,.9,0,.9.4,0,.54-4.14,3.015-6.48,4.005-1.305-.18-1.8.495-1.8,1.395v2.07h-17.5a1.618,1.618,0,0,0-1.89,1.71,1.624,1.624,0,0,0,1.89,1.71h17.5V-2.61c0,2.025-1.035,2.25-2.385,2.25-.135,0-4.545-.09-4.635-.09a1.591,1.591,0,0,0-1.845,1.8,2.33,2.33,0,0,0,.81,1.8c.4.27.945.27,2.475.27h4.59c3.69,0,4.86-1.35,4.86-4.86V-8.685H86.895c.63,0,1.89-.045,1.89-1.71a1.609,1.609,0,0,0-1.89-1.71ZM66.285-38.43c-.5,0-1.935.45-1.935,1.575,0,.4.135.675,1.35,2.925,1.485,2.7,1.53,2.88,2.52,2.88.54,0,2.07-.27,2.07-1.665,0-.9-.945-2.52-1.755-3.96C67.59-38.25,67.41-38.43,66.285-38.43Zm-95.355,76.9c2.565,1.665,2.88,1.665,3.24,1.665a1.878,1.878,0,0,0,1.755-1.935,1.349,1.349,0,0,0-.9-1.305c-.54-.27-3.06-1.575-3.645-1.89.81-.855,2.7-2.88,2.7-3.69a1.617,1.617,0,0,0-1.62-1.4,1.469,1.469,0,0,0-1.17.63,35.669,35.669,0,0,1-2.3,2.79,20.818,20.818,0,0,1-4.14-4.275h9.135c1.08,0,1.62-.405,1.62-1.53,0-1.44-1.08-1.44-1.62-1.44H-40.59a4.316,4.316,0,0,0,.315-1.26c0-.99-1.215-1.35-1.845-1.35a1.312,1.312,0,0,0-1.17.63c-.135.27-.675,1.665-.81,1.98h-9.765c-1.17,0-1.62.495-1.62,1.53,0,1.305,1.035,1.44,1.62,1.44h8.1a21.856,21.856,0,0,1-3.645,4.185c-1.08-1.125-2.385-2.385-2.565-2.565a1.731,1.731,0,0,0-1.17-.585,1.648,1.648,0,0,0-1.62,1.44c0,.5.315.765,3.06,3.555-.45.27-2.745,1.71-3.285,2.025a1.489,1.489,0,0,0-.855,1.305,1.731,1.731,0,0,0,1.575,1.8c.315,0,.63,0,2.43-1.17v4.77c0,2.475.765,3.96,3.96,3.96h5.535v4.95c0,.945-.27,1.35-.945,1.485-.45.09-2.475,0-2.97,0s-1.62,0-1.62,1.485a1.623,1.623,0,0,0,.9,1.575c.36.135.4.18,2.7.18,4,0,5.625,0,5.625-4.23V47.79h5.625c3.375,0,3.96-1.71,3.96-3.96Zm-19.305.045c0-.945.4-1.485,1.44-1.485h12.96A1.312,1.312,0,0,1-32.49,38.52v1.35H-48.375Zm2.115-4.005a31.957,31.957,0,0,0,4.185-5.445h3.51a20.871,20.871,0,0,0,4.41,5.445ZM-32.49,42.3v1.44a1.3,1.3,0,0,1-1.485,1.485h-12.96c-1.035,0-1.44-.54-1.44-1.485V42.3ZM-60.12,24.39V36.9a47.536,47.536,0,0,1-5.31,3.1,1.715,1.715,0,0,0-1.08,1.62c0,.72.36,2.07,1.53,2.07,1.08,0,3.33-1.8,4.725-2.925-.675,6.615-2.16,9-4.86,13.185A2.665,2.665,0,0,0-65.7,55.44a2,2,0,0,0,1.935,1.845c.72,0,1.215-.135,2.925-2.925,4.185-6.84,4.185-14.625,4.185-19.08V24.7A1.79,1.79,0,0,1-54.63,22.68h28.71c.675,0,1.8-.09,1.8-1.575s-1.305-1.53-1.8-1.53H-40.86V17.37c0-1.35-.855-1.665-1.935-1.665-1.53,0-1.8.945-1.8,1.665v2.205h-10.71C-58.68,19.575-60.12,20.745-60.12,24.39Zm-4.32-1.17a1.7,1.7,0,0,0-1.71,1.53,3.244,3.244,0,0,0,.315,1.215c.675,1.71.9,2.115,1.215,3.105,1.08,3.15,1.08,3.285,2.025,3.285.63,0,2.025-.36,2.025-1.665a34.5,34.5,0,0,0-1.935-5.4C-63.135,23.76-63.495,23.22-64.44,23.22Zm17.55,27.54a1.7,1.7,0,0,0-1.62-1.755c-.54,0-.585,0-2.52,1.4a28.7,28.7,0,0,1-4.275,2.475c-2.25,1.08-2.43,1.17-2.43,2.025a1.636,1.636,0,0,0,1.575,1.71c1.125,0,3.96-1.71,5.265-2.475C-49.635,53.37-46.89,51.705-46.89,50.76Zm12.195-.09c0,1.035,2.7,2.7,4.05,3.51,1.035.63,3.96,2.34,4.95,2.34a1.878,1.878,0,0,0,1.755-1.89,1.228,1.228,0,0,0-.9-1.215,38.825,38.825,0,0,1-6.3-3.465c-1.4-1.035-1.4-1.035-1.845-1.035A1.737,1.737,0,0,0-34.695,50.67ZM-.09,38.295c-1.485,4.1-1.98,5.13-6.435,14.265-.135,0-2.25.09-2.385.09a1.629,1.629,0,0,0-1.125,1.665,1.734,1.734,0,0,0,1.98,1.935c.585,0,15.615-.855,23.445-2.115.225.315,1.08,2.07,1.26,2.43a1.636,1.636,0,0,0,1.575,1.08A2.067,2.067,0,0,0,20.34,55.8c0-1.26-3.915-7.56-6.255-10.665-2.115-2.79-2.52-2.925-3.285-2.925A1.837,1.837,0,0,0,9,43.83a2.182,2.182,0,0,0,.54,1.35,69.215,69.215,0,0,1,4.14,5.985c-5.49.675-9.585.855-16.11,1.17a131.275,131.275,0,0,0,6.345-14.04H18.9c.765,0,1.89-.135,1.89-1.755,0-1.71-1.35-1.71-1.89-1.71H7.29V26.28H17.46c.675,0,1.845-.09,1.845-1.755A1.591,1.591,0,0,0,17.46,22.77H7.29V17.64c0-1.35-.54-1.89-1.935-1.89a1.62,1.62,0,0,0-1.8,1.89v5.13H-5.9c-.675,0-1.845.09-1.845,1.755A1.591,1.591,0,0,0-5.9,26.28h9.45v8.55H-7.74c-.585,0-1.89,0-1.89,1.71a1.621,1.621,0,0,0,1.89,1.755ZM-19.4,18.36c0,.855.135,1.125,1.035,1.62,1.53.855,3.06,1.845,4.545,2.88,1.845,1.26,1.89,1.305,2.43,1.305A2.141,2.141,0,0,0-9.54,22.05c0-.765-.18-1.035-3.06-2.925-1.215-.765-4-2.565-5-2.565A1.982,1.982,0,0,0-19.4,18.36Zm-1.62,11.52c-.135.99.4,1.305.99,1.665A49.253,49.253,0,0,1-15.84,34.38c1.35,1.08,1.755,1.4,2.34,1.4a2.174,2.174,0,0,0,1.935-2.115c0-.945-1.4-1.89-2.745-2.79-1.215-.855-3.96-2.7-4.995-2.7A1.87,1.87,0,0,0-21.015,29.88ZM-9.99,41.355a1.816,1.816,0,0,0-1.845-1.62c-.945,0-1.3.765-1.575,1.35a63.6,63.6,0,0,1-6.975,12.6,3.19,3.19,0,0,0-.72,1.71,2.1,2.1,0,0,0,2.07,1.89c.765,0,1.17-.18,3.15-3.465C-13.815,50.355-9.99,42.885-9.99,41.355ZM43.02,44.19H29.565a1.646,1.646,0,1,0,0,3.285H43.02V52.83H26.01a1.76,1.76,0,1,0,0,3.51H64.035a1.757,1.757,0,1,0,0-3.51H46.845V47.475H60.48c.54,0,1.8-.045,1.8-1.62,0-1.53-1.08-1.665-1.8-1.665H46.845V39.06c6.48-.36,7.785-.405,10.4-.675.36.36,2.07,2.25,2.25,2.385a1.784,1.784,0,0,0,1.215.54,2.206,2.206,0,0,0,1.98-1.98c0-.585-.09-.765-2.16-2.835a68.268,68.268,0,0,0-5.985-5.13,2.6,2.6,0,0,0-1.305-.495,1.8,1.8,0,0,0-1.71,1.71,1.357,1.357,0,0,0,.63,1.17c.315.315,1.845,1.62,2.16,1.89-8.415.45-8.64.45-15.885.675a66.794,66.794,0,0,0,3.6-6.165H58.455c.54,0,1.71-.045,1.71-1.575,0-1.4-.9-1.53-1.71-1.53H31.635c-.495,0-1.755,0-1.755,1.53S31.1,30.15,31.635,30.15h6.3a51.483,51.483,0,0,1-3.69,6.255c-.855,0-5.58.09-5.94.135a1.411,1.411,0,0,0-1.08,1.53c0,1.755,1.305,1.755,1.935,1.755.54,0,8.55-.225,13.86-.54Zm3.825-24.615V17.37c0-1.26-.675-1.62-2.025-1.62-1.755,0-1.845,1.08-1.845,1.62v2.205H30.1c-3.735,0-4.86,1.08-4.86,4.9v3.645c0,1.26.495,1.89,1.98,1.89a1.627,1.627,0,0,0,1.8-1.845V24.84c0-1.305.585-1.935,1.89-1.935h28.08A1.682,1.682,0,0,1,60.93,24.84v3.285c0,1.44.675,1.89,2.025,1.89a1.62,1.62,0,0,0,1.8-1.89V24.48c0-3.915-1.17-4.9-4.86-4.9Z" transform="translate(757.719 2038.14)" fill="#fff"/><path d="M-37.327-25.38c-1.98.27-2.97.405-2.97,1.98,0,.855.36,2.025,1.665,2.025.585,0,7.515-1.125,8.91-1.35-.54,2.2-3.06,11.88-7.92,19.8-.855,1.395-1.125,1.8-1.125,2.52,0,1.395,1.53,1.89,2.295,1.89,1.215,0,2.3-2.07,3.465-4.275a90.294,90.294,0,0,0,7.38-20.385c.675,0,1.53-.09,2.2-.09,5.49,0,6.21,2.88,6.21,8.01,0,2.88-.315,7.56-1.4,10.125-.405.99-1.305,2.7-5.535,2.7-.315,0-1.845-.18-2.2-.18-1.125,0-1.53,1.035-1.53,1.89,0,1.575.99,2.16,4.32,2.16,7.11,0,10.26-3.51,10.26-16.56,0-5.985-.585-12.15-11.43-11.7.45-2.25,1.53-7.065,1.53-8.28,0-1.125-1.08-1.575-2.115-1.575-1.71,0-1.845,1.125-2.025,2.115-.585,3.735-.675,4.185-1.485,8.055Zm28.08-10.845a1.828,1.828,0,0,0-2.025,1.755c0,.36.09.675.72,1.3a26.781,26.781,0,0,1,3.78,4.32c.945,1.395,1.17,1.665,1.935,1.665a1.792,1.792,0,0,0,1.755-1.8c0-.585-.135-.99-1.665-2.925C-6.052-33.525-8.167-36.045-9.248-36.225Zm-4.14,5.4a1.79,1.79,0,0,0-1.845,1.62c0,.585.09.63,1.575,2.2a28.634,28.634,0,0,1,7.02,13.41c.405,1.71.585,2.43,1.89,2.43.4,0,2.25-.18,2.25-1.935,0-1.26-1.305-6.3-4.59-11.43C-8.3-26.415-11.677-30.825-13.388-30.825Zm9.54-9.135A1.807,1.807,0,0,0-5.873-38.2c0,.36.045.675.675,1.3a24.794,24.794,0,0,1,3.825,4.32C-.427-31.23-.2-30.915.563-30.915a1.824,1.824,0,0,0,1.755-1.8c0-.585-.135-.99-1.665-2.925C-.653-37.305-2.768-39.825-3.847-39.96ZM12.847-17.28c.99-1.935,4.14-8.055,7.92-15.165.99-1.845.99-2.07.99-2.43A2.123,2.123,0,0,0,19.6-36.63c-1.08,0-1.485.675-2.565,2.835-4.275,8.5-11.025,22.185-15.3,30.69-.585,1.215-.72,1.44-.72,2.07a2.055,2.055,0,0,0,2.16,1.8c.72,0,1.08-.315,1.71-1.4.63-1.17,3.375-6.93,4.1-8.19,4.725-8.595,10.44-8.73,11.43-8.73a2.592,2.592,0,0,1,2.88,2.745c0,1.35-1.125,7.92-1.125,9.405,0,6.705,5.76,6.705,6.795,6.705,8.325,0,11.88-9.945,11.88-11.16a1.972,1.972,0,0,0-2.07-1.8c-.99,0-1.215.495-1.935,2.16-2.475,5.67-5.445,7.02-7.65,7.02A2.806,2.806,0,0,1,26.032-5.4c0-.72.315-2.79.585-4.905.315-2.115.585-4.23.585-4.995,0-3.87-2.565-5.94-6.03-5.94C17.032-21.24,14.017-18.36,12.847-17.28ZM-84.33,23.04a29.436,29.436,0,0,0,1.44-5.85c0-1.395-1.575-1.53-1.935-1.53-1.26,0-1.485.72-1.71,1.665a43.407,43.407,0,0,1-5.94,15.165,2.669,2.669,0,0,0-.63,1.485A2.032,2.032,0,0,0-91.17,35.82c.945,0,1.395-.72,2.43-2.43a42.12,42.12,0,0,0,5.49,13.59,32.994,32.994,0,0,1-9.225,6.84c-.72.36-1.305.72-1.305,1.62a2.1,2.1,0,0,0,1.89,2.205c1.17,0,5.265-2.7,6.03-3.24a34.523,34.523,0,0,0,4.9-4.275,28.614,28.614,0,0,0,4.005,4.095c.9.765,4.41,3.42,5.625,3.42a2.236,2.236,0,0,0,1.98-2.34c0-.81-.4-1.17-1.125-1.62-4.275-2.61-5.715-3.78-8.055-6.57,5.13-7.245,5.67-16.47,5.895-20.43h1.935c1.17,0,1.62-.855,1.62-1.845a1.59,1.59,0,0,0-1.8-1.8Zm8.1,3.645c-.09,2.97-.45,11.025-4.59,17.235a37.82,37.82,0,0,1-2.97-6.255,58.93,58.93,0,0,1-2.565-9.045c.45-1.08.585-1.4.765-1.935Zm-26.28,5.22v-6.3H-93.1c1.125,0,1.845-.36,1.845-1.755,0-1.62-1.125-1.71-1.845-1.71h-6.3V17.46c0-1.35-.72-1.755-1.935-1.755A1.57,1.57,0,0,0-103.1,17.46v4.68h-5.985a1.622,1.622,0,0,0-1.89,1.755c0,1.485,1.08,1.71,1.845,1.71h3.1v8.46c0,10.665-2.43,16.155-4.455,19.665a2.852,2.852,0,0,0-.585,1.575,2.328,2.328,0,0,0,2.25,2.07c.585,0,1.215,0,2.79-3.645,3.015-6.975,3.33-15.3,3.465-18.45h4.14c.9,0,1.755,0,1.755,1.755,0,3.06-.27,8.82-.585,11.88-.135,1.575-.4,3.87-1.35,4.455-.585.36-.9.36-3.645.36-.72,0-1.53.27-1.53,1.71,0,.585.27,1.575,1.035,1.8.4.18.72.18,3.33.18,1.53,0,3.915,0,4.9-3.1,1.08-3.24,1.4-14.445,1.4-18.27,0-2.16-.27-4.14-4.1-4.14Zm52.65,20.34c0,.9-.27,1.575-1.575,1.575H-54.63a1.4,1.4,0,0,0-1.17,1.53c0,2.025,1.26,2.025,3.465,2.025,4.41,0,5.985,0,5.985-4.23V40.455c.855-1.125,3.1-4.5,3.1-5.49a1.6,1.6,0,0,0-1.575-1.62c-.81,0-1.125.585-1.53,1.26V24.57c0-3.2-.855-4.185-4.14-4.185h-3.42c.99-2.61,1.125-2.88,1.125-3.375,0-.99-.99-1.26-1.935-1.26a1.632,1.632,0,0,0-1.71,1.08c-.225.585-1.035,3.06-1.26,3.555h-1.26c-3.24,0-4.14.945-4.14,4.185V41.085c-2.2.18-2.925.225-2.925,1.665a1.418,1.418,0,0,0,1.575,1.665c1.17,0,8.6-1.125,12.51-1.935A38.2,38.2,0,0,1-63.9,51.435c-1.53.72-2.16,1.035-2.16,1.935A1.874,1.874,0,0,0-64.35,55.4c1.215,0,8.5-3.78,14.49-10.485Zm0-18.4h-9.72V30.06h9.72Zm-9.72,2.79h9.72v2.79c-4.455.675-4.95.72-9.72,1.305Zm0-11.655a1.267,1.267,0,0,1,1.44-1.44h6.84a1.267,1.267,0,0,1,1.44,1.44v2.25h-9.72ZM-32,29.475v22.05A1.767,1.767,0,0,1-33.84,53.55c-.45.045-2.88-.045-3.42-.045-.855,0-2.2,0-2.2,1.755,0,2.115,1.26,2.115,4.095,2.115,4.815,0,7.11,0,7.11-4.815V29.475h2.52c.765,0,1.62-.135,1.62-1.8,0-1.755-1.035-1.845-1.62-1.845h-2.52V17.64c0-1.35-.54-1.89-1.98-1.89A1.607,1.607,0,0,0-32,17.64v8.19H-42.93a1.634,1.634,0,0,0-1.89,1.845,1.62,1.62,0,0,0,1.89,1.8Zm-7.83,4.32c-.63,0-1.98.405-1.98,1.62,0,.4.135.585.99,2.43A32.326,32.326,0,0,1-38.79,43.02c.9,3.15.99,3.465,2.205,3.465.765,0,2.025-.36,2.025-1.575a28.962,28.962,0,0,0-2.745-8.19C-38.79,33.795-39.105,33.795-39.825,33.795ZM.585,19.845c-2.88,0-4.14.99-4.14,4.14V31.95c0,3.105,1.215,4.14,4.14,4.14H5.85V52.065c0,1.575-.945,1.62-1.8,1.62-.54,0-1.89.045-2.07.045A1.531,1.531,0,0,0,.54,55.4c0,1.485.855,1.89,1.665,1.935.855.045,1.935.045,2.925.045,3.96,0,4.095-2.025,4.095-4.185V44.325a33.532,33.532,0,0,0,5.04,7.875c1.035,1.17,3.735,4.14,4.95,4.14a2.218,2.218,0,0,0,1.845-2.115,1.8,1.8,0,0,0-.9-1.53,36.421,36.421,0,0,1-6.75-6.975A51.3,51.3,0,0,0,19.8,40.5a1.6,1.6,0,0,0,.45-1.125,1.979,1.979,0,0,0-1.845-1.8,2.208,2.208,0,0,0-1.575.9,50.4,50.4,0,0,1-5.085,4.68,25.185,25.185,0,0,1-2.52-5.895V36.09H14.67c2.97,0,4.14-1.08,4.14-4.14V23.985c0-3.015-1.125-4.14-4.14-4.14H7.38c.855-2.07.945-2.3.945-2.655,0-1.53-1.8-1.575-2.07-1.575a1.6,1.6,0,0,0-1.62,1.125c-.18.5-.945,2.655-1.17,3.105Zm-.63,4.41A1.313,1.313,0,0,1,1.44,22.77H13.77c1.035,0,1.44.54,1.44,1.485v2.16H-.045Zm15.255,5v2.43c0,.855-.315,1.485-1.44,1.485H1.485c-1.08,0-1.53-.54-1.53-1.485V29.25Zm-29.34,27c0,.495,0,1.755,1.53,1.755s1.575-1.17,1.575-1.755V38.025c1.4-.135,1.845-.18,3.24-.36A14.5,14.5,0,0,0-7.11,39.51a1.054,1.054,0,0,0,.81.36c.54,0,1.62-.315,1.62-1.35,0-1.17-1.395-4.77-1.98-6.12-.27-.675-.585-1.4-1.53-1.4a1.3,1.3,0,0,0-1.35,1.26,8.036,8.036,0,0,0,.54,1.8,5.678,5.678,0,0,0,.315.72c-.99.135-4.1.4-5.67.495,2.205-3.24,4.41-6.525,6.345-9.9.45-.81,1.845-3.2,1.845-3.915,0-1.035-1.305-1.53-1.89-1.53-.855,0-1.17.63-1.71,1.665-.315.585-1.62,3.2-1.89,3.69-.765,1.305-1.26,2.16-1.755,2.97-.72-.765-1.17-1.26-2.115-2.16.675-1.17,4.1-7.875,4.1-8.73,0-1.08-1.35-1.485-1.89-1.485-.945,0-1.305.72-1.845,2.025a58.661,58.661,0,0,1-2.88,6.03,1.8,1.8,0,0,0-1.035-.405,1.624,1.624,0,0,0-1.53,1.62c0,.765.225.945,1.98,2.61a29.3,29.3,0,0,1,3.42,3.465c-.225.36-.585.9-.72,1.125-.315.495-1.71,2.655-1.98,3.1-2.43.09-3.24.09-3.24,1.485a1.531,1.531,0,0,0,1.62,1.71c.72,0,.9,0,5.4-.36ZM-17.6,41.76c-1.395,0-1.44.765-1.53,1.845a38.789,38.789,0,0,1-.63,5.805c-.09.585-.9,3.51-.9,4.23,0,1.17,1.26,1.485,1.71,1.485,1.035,0,1.305-.99,1.575-2.07a56.99,56.99,0,0,0,1.26-9.72A1.374,1.374,0,0,0-17.6,41.76Zm9.99-.27c-.765,0-1.53.27-1.53,1.215,0,.315.495,2.475.495,2.565.27,1.4.54,3.15.675,4.185.18,1.485.27,2.025,1.215,2.025.54,0,1.62-.27,1.62-1.305a47.128,47.128,0,0,0-1.08-6.39C-6.57,42.075-6.84,41.49-7.6,41.49Zm6.7,1.17c.4,0,.99,0,.99.81,0,.855-1.62,6.12-5.985,10.26-.4.36-.585.54-.585,1.08a1.8,1.8,0,0,0,1.71,1.71c2.61,0,8.325-9.99,8.325-14.67,0-2.43-2.25-2.43-3.51-2.43h-3.51A1.413,1.413,0,0,0-5.04,41.04a1.415,1.415,0,0,0,1.53,1.62Zm63.63.585c0-3.735-1.485-4.815-4.815-4.815H43.11c-3.285,0-4.815,1.035-4.815,4.815v8.91c0,3.69,1.44,4.815,4.815,4.815H57.915c3.465,0,4.815-1.215,4.815-4.815Zm-3.87,8.28c0,1.35-.675,1.98-2.025,1.98H44.055c-1.4,0-2.025-.63-2.025-1.98v-7.74c0-1.305.585-2.025,1.98-2.025H56.835a1.79,1.79,0,0,1,2.025,2.025ZM39.69,30.6a19.541,19.541,0,0,0-3.465.09,1.529,1.529,0,0,0-.9,1.53c0,1.89,1.08,1.89,1.935,1.89,3.825,0,11.835-.225,15.795-.4,2.565-.09,4.77-.225,7.83-.45.225.36.99,2.115,1.215,2.43a1.539,1.539,0,0,0,1.35.63,2.052,2.052,0,0,0,2.16-1.8c0-1.485-2.97-6.12-4.14-7.785A43.054,43.054,0,0,0,58,22.23a1.761,1.761,0,0,0-1.26-.585c-.855,0-1.98.72-1.98,1.665a2.468,2.468,0,0,0,.54,1.395,46.535,46.535,0,0,1,3.78,5.355c-4.275.315-9.54.45-15.3.54,3.15-6.12,5.58-12.42,5.58-13.23,0-1.08-1.125-1.575-2.115-1.575-1.26,0-1.305.135-2.88,4.41C43.965,21.33,42.21,25.605,39.69,30.6ZM27.585,16.56a1.873,1.873,0,0,0-1.665,1.89c0,.855.5,1.17,1.26,1.62,2.2,1.35,2.835,1.665,4.275,2.7,1.575,1.17,1.755,1.3,2.34,1.3A2.062,2.062,0,0,0,35.64,22c0-.72,0-1.08-3.735-3.42C30.78,17.91,28.575,16.56,27.585,16.56Zm-1.8,11.52A2.092,2.092,0,0,0,24.03,30.1a1.662,1.662,0,0,0,.9,1.4c.99.63,3.6,2.34,4.095,2.7,1.62,1.26,1.8,1.4,2.3,1.4a2.148,2.148,0,0,0,1.89-2.115,1.638,1.638,0,0,0-.765-1.35,32.006,32.006,0,0,0-3.42-2.43C26.55,28.08,26.325,28.08,25.785,28.08ZM35.1,41.355a1.909,1.909,0,0,0-1.89-1.575c-.99,0-1.26.63-1.575,1.4a61.47,61.47,0,0,1-5.22,10.4c-2.205,3.1-2.205,3.15-2.205,3.825a2.1,2.1,0,0,0,2.025,1.98c.9,0,1.305-.54,2.3-2.07A78.188,78.188,0,0,0,34.065,44.55C35.055,42.21,35.1,42.03,35.1,41.355Zm70.83-2.88c2.565,1.665,2.88,1.665,3.24,1.665a1.878,1.878,0,0,0,1.755-1.935,1.349,1.349,0,0,0-.9-1.305c-.54-.27-3.06-1.575-3.645-1.89.81-.855,2.7-2.88,2.7-3.69a1.617,1.617,0,0,0-1.62-1.4,1.469,1.469,0,0,0-1.17.63,35.667,35.667,0,0,1-2.3,2.79,20.819,20.819,0,0,1-4.14-4.275h9.135c1.08,0,1.62-.405,1.62-1.53,0-1.44-1.08-1.44-1.62-1.44H94.41a4.316,4.316,0,0,0,.315-1.26c0-.99-1.215-1.35-1.845-1.35a1.312,1.312,0,0,0-1.17.63c-.135.27-.675,1.665-.81,1.98H81.135c-1.17,0-1.62.495-1.62,1.53,0,1.305,1.035,1.44,1.62,1.44h8.1a21.856,21.856,0,0,1-3.645,4.185c-1.08-1.125-2.385-2.385-2.565-2.565a1.731,1.731,0,0,0-1.17-.585,1.648,1.648,0,0,0-1.62,1.44c0,.5.315.765,3.06,3.555-.45.27-2.745,1.71-3.285,2.025a1.489,1.489,0,0,0-.855,1.305,1.731,1.731,0,0,0,1.575,1.8c.315,0,.63,0,2.43-1.17v4.77c0,2.475.765,3.96,3.96,3.96h5.535v4.95c0,.945-.27,1.35-.945,1.485-.45.09-2.475,0-2.97,0s-1.62,0-1.62,1.485a1.623,1.623,0,0,0,.9,1.575c.36.135.4.18,2.7.18,4,0,5.625,0,5.625-4.23V47.79h5.625c3.375,0,3.96-1.71,3.96-3.96Zm-19.305.045c0-.945.4-1.485,1.44-1.485h12.96a1.312,1.312,0,0,1,1.485,1.485v1.35H86.625Zm2.115-4.005a31.958,31.958,0,0,0,4.185-5.445h3.51a20.871,20.871,0,0,0,4.41,5.445ZM102.51,42.3v1.44a1.3,1.3,0,0,1-1.485,1.485H88.065c-1.035,0-1.44-.54-1.44-1.485V42.3ZM74.88,24.39V36.9a47.535,47.535,0,0,1-5.31,3.1,1.715,1.715,0,0,0-1.08,1.62c0,.72.36,2.07,1.53,2.07,1.08,0,3.33-1.8,4.725-2.925-.675,6.615-2.16,9-4.86,13.185A2.665,2.665,0,0,0,69.3,55.44a2,2,0,0,0,1.935,1.845c.72,0,1.215-.135,2.925-2.925,4.185-6.84,4.185-14.625,4.185-19.08V24.7A1.79,1.79,0,0,1,80.37,22.68h28.71c.675,0,1.8-.09,1.8-1.575s-1.305-1.53-1.8-1.53H94.14V17.37c0-1.35-.855-1.665-1.935-1.665-1.53,0-1.8.945-1.8,1.665v2.205H79.695C76.32,19.575,74.88,20.745,74.88,24.39Zm-4.32-1.17a1.7,1.7,0,0,0-1.71,1.53,3.244,3.244,0,0,0,.315,1.215c.675,1.71.9,2.115,1.215,3.105,1.08,3.15,1.08,3.285,2.025,3.285.63,0,2.025-.36,2.025-1.665a34.5,34.5,0,0,0-1.935-5.4C71.865,23.76,71.5,23.22,70.56,23.22ZM88.11,50.76a1.7,1.7,0,0,0-1.62-1.755c-.54,0-.585,0-2.52,1.4a28.7,28.7,0,0,1-4.275,2.475c-2.25,1.08-2.43,1.17-2.43,2.025a1.636,1.636,0,0,0,1.575,1.71c1.125,0,3.96-1.71,5.265-2.475C85.365,53.37,88.11,51.705,88.11,50.76Zm12.195-.09c0,1.035,2.7,2.7,4.05,3.51,1.035.63,3.96,2.34,4.95,2.34a1.878,1.878,0,0,0,1.755-1.89,1.228,1.228,0,0,0-.9-1.215,38.825,38.825,0,0,1-6.3-3.465c-1.4-1.035-1.4-1.035-1.845-1.035A1.737,1.737,0,0,0,100.305,50.67ZM-51.075,81.09c.81,0,1.755-.135,1.755-1.62,0-1.62-1.215-1.62-1.755-1.62H-64.35c-.54,0-1.71,0-1.71,1.62a1.461,1.461,0,0,0,1.71,1.62Zm13.59-7.38c.36,0,.54.315.855.9,1.98,3.87,9,11.43,10.935,11.43a2.2,2.2,0,0,0,1.89-2.16,1.775,1.775,0,0,0-1.035-1.665A31.991,31.991,0,0,1-34.6,71.46a2.854,2.854,0,0,0-2.925-1.665,2.907,2.907,0,0,0-2.925,1.8,27.773,27.773,0,0,1-7.74,8.685c-1.89,1.44-1.935,1.485-1.935,2.205A2.137,2.137,0,0,0-48.285,84.6c1.755,0,7.875-6.3,9.99-10.08C-38.115,74.16-37.89,73.71-37.485,73.71Zm-13.68,27.5c0-3.195-.9-4.1-4.05-4.1h-5.31c-3.285,0-4.05.99-4.05,4.1v5.76c0,3.105.855,4.05,4.05,4.05h5.31c3.24,0,4.05-.99,4.05-4.05Zm-3.285,5.265a1.267,1.267,0,0,1-1.44,1.44h-3.735a1.267,1.267,0,0,1-1.44-1.44v-4.9c0-1.035.495-1.44,1.44-1.44h3.735a1.266,1.266,0,0,1,1.44,1.44Zm2.16-31.95a1.469,1.469,0,0,0,1.71-1.62,1.462,1.462,0,0,0-1.71-1.575H-63.045a1.491,1.491,0,0,0-1.755,1.62,1.494,1.494,0,0,0,1.755,1.575Zm-.4,12.825c.585,0,1.71-.045,1.71-1.62a1.461,1.461,0,0,0-1.71-1.62h-10.35a1.491,1.491,0,0,0-1.755,1.62,1.491,1.491,0,0,0,1.755,1.62Zm-.045,6.48a1.491,1.491,0,0,0,1.755-1.62,1.477,1.477,0,0,0-1.71-1.575h-10.35A1.506,1.506,0,0,0-64.8,92.25a1.494,1.494,0,0,0,1.755,1.575ZM-34.29,83.61a1.938,1.938,0,0,0-1.8-1.89c-.495,0-.54.045-2.385,1.665a28.474,28.474,0,0,1-7.29,4.545c-2.205.99-2.565,1.125-2.565,2.025,0,.675.63,1.935,1.755,1.935C-44.91,91.89-34.29,85.68-34.29,83.61Zm-14.265,26.01a1.832,1.832,0,0,0,1.8,1.89c1.4,0,11.52-3.105,19.08-9.63,1.17-.99,3.015-2.7,3.015-3.825a2.018,2.018,0,0,0-1.89-1.8,1.187,1.187,0,0,0-.675.225c-.135.09-1.89,1.89-2.115,2.115-2.52,2.565-9.27,7.02-17.505,9.18C-47.835,108.045-48.555,108.36-48.555,109.62Zm.765-9.945c0,.36.27,1.89,1.665,1.89a13.089,13.089,0,0,0,3.465-1.26,48.1,48.1,0,0,0,10.4-6.3c1.215-.945,3.51-2.79,3.51-3.87a1.928,1.928,0,0,0-1.8-1.755c-.45,0-.765.225-1.26.72a36.924,36.924,0,0,1-14.04,8.64C-47.565,98.37-47.79,98.46-47.79,99.675Zm63.72-7.2c2.565,1.665,2.88,1.665,3.24,1.665a1.878,1.878,0,0,0,1.755-1.935,1.349,1.349,0,0,0-.9-1.305c-.54-.27-3.06-1.575-3.645-1.89.81-.855,2.7-2.88,2.7-3.69a1.617,1.617,0,0,0-1.62-1.395,1.469,1.469,0,0,0-1.17.63,35.67,35.67,0,0,1-2.3,2.79,20.818,20.818,0,0,1-4.14-4.275H18.99c1.08,0,1.62-.4,1.62-1.53,0-1.44-1.08-1.44-1.62-1.44H4.41a4.316,4.316,0,0,0,.315-1.26c0-.99-1.215-1.35-1.845-1.35a1.312,1.312,0,0,0-1.17.63c-.135.27-.675,1.665-.81,1.98H-8.865c-1.17,0-1.62.5-1.62,1.53,0,1.305,1.035,1.44,1.62,1.44h8.1A21.856,21.856,0,0,1-4.41,87.255C-5.49,86.13-6.8,84.87-6.975,84.69a1.731,1.731,0,0,0-1.17-.585,1.648,1.648,0,0,0-1.62,1.44c0,.5.315.765,3.06,3.555-.45.27-2.745,1.71-3.285,2.025a1.489,1.489,0,0,0-.855,1.305,1.731,1.731,0,0,0,1.575,1.8c.315,0,.63,0,2.43-1.17v4.77c0,2.475.765,3.96,3.96,3.96H2.655v4.95c0,.945-.27,1.35-.945,1.485-.45.09-2.475,0-2.97,0s-1.62,0-1.62,1.485a1.623,1.623,0,0,0,.9,1.575c.36.135.4.18,2.7.18,4.005,0,5.625,0,5.625-4.23V101.79H11.97c3.375,0,3.96-1.71,3.96-3.96Zm-19.305.045c0-.945.4-1.485,1.44-1.485h12.96A1.312,1.312,0,0,1,12.51,92.52v1.35H-3.375Zm2.115-4A31.957,31.957,0,0,0,2.925,83.07h3.51a20.871,20.871,0,0,0,4.41,5.445ZM12.51,96.3v1.44a1.3,1.3,0,0,1-1.485,1.485H-1.935c-1.035,0-1.44-.54-1.44-1.485V96.3ZM-15.12,78.39V90.9A47.535,47.535,0,0,1-20.43,94a1.715,1.715,0,0,0-1.08,1.62c0,.72.36,2.07,1.53,2.07,1.08,0,3.33-1.8,4.725-2.925-.675,6.615-2.16,9-4.86,13.185a2.665,2.665,0,0,0-.585,1.485,2,2,0,0,0,1.935,1.845c.72,0,1.215-.135,2.925-2.925,4.185-6.84,4.185-14.625,4.185-19.08V78.705A1.79,1.79,0,0,1-9.63,76.68H19.08c.675,0,1.8-.09,1.8-1.575s-1.305-1.53-1.8-1.53H4.14V71.37c0-1.35-.855-1.665-1.935-1.665-1.53,0-1.8.945-1.8,1.665v2.205h-10.71C-13.68,73.575-15.12,74.745-15.12,78.39Zm-4.32-1.17a1.7,1.7,0,0,0-1.71,1.53,3.244,3.244,0,0,0,.315,1.215c.675,1.71.9,2.115,1.215,3.105,1.08,3.15,1.08,3.285,2.025,3.285.63,0,2.025-.36,2.025-1.665a34.5,34.5,0,0,0-1.935-5.4C-18.135,77.76-18.495,77.22-19.44,77.22Zm17.55,27.54A1.7,1.7,0,0,0-3.51,103c-.54,0-.585,0-2.52,1.4a28.7,28.7,0,0,1-4.275,2.475c-2.25,1.08-2.43,1.17-2.43,2.025a1.636,1.636,0,0,0,1.575,1.71c1.125,0,3.96-1.71,5.265-2.475C-4.635,107.37-1.89,105.705-1.89,104.76Zm12.195-.09c0,1.035,2.7,2.7,4.05,3.51,1.035.63,3.96,2.34,4.95,2.34a1.878,1.878,0,0,0,1.755-1.89,1.228,1.228,0,0,0-.9-1.215,38.825,38.825,0,0,1-6.3-3.465c-1.4-1.035-1.4-1.035-1.845-1.035A1.737,1.737,0,0,0,10.305,104.67ZM43.02,98.19H29.565a1.646,1.646,0,1,0,0,3.285H43.02v5.355H26.01a1.76,1.76,0,1,0,0,3.51H64.035a1.757,1.757,0,1,0,0-3.51H46.845v-5.355H60.48c.54,0,1.8-.045,1.8-1.62,0-1.53-1.08-1.665-1.8-1.665H46.845V93.06c6.48-.36,7.785-.4,10.4-.675.36.36,2.07,2.25,2.25,2.385a1.784,1.784,0,0,0,1.215.54,2.206,2.206,0,0,0,1.98-1.98c0-.585-.09-.765-2.16-2.835a68.268,68.268,0,0,0-5.985-5.13,2.6,2.6,0,0,0-1.305-.495,1.8,1.8,0,0,0-1.71,1.71,1.357,1.357,0,0,0,.63,1.17c.315.315,1.845,1.62,2.16,1.89-8.415.45-8.64.45-15.885.675a66.794,66.794,0,0,0,3.6-6.165H58.455c.54,0,1.71-.045,1.71-1.575,0-1.395-.9-1.53-1.71-1.53H31.635c-.495,0-1.755,0-1.755,1.53S31.1,84.15,31.635,84.15h6.3a51.483,51.483,0,0,1-3.69,6.255c-.855,0-5.58.09-5.94.135a1.411,1.411,0,0,0-1.08,1.53c0,1.755,1.305,1.755,1.935,1.755.54,0,8.55-.225,13.86-.54Zm3.825-24.615V71.37c0-1.26-.675-1.62-2.025-1.62-1.755,0-1.845,1.08-1.845,1.62v2.205H30.1c-3.735,0-4.86,1.08-4.86,4.9v3.645c0,1.26.495,1.89,1.98,1.89a1.627,1.627,0,0,0,1.8-1.845V78.84c0-1.3.585-1.935,1.89-1.935h28.08A1.682,1.682,0,0,1,60.93,78.84v3.285c0,1.44.675,1.89,2.025,1.89a1.62,1.62,0,0,0,1.8-1.89V78.48c0-3.915-1.17-4.9-4.86-4.9Z" transform="translate(653.878 2258.628)" fill="#fff"/><path d="M-83.07-25.38c-1.98.27-2.97.405-2.97,1.98,0,.855.36,2.025,1.665,2.025.585,0,7.515-1.125,8.91-1.35-.54,2.2-3.06,11.88-7.92,19.8C-84.24-1.53-84.51-1.125-84.51-.4c0,1.395,1.53,1.89,2.295,1.89,1.215,0,2.295-2.07,3.465-4.275a90.294,90.294,0,0,0,7.38-20.385c.675,0,1.53-.09,2.2-.09,5.49,0,6.21,2.88,6.21,8.01,0,2.88-.315,7.56-1.4,10.125-.4.99-1.305,2.7-5.535,2.7-.315,0-1.845-.18-2.205-.18-1.125,0-1.53,1.035-1.53,1.89,0,1.575.99,2.16,4.32,2.16,7.11,0,10.26-3.51,10.26-16.56,0-5.985-.585-12.15-11.43-11.7.45-2.25,1.53-7.065,1.53-8.28,0-1.125-1.08-1.575-2.115-1.575-1.71,0-1.845,1.125-2.025,2.115-.585,3.735-.675,4.185-1.485,8.055Zm28.08-10.845a1.828,1.828,0,0,0-2.025,1.755c0,.36.09.675.72,1.3a26.781,26.781,0,0,1,3.78,4.32c.945,1.395,1.17,1.665,1.935,1.665a1.792,1.792,0,0,0,1.755-1.8c0-.585-.135-.99-1.665-2.925C-51.8-33.525-53.91-36.045-54.99-36.225Zm-4.14,5.4a1.79,1.79,0,0,0-1.845,1.62c0,.585.09.63,1.575,2.2a28.634,28.634,0,0,1,7.02,13.41c.405,1.71.585,2.43,1.89,2.43.4,0,2.25-.18,2.25-1.935,0-1.26-1.305-6.3-4.59-11.43C-54.045-26.415-57.42-30.825-59.13-30.825Zm9.54-9.135A1.807,1.807,0,0,0-51.615-38.2c0,.36.045.675.675,1.3a24.794,24.794,0,0,1,3.825,4.32c.945,1.35,1.17,1.665,1.935,1.665a1.824,1.824,0,0,0,1.755-1.8c0-.585-.135-.99-1.665-2.925C-46.4-37.305-48.51-39.825-49.59-39.96ZM-32.9-17.28c.99-1.935,4.14-8.055,7.92-15.165.99-1.845.99-2.07.99-2.43a2.123,2.123,0,0,0-2.16-1.755c-1.08,0-1.485.675-2.565,2.835-4.275,8.5-11.025,22.185-15.3,30.69-.585,1.215-.72,1.44-.72,2.07a2.055,2.055,0,0,0,2.16,1.8c.72,0,1.08-.315,1.71-1.4.63-1.17,3.375-6.93,4.1-8.19,4.725-8.595,10.44-8.73,11.43-8.73a2.592,2.592,0,0,1,2.88,2.745c0,1.35-1.125,7.92-1.125,9.405,0,6.705,5.76,6.705,6.795,6.705,8.325,0,11.88-9.945,11.88-11.16a1.972,1.972,0,0,0-2.07-1.8c-.99,0-1.215.495-1.935,2.16-2.475,5.67-5.445,7.02-7.65,7.02A2.806,2.806,0,0,1-19.71-5.4c0-.72.315-2.79.585-4.905.315-2.115.585-4.23.585-4.995,0-3.87-2.565-5.94-6.03-5.94C-28.71-21.24-31.725-18.36-32.9-17.28ZM39.69-31.95c0-3.69-1.485-4.815-4.815-4.815H23.625c-3.375,0-4.815,1.125-4.815,4.815V-1.89c0,3.735,1.485,4.815,4.815,4.815h11.25c3.42,0,4.815-1.17,4.815-4.815ZM36.045-12.915H22.455v-8.64h13.59ZM22.455-24.8v-6.48c0-1.4.63-2.025,1.98-2.025H34.02c1.4,0,2.025.63,2.025,2.025v6.48Zm13.59,22.23A1.772,1.772,0,0,1,34.02-.54H24.48c-1.395,0-2.025-.63-2.025-2.025V-9.63h13.59ZM10.71-17.415a39.456,39.456,0,0,0,2.475,4.725c.72,1.08,1.125,1.575,1.8,1.575A1.868,1.868,0,0,0,16.74-12.96c0-.54-.135-.72-1.26-2.205a33.46,33.46,0,0,1-4.77-8.46v-2.16h4.365a1.559,1.559,0,0,0,1.8-1.755,1.534,1.534,0,0,0-1.8-1.71H10.71v-7.245c0-1.4-.63-1.845-1.89-1.845a1.566,1.566,0,0,0-1.665,1.845v7.245H1.44a1.534,1.534,0,0,0-1.8,1.71,1.575,1.575,0,0,0,1.8,1.755H7.02C6.3-23.22,4-16.155,0-10.8A3.118,3.118,0,0,0-.81-8.865,2.042,2.042,0,0,0,1.035-6.75c.945,0,1.44-.63,2.34-2.34a85.021,85.021,0,0,0,3.78-8.73V2.3C7.155,3.6,7.65,4.14,9,4.14A1.586,1.586,0,0,0,10.71,2.3ZM60.21-6.84c0-3.2-.9-4.05-4.1-4.05H50.58c-3.24,0-4.095.9-4.095,4.05v5.76c0,3.24.945,4.1,4.095,4.1h5.58c3.195,0,4.05-.945,4.05-4.1ZM56.925-1.62a1.266,1.266,0,0,1-1.44,1.44h-4.1a1.263,1.263,0,0,1-1.44-1.44V-6.39c0-.855.315-1.485,1.44-1.485h4.1a1.3,1.3,0,0,1,1.44,1.485Zm1.71-31.77c.585,0,1.755-.045,1.755-1.62s-1.26-1.575-1.755-1.575H48.015c-.585,0-1.71.045-1.71,1.575,0,1.62,1.17,1.62,1.71,1.62Zm1.53,6.525c.765,0,1.71-.135,1.71-1.665s-1.08-1.62-1.71-1.62H46.755c-.81,0-1.71.18-1.71,1.665,0,1.575,1.08,1.62,1.71,1.62ZM58.68-20.52c.54,0,1.71,0,1.71-1.62a1.461,1.461,0,0,0-1.71-1.62H48.015c-.72,0-1.71.135-1.71,1.62a1.469,1.469,0,0,0,1.71,1.62Zm-.045,6.525c.54,0,1.755,0,1.755-1.62a1.475,1.475,0,0,0-1.71-1.62H48.015a1.469,1.469,0,0,0-1.71,1.62,1.475,1.475,0,0,0,1.71,1.62Zm6.12-22.14a1.636,1.636,0,0,0-1.8,1.62c0,.45,1.215,4.185,1.44,4.995.585,2.2.81,2.88,1.98,2.88a1.767,1.767,0,0,0,1.935-1.8,25.873,25.873,0,0,0-1.575-5.31C66.15-35.28,65.655-36.135,64.755-36.135ZM85.95-34.38c0-1.215-1.26-1.62-1.89-1.62a1.528,1.528,0,0,0-1.17.54c-.4.54-1.755,3.6-2.07,4.275-1.08,2.16-1.17,2.3-1.17,2.7a1.759,1.759,0,0,0,1.8,1.62c.99,0,1.35-.63,2.025-1.89C84.105-29.97,85.95-33.39,85.95-34.38ZM72.315-13.59a16.066,16.066,0,0,1-1.89,6.795,16.735,16.735,0,0,1-8.37,6.84c-.81.315-1.26.675-1.26,1.53,0,.315.135,2.07,1.845,2.07,1.17,0,7.965-2.43,11.475-11.34a18.319,18.319,0,0,0,3.87,6.48c2.79,2.97,6.75,4.815,7.785,4.815a2.033,2.033,0,0,0,1.845-2.07,1.359,1.359,0,0,0-.63-1.215c-.18-.135-3.24-1.71-3.735-1.98-2.475-1.26-7.47-5.625-7.47-12.06V-17.37c0-1.44-.585-1.845-1.8-1.845a1.574,1.574,0,0,0-1.665,1.845ZM64.755-15.7c-.45,0-1.71.4-1.71,1.53a4.752,4.752,0,0,0,.63,1.89,33.787,33.787,0,0,1,1.35,3.24c.5,1.35.81,2.205,1.935,2.205.45,0,1.845-.315,1.845-1.62a18.8,18.8,0,0,0-1.53-4.365C66.105-15.345,65.97-15.7,64.755-15.7Zm7.56-17.865c0,3.915-2.925,9.765-9.27,12.915-1.485.72-1.845.9-1.845,1.755a2.166,2.166,0,0,0,1.755,2.16,4.029,4.029,0,0,0,2.115-.855c2.2-1.35,7.02-4.32,9-10.53,2.115,5.85,5.58,8.01,9.45,10.44a3.925,3.925,0,0,0,2.025.9,2.017,2.017,0,0,0,1.8-2.2c0-.9-.225-1.035-2.25-2.025C81.945-22.59,75.78-27,75.78-33.48v-2.88c0-1.4-.63-1.8-1.755-1.8-1.26,0-1.71.675-1.71,1.8Zm13.5,19.215A1.652,1.652,0,0,0,84.06-16.02a1.767,1.767,0,0,0-1.395.72c-.045.09-1.8,3.915-2.16,4.635-.81,1.485-.945,1.755-.945,2.16,0,1.215,1.395,1.665,1.845,1.665,1.035,0,1.485-.945,2.115-2.115C84.015-9.945,85.815-13.545,85.815-14.355ZM-105.165,34.56c.765,0,1.575,0,1.575.855,0,1.125-2.97,6.21-8.64,10.485a30.6,30.6,0,0,1-7.965-8.64,1.915,1.915,0,0,0-1.62-1.035,2.025,2.025,0,0,0-1.98,1.89c0,1.575,4.86,7.38,8.145,9.945a48.694,48.694,0,0,1-15.7,5.22c-.675.135-1.8.315-1.8,1.665a2.085,2.085,0,0,0,2.07,2.205c2.16,0,12.24-2.655,18.765-6.705a40.59,40.59,0,0,0,7.605,3.78A43.784,43.784,0,0,0-93.69,57.15c1.935,0,1.935-2.115,1.935-2.25,0-1.26-1.035-1.485-1.62-1.575A50.685,50.685,0,0,1-108.9,48.06c4.815-3.825,9.855-10.4,9.855-13.905,0-3.06-2.97-3.06-4.86-3.06h-6.615V24.7h17.325a1.636,1.636,0,0,0,1.89-1.755,1.636,1.636,0,0,0-1.89-1.755H-110.52V17.55c0-1.44-.855-1.71-2.115-1.71-1.53,0-1.8.9-1.8,1.71v3.645h-17.28a1.619,1.619,0,0,0-1.845,1.8,1.592,1.592,0,0,0,1.845,1.71h17.28v6.39h-13.86a1.621,1.621,0,0,0-1.89,1.755,1.609,1.609,0,0,0,1.89,1.71ZM-68,38.7A28.847,28.847,0,0,1-76.86,54c-.72.72-.99,1.125-.99,1.71a2.036,2.036,0,0,0,1.935,1.89c.72,0,1.485-.54,3.6-2.925A36.8,36.8,0,0,0-66.33,44.82h11.97c.45,0,1.035,0,1.035.675,0,.945-1.755,2.79-4.545,4.545-.945-.675-1.305-.945-3.825-3.69-.585-.675-.99-.99-1.575-.99a1.58,1.58,0,0,0-1.575,1.485c0,1.215,3.6,4.41,4.05,4.815a31.914,31.914,0,0,1-7.83,2.655c-.945.18-1.485.5-1.485,1.485a1.687,1.687,0,0,0,1.575,1.845c.27,0,4.635-.36,10.62-3.825,3.96,2.52,8.28,3.87,9.315,3.87a1.925,1.925,0,0,0,1.89-2.025c0-1.08-.72-1.305-1.575-1.485a26.952,26.952,0,0,1-6.705-2.34,26.33,26.33,0,0,0,3.375-3.1c.63-.72,2.115-2.34,2.115-4.365,0-2.34-2.34-2.34-3.735-2.34h-12.06c.18-.585.45-1.395.9-3.33H-48.42c1.485,0,1.71-.855,1.71-1.53,0-.9-.45-1.53-1.71-1.53H-63.9A26.911,26.911,0,0,0-63.63,32h14.22c1.35,0,1.665-.765,1.665-1.53,0-.945-.5-1.485-1.665-1.485h-2.07c.855-1.35,3.51-5.67,3.51-6.975,0-.945-1.08-1.485-1.845-1.485-.99,0-1.17.36-1.845,1.845a51.185,51.185,0,0,1-3.6,6.615h-17.1c-1.26,0-1.71.585-1.71,1.53,0,1.035.63,1.485,1.71,1.485h5.175a33.1,33.1,0,0,1-.27,3.645H-72.9c-1.53,0-1.665.9-1.665,1.62,0,1.035.675,1.44,1.665,1.44Zm-11.43,2.295A37.316,37.316,0,0,0-75.6,39.33a1.473,1.473,0,0,0,.72-1.4c0-.72-.315-1.755-1.26-1.755a22.316,22.316,0,0,0-3.285,1.08V27.855H-76.5c.81,0,1.62-.27,1.62-1.755,0-1.71-1.17-1.71-1.62-1.71h-2.925V17.55c0-.855-.18-1.755-1.8-1.755-1.755,0-1.8,1.125-1.8,1.755v6.84H-86.67a1.547,1.547,0,0,0-1.8,1.71,1.575,1.575,0,0,0,1.8,1.755h3.645V38.52c-.72.225-3.87,1.125-4.545,1.4a1.519,1.519,0,0,0-1.125,1.62,1.753,1.753,0,0,0,1.62,1.935,23.77,23.77,0,0,0,4.05-1.17v9.855c0,.9-.27,1.305-.855,1.485a16.025,16.025,0,0,1-2.25.045c-.81,0-1.935,0-1.935,1.665,0,2.07,1.4,2.07,2.52,2.07,4.23,0,6.12,0,6.12-4.23Zm8.64-19.035a1.809,1.809,0,0,0-1.845,1.575,2.12,2.12,0,0,0,.18.765c.09.27.675,1.53.765,1.8.99,2.34,1.08,2.565,2.115,2.565a1.668,1.668,0,0,0,1.8-1.575,12.878,12.878,0,0,0-.945-2.925C-69.48,22.32-69.705,21.96-70.785,21.96Zm9-.63a1.723,1.723,0,0,0-1.845,1.44,2.673,2.673,0,0,0,.315,1.17c.225.495.765,1.755.9,2.115.855,2.16.945,2.43,1.98,2.43a1.668,1.668,0,0,0,1.8-1.575,12.454,12.454,0,0,0-1.08-3.24C-60.57,21.735-60.795,21.33-61.785,21.33ZM-48.6,18c0-1.44-.855-1.89-1.53-1.89-.135,0-4.815.765-5.715.9a154.676,154.676,0,0,1-17.5,1.215c-.675,0-1.845.045-1.845,1.485a1.623,1.623,0,0,0,1.845,1.71,196.248,196.248,0,0,0,21.06-1.665C-49.77,19.35-48.6,19.17-48.6,18Zm21.915,13.815,16.02-1.035c.63-.045.9-.045.9.27,0,.4-1.935,3.375-4.9,6.57-2.115,2.2-2.16,2.295-2.16,2.97a1.98,1.98,0,0,0,2.025,1.8c1.17,0,2.61-1.71,3.87-3.15,2.295-2.7,6.57-8.1,6.57-10.125,0-2.475-2.52-2.3-4.275-2.205l-18.045,1.08V18.81c0-.765-.09-1.98-2.025-1.98-1.98,0-2.025,1.35-2.025,1.98v9.4l-9.27.585c-.99.045-1.98.36-1.98,1.89a1.82,1.82,0,0,0,2.205,1.98l9.045-.585V47.07c0,7.425,4.545,8.1,12.42,8.1,1.125,0,5.76-.045,10.8-.27,1.215-.045,2.61-.27,2.61-2.16a1.766,1.766,0,0,0-1.98-1.935c-.405,0-2.34.135-2.79.18-2.925.135-5.805.225-8.73.225-6.885,0-8.28-.36-8.28-4.77Zm65.925-2.7a2.023,2.023,0,0,0-1.71,1.17,52.375,52.375,0,0,1-6.75,8.145,47.968,47.968,0,0,1-21.2,12.195c-2.88.72-3.6.9-3.6,2.34a2.317,2.317,0,0,0,2.2,2.43c.99,0,9.54-1.845,18.54-8.145,9.18-6.39,14.76-14.76,14.76-16.065A2.317,2.317,0,0,0,39.24,29.115Zm-31-8.6a2.187,2.187,0,0,0-2.2,2.115c0,.9.63,1.305,1.3,1.62,7.245,3.105,7.335,3.15,9.45,4.41a4.82,4.82,0,0,0,2.115.855,2.235,2.235,0,0,0,1.98-2.3c0-.9,0-1.575-6.03-4.32C12.24,21.735,9.09,20.52,8.235,20.52Zm56.7-.18c-3.87,0-4.14.225-5.895,3.24a35.171,35.171,0,0,1-8.1,9.765c-1.125.945-1.62,1.35-1.62,2.2a2.224,2.224,0,0,0,2.07,2.07c1.305,0,4.455-3.2,5.94-4.905a110.886,110.886,0,0,1,14.31,9.09,36.7,36.7,0,0,1-14.49,10.08c-1.665.63-2.7,1.035-2.7,2.25a2.1,2.1,0,0,0,1.935,2.115c1.125,0,9-2.79,15.435-8.865A40.028,40.028,0,0,0,83.7,23.76c0-3.42-3.15-3.42-4.32-3.42Zm12.42,3.78c.855,0,1.89,0,1.89,1.215a21.573,21.573,0,0,1-1.08,4.77,35.445,35.445,0,0,1-4.14,8.46,115.182,115.182,0,0,0-14.31-8.73c.54-.765,2.835-4.32,3.33-4.95a1.919,1.919,0,0,1,1.8-.765Zm17.82,10.71a1.779,1.779,0,0,0-2.07,1.98,1.78,1.78,0,0,0,2.07,1.935h34.65a1.767,1.767,0,0,0,2.07-1.89,1.779,1.779,0,0,0-2.07-2.025Z" transform="translate(651.073 1784.473)" fill="#fff"/><path d="M-56.947-33.66v-2.97c0-.675-.18-1.665-1.8-1.665-1.8,0-1.8,1.26-1.8,1.665v2.97h-7.2c-2.835,0-4.14.9-4.14,4.14v3.6c0,.765.135,1.89,1.8,1.89a1.621,1.621,0,0,0,1.755-1.89v-2.97a1.265,1.265,0,0,1,1.44-1.44h16.11a1.279,1.279,0,0,1,1.44,1.44v2.97c0,.99.27,1.845,1.8,1.845,1.71,0,1.755-1.215,1.755-1.845v-3.6c0-3.195-1.26-4.14-4.14-4.14Zm5.67,11.43c.54,0,1.755,0,1.755-1.62s-1.215-1.62-1.755-1.62h-14.9a1.491,1.491,0,0,0-1.755,1.62,1.491,1.491,0,0,0,1.755,1.62ZM-85.207,2.115c0,.72.09,1.89,1.755,1.89,1.53,0,1.755-.945,1.755-1.89V-31.95c0-.945.405-1.485,1.44-1.485h2.79c.45,0,1.17,0,1.17.945A38.586,38.586,0,0,1-78.5-26.055c-.945,2.385-1.08,2.655-1.08,3.15a3.186,3.186,0,0,0,.72,1.845c2.3,3.555,2.88,6.075,2.88,8.595,0,3.15-1.08,3.15-2.835,3.15-1.215,0-2.025,0-2.025,1.8,0,1.62,1.17,1.935,2.16,1.935,2.025,0,2.97,0,3.96-.585,1.845-1.035,2.25-3.33,2.25-5.535a17.045,17.045,0,0,0-3.195-9.675c-.63-.855-.855-1.17-.855-1.575,0-.315.18-.765,1.17-2.97,1.035-2.34,2.52-5.85,2.52-8.01,0-2.97-2.16-2.97-4.365-2.97h-3.78c-3.285,0-4.23.855-4.23,4.185Zm31.185-16.29h7.56c.54,0,1.89,0,1.89-1.71a1.609,1.609,0,0,0-1.89-1.71h-24.3a1.641,1.641,0,0,0-1.935,1.71,1.641,1.641,0,0,0,1.935,1.71h5.445C-65.5-4.455-68.287-2.3-73.507.09c-.81.36-1.395.675-1.395,1.62a1.97,1.97,0,0,0,1.8,2.025A13.36,13.36,0,0,0-67.522.9c4.77-3.825,5.58-8.91,5.715-15.075h4.23V-.63c0,4.05,1.575,4.23,5.13,4.23,4.635,0,5.535,0,6.345-1.08.99-1.3,1.4-5.04,1.4-6.615a1.561,1.561,0,0,0-1.755-1.8,1.307,1.307,0,0,0-1.35.765c-.135.495-.36,3.015-.495,3.6C-48.622.135-48.622.135-51.322.135c-2.025,0-2.7,0-2.7-1.575Zm31.95-13.635a28.748,28.748,0,0,1-1.53,6.165c-2.34,6.255-5.67,8.64-9.225,11.025-.675.45-1.305.945-1.305,1.8A2.105,2.105,0,0,0-32.2-6.705c1.4,0,4.9-2.835,6.75-4.77,2.52-2.61,4.275-5.94,5.76-10.44A30.8,30.8,0,0,0-10.552-8.37c1.89,1.665,2.3,1.845,2.925,1.845A2.245,2.245,0,0,0-5.6-8.73c0-.675-.36-1.08-.99-1.62-3.15-2.61-9.63-8.055-11.025-17.46h10.53a2.015,2.015,0,0,1,2.295,2.25V-2.655c0,1.215-.495,2.115-1.755,2.25-.675.09-4.005,0-4.725,0-1.035,0-2.3.18-2.3,1.845a1.879,1.879,0,0,0,.99,1.8c.45.18.81.18,5,.18,3.735,0,6.615-.27,6.615-6.21V-25.11c0-5-1.575-6.21-6.21-6.21h-10.71v-4.815c0-1.485-.72-1.89-2.115-1.89a1.628,1.628,0,0,0-1.8,1.89v4.815h-10.71c-4.68,0-6.21,1.26-6.21,6.21v27c0,1.485.675,1.935,2.025,1.935A1.673,1.673,0,0,0-34.9,1.89V-25.56a2,2,0,0,1,2.3-2.25ZM7.583-25.38c-1.98.27-2.97.405-2.97,1.98,0,.855.36,2.025,1.665,2.025.585,0,7.515-1.125,8.91-1.35-.54,2.2-3.06,11.88-7.92,19.8C6.413-1.53,6.143-1.125,6.143-.4c0,1.395,1.53,1.89,2.295,1.89,1.215,0,2.3-2.07,3.465-4.275a90.294,90.294,0,0,0,7.38-20.385c.675,0,1.53-.09,2.2-.09,5.49,0,6.21,2.88,6.21,8.01,0,2.88-.315,7.56-1.4,10.125-.405.99-1.305,2.7-5.535,2.7-.315,0-1.845-.18-2.2-.18-1.125,0-1.53,1.035-1.53,1.89,0,1.575.99,2.16,4.32,2.16,7.11,0,10.26-3.51,10.26-16.56,0-5.985-.585-12.15-11.43-11.7.45-2.25,1.53-7.065,1.53-8.28,0-1.125-1.08-1.575-2.115-1.575-1.71,0-1.845,1.125-2.025,2.115-.585,3.735-.675,4.185-1.485,8.055Zm28.08-10.845a1.828,1.828,0,0,0-2.025,1.755c0,.36.09.675.72,1.3a26.781,26.781,0,0,1,3.78,4.32c.945,1.395,1.17,1.665,1.935,1.665a1.792,1.792,0,0,0,1.755-1.8c0-.585-.135-.99-1.665-2.925C38.858-33.525,36.743-36.045,35.662-36.225Zm-4.14,5.4a1.79,1.79,0,0,0-1.845,1.62c0,.585.09.63,1.575,2.2a28.634,28.634,0,0,1,7.02,13.41c.405,1.71.585,2.43,1.89,2.43.4,0,2.25-.18,2.25-1.935,0-1.26-1.305-6.3-4.59-11.43C36.608-26.415,33.233-30.825,31.522-30.825Zm9.54-9.135A1.807,1.807,0,0,0,39.037-38.2c0,.36.045.675.675,1.3a24.794,24.794,0,0,1,3.825,4.32c.945,1.35,1.17,1.665,1.935,1.665a1.824,1.824,0,0,0,1.755-1.8c0-.585-.135-.99-1.665-2.925C44.257-37.305,42.142-39.825,41.063-39.96ZM57.757-17.28c.99-1.935,4.14-8.055,7.92-15.165.99-1.845.99-2.07.99-2.43a2.123,2.123,0,0,0-2.16-1.755c-1.08,0-1.485.675-2.565,2.835-4.275,8.5-11.025,22.185-15.3,30.69-.585,1.215-.72,1.44-.72,2.07a2.055,2.055,0,0,0,2.16,1.8c.72,0,1.08-.315,1.71-1.4.63-1.17,3.375-6.93,4.1-8.19,4.725-8.595,10.44-8.73,11.43-8.73a2.592,2.592,0,0,1,2.88,2.745c0,1.35-1.125,7.92-1.125,9.405,0,6.705,5.76,6.705,6.795,6.705,8.325,0,11.88-9.945,11.88-11.16a1.972,1.972,0,0,0-2.07-1.8c-.99,0-1.215.495-1.935,2.16-2.475,5.67-5.445,7.02-7.65,7.02A2.806,2.806,0,0,1,70.942-5.4c0-.72.315-2.79.585-4.905.315-2.115.585-4.23.585-4.995,0-3.87-2.565-5.94-6.03-5.94C61.942-21.24,58.927-18.36,57.757-17.28Zm-93.8,70.605a37.658,37.658,0,0,0,1.845-5.31c0-.9-.675-1.215-1.44-1.4h2.655c3.285,0,3.78-1.53,3.78-4.095V39.42c0-3.195-.945-4.05-4.1-4.05H-56.61c-3.24,0-4.1.945-4.1,4.05v3.105c0,2.7.54,4.095,3.78,4.095h2.7c-.72.135-1.305.54-1.305,1.26a44.627,44.627,0,0,0,1.305,4.365,1.657,1.657,0,0,0,1.44,1.08H-63.09c-1.4,0-1.89.585-1.89,1.8,0,1.665,1.4,1.665,1.89,1.665h36.18c1.305,0,1.845-.54,1.845-1.8,0-1.62-1.26-1.665-1.845-1.665Zm-16.02,0c.36-.045,1.485-.225,1.485-1.26a23.457,23.457,0,0,0-1.485-4.725,1.9,1.9,0,0,0-1.125-.72h16.47c-.9.27-1.125.72-1.395,1.845a36.3,36.3,0,0,1-1.665,4.86ZM-32.9,42.21a1.267,1.267,0,0,1-1.44,1.44H-55.62c-1.26,0-1.4-.81-1.4-1.44V39.78c0-.9.36-1.44,1.4-1.44h21.285c1.035,0,1.44.495,1.44,1.44ZM-59.22,16.74c-.99,0-1.71.45-1.71,1.485,0,.99.54,1.53,1.71,1.53h8.685c.405,0,.9.09.9.63,0,.315-.27.585-.9,1.215a37.508,37.508,0,0,1-4.545,3.87A40.811,40.811,0,0,0-58.9,21.825a1.832,1.832,0,0,0-1.26-.54,1.82,1.82,0,0,0-1.8,1.71,1.476,1.476,0,0,0,.63,1.17c2.34,2.2,2.565,2.43,3.33,3.24A45.926,45.926,0,0,1-64.53,30.51c-.9.4-1.4.765-1.4,1.71a2,2,0,0,0,1.935,2.16c.81,0,4.32-1.62,8.955-4.68-.315,1.53.495,2.115,1.62,2.115H-36.54c1.08,0,1.8-.315,1.71-1.845,3.69,2.43,7.425,4.32,8.82,4.32a2.08,2.08,0,0,0,1.845-2.16c0-1.17-.765-1.44-1.4-1.665a37.767,37.767,0,0,1-6.12-2.835c1.71-1.44,3.51-3.375,3.96-3.825,1.53-1.665,1.53-1.89,1.53-2.3a1.943,1.943,0,0,0-1.935-1.755c-.675,0-.81.135-1.8,1.26A49.093,49.093,0,0,1-34.6,25.83a29.917,29.917,0,0,1-2.925-2.3c1.08-.945,2.43-2.385,3.78-3.78,1.035-1.125,1.215-1.485,1.215-1.98a1.863,1.863,0,0,0-1.845-1.71c-.72,0-.765.045-2.34,1.89a44.694,44.694,0,0,1-3.24,3.285c-.54-.54-2.745-3.15-3.285-3.645-.945-.855-1.71-.855-3.375-.855Zm5.67,11.88a41.965,41.965,0,0,0,8.505-8.19,43.836,43.836,0,0,0,8.28,8.145h-16.6Zm40.23,23.265c-1.125.225-6.66,1.17-7.11,1.35a1.751,1.751,0,0,0-.855,1.575c0,.09.045,1.755,1.575,1.755a94.034,94.034,0,0,0,13.995-3.1,1.739,1.739,0,0,0,1.575,1.8c1.125,0,3.825-1.935,5.13-2.835,4.05-2.88,4.05-3.33,4.05-3.915,0-.81-.54-1.755-1.4-1.755a1.736,1.736,0,0,0-.99.45,58.93,58.93,0,0,1-6.885,4.5c0-.45-.045-1.53-1.26-1.53a4.82,4.82,0,0,0-1.35.225c-1.3.36-2.655.675-3.285.81V38.835h4.86c1.305,0,1.665-.675,1.665-1.62s-.45-1.53-1.665-1.53h-4.86V30.87H-6.7c.675,0,1.665-.09,1.665-1.575A1.44,1.44,0,0,0-6.7,27.72H-16.92a1.445,1.445,0,0,0-1.665,1.62,1.434,1.434,0,0,0,1.665,1.53h3.6v4.815h-5.85c-1.08,0-1.8.405-1.8,1.575s.765,1.575,1.8,1.575h5.85Zm2.16-32.04c.27,0,.36.09.945.9C-8.82,22.59-5.85,26.5-4.455,26.5a1.932,1.932,0,0,0,1.71-1.845,1.675,1.675,0,0,0-.54-1.125,31.965,31.965,0,0,1-4.185-4.59c-2.16-2.88-2.3-3.06-3.735-3.06A2.661,2.661,0,0,0-13.77,17.46a29.791,29.791,0,0,1-5.175,6.21c-2.25,1.98-2.43,2.16-2.43,2.925,0,.675.63,2.025,1.8,2.025,1.575,0,5.085-4.32,7.47-7.83C-11.52,19.935-11.475,19.845-11.16,19.845ZM9.81,43.515a25.191,25.191,0,0,0,5.76,9.18c1.53,1.62,2.79,2.655,3.6,2.655a2,2,0,0,0,1.8-1.98c0-.72-.27-.945-1.125-1.62a28.805,28.805,0,0,1-5.9-6.255,39.861,39.861,0,0,0,3.96-3.915c1.4-1.53,2.025-2.25,2.025-3.15a1.8,1.8,0,0,0-1.71-1.665c-.675,0-.81.18-2.07,1.71a35.12,35.12,0,0,1-3.96,4.1A29.581,29.581,0,0,1,9.81,35.82V34.65h9.63A1.418,1.418,0,0,0,21.1,33.075a1.38,1.38,0,0,0-1.53-1.575H17.37V21.465c0-2.88-.945-4.14-4.005-4.14H-.315c-.765,0-1.665.18-1.665,1.575A1.418,1.418,0,0,0-.315,20.475H12.42c1.035,0,1.44.54,1.44,1.485v2.52H.405a1.389,1.389,0,0,0-1.62,1.53A1.376,1.376,0,0,0,.405,27.5H13.86v3.96H-2.2c-.54,0-1.665,0-1.665,1.62A1.418,1.418,0,0,0-2.2,34.65h8.55V52.2c0,.9-.27,1.44-1.125,1.575-.4.045-2.3-.045-2.7-.045-.99,0-2.07,0-2.07,1.8,0,1.89,1.26,1.89,2.79,1.89,5.22.045,6.57.045,6.57-4.23ZM-.81,36.63c-.405,0-1.575.5-1.575,1.53a2.739,2.739,0,0,0,.63,1.44c.315.45,1.98,2.61,2.3,3.105.765,1.215,1.08,1.71,1.755,1.71A1.808,1.808,0,0,0,4.1,42.75c0-.81-1.305-2.565-1.98-3.465C.045,36.63-.27,36.63-.81,36.63Zm-17.1,4.365a1.456,1.456,0,0,0-1.62,1.44c0,.135.54,3.96.585,4.725.27,2.835.315,3.24,1.62,3.24a1.566,1.566,0,0,0,1.755-1.665,47.361,47.361,0,0,0-.72-5.535C-16.56,41.85-16.74,40.995-17.91,40.995Zm12.465-.36c-1.08,0-1.17.54-1.485,2.25-.135.81-1.125,4.5-1.125,4.86,0,.99,1.08,1.26,1.575,1.26.99,0,1.215-.72,1.44-1.53a45.315,45.315,0,0,0,1.3-5.535C-3.735,40.68-5.175,40.635-5.445,40.635ZM43.02,44.19H29.565a1.646,1.646,0,1,0,0,3.285H43.02V52.83H26.01a1.76,1.76,0,1,0,0,3.51H64.035a1.757,1.757,0,1,0,0-3.51H46.845V47.475H60.48c.54,0,1.8-.045,1.8-1.62,0-1.53-1.08-1.665-1.8-1.665H46.845V39.06c6.48-.36,7.785-.405,10.4-.675.36.36,2.07,2.25,2.25,2.385a1.784,1.784,0,0,0,1.215.54,2.206,2.206,0,0,0,1.98-1.98c0-.585-.09-.765-2.16-2.835a68.268,68.268,0,0,0-5.985-5.13,2.6,2.6,0,0,0-1.305-.495,1.8,1.8,0,0,0-1.71,1.71,1.357,1.357,0,0,0,.63,1.17c.315.315,1.845,1.62,2.16,1.89-8.415.45-8.64.45-15.885.675a66.794,66.794,0,0,0,3.6-6.165H58.455c.54,0,1.71-.045,1.71-1.575,0-1.4-.9-1.53-1.71-1.53H31.635c-.495,0-1.755,0-1.755,1.53S31.1,30.15,31.635,30.15h6.3a51.483,51.483,0,0,1-3.69,6.255c-.855,0-5.58.09-5.94.135a1.411,1.411,0,0,0-1.08,1.53c0,1.755,1.305,1.755,1.935,1.755.54,0,8.55-.225,13.86-.54Zm3.825-24.615V17.37c0-1.26-.675-1.62-2.025-1.62-1.755,0-1.845,1.08-1.845,1.62v2.205H30.1c-3.735,0-4.86,1.08-4.86,4.9v3.645c0,1.26.495,1.89,1.98,1.89a1.627,1.627,0,0,0,1.8-1.845V24.84c0-1.305.585-1.935,1.89-1.935h28.08A1.682,1.682,0,0,1,60.93,24.84v3.285c0,1.44.675,1.89,2.025,1.89a1.62,1.62,0,0,0,1.8-1.89V24.48c0-3.915-1.17-4.9-4.86-4.9Z" transform="translate(217.277 2038.14)" fill="#fff"/><path d="M-92.205-25.38c-1.98.27-2.97.405-2.97,1.98,0,.855.36,2.025,1.665,2.025.585,0,7.515-1.125,8.91-1.35-.54,2.2-3.06,11.88-7.92,19.8-.855,1.395-1.125,1.8-1.125,2.52,0,1.395,1.53,1.89,2.295,1.89,1.215,0,2.295-2.07,3.465-4.275A90.294,90.294,0,0,0-80.5-23.175c.675,0,1.53-.09,2.2-.09,5.49,0,6.21,2.88,6.21,8.01,0,2.88-.315,7.56-1.4,10.125-.4.99-1.305,2.7-5.535,2.7-.315,0-1.845-.18-2.205-.18-1.125,0-1.53,1.035-1.53,1.89,0,1.575.99,2.16,4.32,2.16,7.11,0,10.26-3.51,10.26-16.56,0-5.985-.585-12.15-11.43-11.7.45-2.25,1.53-7.065,1.53-8.28,0-1.125-1.08-1.575-2.115-1.575-1.71,0-1.845,1.125-2.025,2.115-.585,3.735-.675,4.185-1.485,8.055Zm28.08-10.845A1.828,1.828,0,0,0-66.15-34.47c0,.36.09.675.72,1.3a26.782,26.782,0,0,1,3.78,4.32c.945,1.395,1.17,1.665,1.935,1.665a1.792,1.792,0,0,0,1.755-1.8c0-.585-.135-.99-1.665-2.925C-60.93-33.525-63.045-36.045-64.125-36.225Zm-4.14,5.4A1.79,1.79,0,0,0-70.11-29.2c0,.585.09.63,1.575,2.2a28.634,28.634,0,0,1,7.02,13.41c.405,1.71.585,2.43,1.89,2.43.4,0,2.25-.18,2.25-1.935,0-1.26-1.305-6.3-4.59-11.43C-63.18-26.415-66.555-30.825-68.265-30.825Zm9.54-9.135A1.807,1.807,0,0,0-60.75-38.2c0,.36.045.675.675,1.3a24.794,24.794,0,0,1,3.825,4.32c.945,1.35,1.17,1.665,1.935,1.665a1.824,1.824,0,0,0,1.755-1.8c0-.585-.135-.99-1.665-2.925C-55.53-37.305-57.645-39.825-58.725-39.96ZM-42.03-17.28c.99-1.935,4.14-8.055,7.92-15.165.99-1.845.99-2.07.99-2.43a2.123,2.123,0,0,0-2.16-1.755c-1.08,0-1.485.675-2.565,2.835-4.275,8.5-11.025,22.185-15.3,30.69-.585,1.215-.72,1.44-.72,2.07A2.055,2.055,0,0,0-51.7.765c.72,0,1.08-.315,1.71-1.4.63-1.17,3.375-6.93,4.1-8.19,4.725-8.595,10.44-8.73,11.43-8.73a2.592,2.592,0,0,1,2.88,2.745c0,1.35-1.125,7.92-1.125,9.405,0,6.705,5.76,6.705,6.795,6.705,8.325,0,11.88-9.945,11.88-11.16a1.972,1.972,0,0,0-2.07-1.8c-.99,0-1.215.495-1.935,2.16-2.475,5.67-5.445,7.02-7.65,7.02A2.806,2.806,0,0,1-28.845-5.4c0-.72.315-2.79.585-4.905.315-2.115.585-4.23.585-4.995,0-3.87-2.565-5.94-6.03-5.94C-37.845-21.24-40.86-18.36-42.03-17.28Zm52.56-6.255c-.18,7.29-.81,15.795-10.3,21.96C-1.35-.54-1.575-.4-1.575.4a2.19,2.19,0,0,0,2.16,2.16c1.485,0,5.76-3.015,8.64-6.7,4.905-6.3,5.175-12.735,5.49-19.395h10.53a1.725,1.725,0,0,0,1.935-1.98,1.736,1.736,0,0,0-1.935-1.935H.54c.765-1.53,2.97-6.03,2.97-7.29,0-1.035-1.17-1.665-2.3-1.665-1.08,0-1.485.63-1.845,1.53A61.3,61.3,0,0,1-8.865-19.8C-10.8-17.325-10.98-17.1-10.98-16.6a2.183,2.183,0,0,0,2.16,1.98A2.942,2.942,0,0,0-6.7-15.975a53.208,53.208,0,0,0,5.175-7.56Zm7.38-15.3a1.338,1.338,0,0,0-.54-.09,1.808,1.808,0,0,0-1.89,1.755c0,.4.27.72.81,1.575a23.849,23.849,0,0,1,2.385,4.5c.63,1.575.855,2.115,1.89,2.115a1.866,1.866,0,0,0,1.8-1.8C22.365-31.725,19.35-38.25,17.91-38.835Zm7.47-1.035a1.246,1.246,0,0,0-.585-.135A1.791,1.791,0,0,0,22.95-38.34c0,.45.135.675.765,1.62a25.705,25.705,0,0,1,2.295,4.59c.63,1.62.855,2.115,1.89,2.115a1.835,1.835,0,0,0,1.8-1.8C29.7-32.85,26.73-39.33,25.38-39.87ZM26.145,1.3c1.215,0,11.16-4.5,18.72-13.23A50.7,50.7,0,0,0,55.8-33.66c0-1.4-1.53-1.935-2.34-1.935-1.4,0-1.665,1.08-2.3,3.285A45.922,45.922,0,0,1,27.36-3.555c-3.24,1.62-3.42,1.71-3.42,2.7A2.18,2.18,0,0,0,26.145,1.3Zm31.68-5.9c-1.08.135-2.16.27-2.16,1.845,0,.225,0,2.115,1.8,2.115.27,0,.36-.045,1.125-.135L87.885-4.9C89.01-2.7,89.1-2.43,90.135-.135c.36.72.72,1.485,1.8,1.485a2.148,2.148,0,0,0,2.25-1.89c0-1.35-3.51-8.325-7.6-14.715-3.33-5.13-3.69-5.13-4.545-5.13a1.924,1.924,0,0,0-2.07,1.8,3.32,3.32,0,0,0,.855,1.89A82.417,82.417,0,0,1,86.04-8.37L66.42-5.715c3.015-6.66,10.89-27.045,10.89-28.62,0-1.17-1.53-1.755-2.475-1.755-1.215,0-1.35.36-2.385,3.42C71.325-29.3,67.635-18.54,61.83-5.13ZM-41.31,36.315a19.88,19.88,0,0,0,.36-3.555v-2.7h10.62a1.514,1.514,0,0,0,1.755-1.62,1.494,1.494,0,0,0-1.755-1.575H-48.645c1.08-2.25,1.17-2.475,1.17-2.97a1.735,1.735,0,0,0-1.89-1.665,1.673,1.673,0,0,0-1.53,1.215,25.523,25.523,0,0,1-4.545,7.29c-1.62,1.755-1.8,1.935-1.8,2.52a2.083,2.083,0,0,0,1.98,1.89,2.162,2.162,0,0,0,1.485-.81A25.5,25.5,0,0,0-50.49,30.06h6.03v2.79a25.948,25.948,0,0,1-.315,3.465H-56.79c-.765,0-1.71.135-1.71,1.62,0,1.575,1.17,1.575,1.71,1.575h10.935c-2.88,5.94-7.875,7.74-10.845,8.595-.72.225-1.4.495-1.4,1.485,0,.63.4,2.025,1.755,2.025,1.035,0,9.675-2.3,13.725-11.205,3.33,7.2,12.915,11.25,14.4,11.25,1.44,0,1.8-1.485,1.8-2.115a1.214,1.214,0,0,0-.63-1.215c-.27-.135-1.71-.675-2.07-.765a20.749,20.749,0,0,1-10.35-8.055h11.25c.495,0,1.71,0,1.71-1.575a1.475,1.475,0,0,0-1.71-1.62ZM-58.23,17.73c-4.23,0-5.85,1.485-5.85,5.85V51.03c0,4.41,1.71,5.805,5.85,5.805H-26.1a1.609,1.609,0,0,0,1.89-1.71A1.612,1.612,0,0,0-26.1,53.46H-57.78c-1.89,0-2.565-.99-2.565-2.61V23.715c0-1.71.765-2.61,2.565-2.61H-27c.495,0,1.89,0,1.89-1.665A1.624,1.624,0,0,0-27,17.73ZM15.93,38.475c2.565,1.665,2.88,1.665,3.24,1.665a1.878,1.878,0,0,0,1.755-1.935,1.349,1.349,0,0,0-.9-1.305c-.54-.27-3.06-1.575-3.645-1.89.81-.855,2.7-2.88,2.7-3.69a1.617,1.617,0,0,0-1.62-1.4,1.469,1.469,0,0,0-1.17.63,35.669,35.669,0,0,1-2.3,2.79,20.818,20.818,0,0,1-4.14-4.275H18.99c1.08,0,1.62-.405,1.62-1.53,0-1.44-1.08-1.44-1.62-1.44H4.41a4.316,4.316,0,0,0,.315-1.26c0-.99-1.215-1.35-1.845-1.35a1.312,1.312,0,0,0-1.17.63c-.135.27-.675,1.665-.81,1.98H-8.865c-1.17,0-1.62.495-1.62,1.53,0,1.305,1.035,1.44,1.62,1.44h8.1A21.856,21.856,0,0,1-4.41,33.255C-5.49,32.13-6.8,30.87-6.975,30.69a1.731,1.731,0,0,0-1.17-.585,1.648,1.648,0,0,0-1.62,1.44c0,.5.315.765,3.06,3.555-.45.27-2.745,1.71-3.285,2.025a1.489,1.489,0,0,0-.855,1.305,1.731,1.731,0,0,0,1.575,1.8c.315,0,.63,0,2.43-1.17v4.77c0,2.475.765,3.96,3.96,3.96H2.655v4.95c0,.945-.27,1.35-.945,1.485-.45.09-2.475,0-2.97,0s-1.62,0-1.62,1.485a1.623,1.623,0,0,0,.9,1.575c.36.135.4.18,2.7.18,4.005,0,5.625,0,5.625-4.23V47.79H11.97c3.375,0,3.96-1.71,3.96-3.96Zm-19.305.045c0-.945.4-1.485,1.44-1.485h12.96A1.312,1.312,0,0,1,12.51,38.52v1.35H-3.375Zm2.115-4.005A31.957,31.957,0,0,0,2.925,29.07h3.51a20.871,20.871,0,0,0,4.41,5.445ZM12.51,42.3v1.44a1.3,1.3,0,0,1-1.485,1.485H-1.935c-1.035,0-1.44-.54-1.44-1.485V42.3ZM-15.12,24.39V36.9a47.535,47.535,0,0,1-5.31,3.1,1.715,1.715,0,0,0-1.08,1.62c0,.72.36,2.07,1.53,2.07,1.08,0,3.33-1.8,4.725-2.925-.675,6.615-2.16,9-4.86,13.185A2.665,2.665,0,0,0-20.7,55.44a2,2,0,0,0,1.935,1.845c.72,0,1.215-.135,2.925-2.925,4.185-6.84,4.185-14.625,4.185-19.08V24.7A1.79,1.79,0,0,1-9.63,22.68H19.08c.675,0,1.8-.09,1.8-1.575s-1.305-1.53-1.8-1.53H4.14V17.37c0-1.35-.855-1.665-1.935-1.665-1.53,0-1.8.945-1.8,1.665v2.205h-10.71C-13.68,19.575-15.12,20.745-15.12,24.39Zm-4.32-1.17a1.7,1.7,0,0,0-1.71,1.53,3.244,3.244,0,0,0,.315,1.215c.675,1.71.9,2.115,1.215,3.105,1.08,3.15,1.08,3.285,2.025,3.285.63,0,2.025-.36,2.025-1.665a34.5,34.5,0,0,0-1.935-5.4C-18.135,23.76-18.495,23.22-19.44,23.22ZM-1.89,50.76a1.7,1.7,0,0,0-1.62-1.755c-.54,0-.585,0-2.52,1.4a28.7,28.7,0,0,1-4.275,2.475c-2.25,1.08-2.43,1.17-2.43,2.025a1.636,1.636,0,0,0,1.575,1.71c1.125,0,3.96-1.71,5.265-2.475C-4.635,53.37-1.89,51.705-1.89,50.76Zm12.195-.09c0,1.035,2.7,2.7,4.05,3.51,1.035.63,3.96,2.34,4.95,2.34a1.878,1.878,0,0,0,1.755-1.89,1.228,1.228,0,0,0-.9-1.215,38.825,38.825,0,0,1-6.3-3.465c-1.4-1.035-1.4-1.035-1.845-1.035A1.737,1.737,0,0,0,10.305,50.67ZM43.02,44.19H29.565a1.646,1.646,0,1,0,0,3.285H43.02V52.83H26.01a1.76,1.76,0,1,0,0,3.51H64.035a1.757,1.757,0,1,0,0-3.51H46.845V47.475H60.48c.54,0,1.8-.045,1.8-1.62,0-1.53-1.08-1.665-1.8-1.665H46.845V39.06c6.48-.36,7.785-.405,10.4-.675.36.36,2.07,2.25,2.25,2.385a1.784,1.784,0,0,0,1.215.54,2.206,2.206,0,0,0,1.98-1.98c0-.585-.09-.765-2.16-2.835a68.268,68.268,0,0,0-5.985-5.13,2.6,2.6,0,0,0-1.305-.495,1.8,1.8,0,0,0-1.71,1.71,1.357,1.357,0,0,0,.63,1.17c.315.315,1.845,1.62,2.16,1.89-8.415.45-8.64.45-15.885.675a66.794,66.794,0,0,0,3.6-6.165H58.455c.54,0,1.71-.045,1.71-1.575,0-1.4-.9-1.53-1.71-1.53H31.635c-.495,0-1.755,0-1.755,1.53S31.1,30.15,31.635,30.15h6.3a51.483,51.483,0,0,1-3.69,6.255c-.855,0-5.58.09-5.94.135a1.411,1.411,0,0,0-1.08,1.53c0,1.755,1.305,1.755,1.935,1.755.54,0,8.55-.225,13.86-.54Zm3.825-24.615V17.37c0-1.26-.675-1.62-2.025-1.62-1.755,0-1.845,1.08-1.845,1.62v2.205H30.1c-3.735,0-4.86,1.08-4.86,4.9v3.645c0,1.26.495,1.89,1.98,1.89a1.627,1.627,0,0,0,1.8-1.845V24.84c0-1.305.585-1.935,1.89-1.935h28.08A1.682,1.682,0,0,1,60.93,24.84v3.285c0,1.44.675,1.89,2.025,1.89a1.62,1.62,0,0,0,1.8-1.89V24.48c0-3.915-1.17-4.9-4.86-4.9Z" transform="translate(329.041 1757.849)" fill="#fff"/><path d="M-63.9-15.21C-66.2-5.895-70.785-1.98-72.855-.225a2.2,2.2,0,0,0-1.035,1.71A1.945,1.945,0,0,0-72,3.33c1.035,0,2.835-1.89,3.87-2.97a30.419,30.419,0,0,0,5.805-9.585H-51.75c.45,0,.63.225.63.585,0,1.305-2.43,3.555-3.87,4.68a17.612,17.612,0,0,1-3.42-3.465c-.54-.675-.9-1.035-1.575-1.035a1.583,1.583,0,0,0-1.62,1.44c0,1.035,2.3,3.6,3.825,4.9A26.238,26.238,0,0,1-65.07.54c-.855.18-1.62.4-1.62,1.53a1.654,1.654,0,0,0,1.575,1.755A25.421,25.421,0,0,0-55.17-.09c3.735,2.565,7.335,3.69,8.1,3.69a1.982,1.982,0,0,0,1.935-2.07c0-1.08-.72-1.35-1.665-1.62A27.523,27.523,0,0,1-52.245-2.2c1.98-1.665,4.86-4.77,4.86-7.155,0-2.61-2.205-2.7-3.42-2.7H-61.29a31.792,31.792,0,0,0,.855-3.15H-46.71c1.44,0,1.71-.765,1.71-1.53,0-1.035-.54-1.575-1.71-1.575h-13.1c.225-1.35.315-2.3.45-3.555H-47.7c1.26,0,1.71-.63,1.71-1.53,0-.945-.5-1.53-1.71-1.53h-1.8c.81-1.44,3.51-5.985,3.51-7.02a1.747,1.747,0,0,0-1.845-1.53c-.99,0-1.125.315-1.935,2.16a52.1,52.1,0,0,1-3.285,6.39h-14.76c-1.26,0-1.71.63-1.71,1.53,0,1.125.675,1.53,1.71,1.53h5.04c-.135,1.215-.225,2.115-.45,3.555h-5.22c-1.53,0-1.71.9-1.71,1.575,0,.81.36,1.53,1.71,1.53ZM-80.19,2.2c0,.5,0,1.71,1.575,1.71,1.485,0,1.62-.99,1.62-1.71V-16.02c.54-.045,2.88-.27,3.33-.315.495,1.8.675,2.43,1.62,2.43.45,0,1.62-.27,1.62-1.4a46.379,46.379,0,0,0-1.845-5.76c-.585-1.575-.81-2.25-1.755-2.25a1.337,1.337,0,0,0-1.4,1.215,16.559,16.559,0,0,0,.855,2.835c-1.845.135-5.04.27-5.76.315C-78.705-21.285-72-31.275-72-32.58a1.847,1.847,0,0,0-1.935-1.575c-.765,0-1.08.4-1.53,1.3-1.575,2.925-2.205,4.14-4,7.065a31.776,31.776,0,0,0-2.3-2.2c1.53-2.61,3.195-5.9,3.24-5.985a7.747,7.747,0,0,0,.99-2.565c0-.945-1.08-1.53-1.89-1.53-.99,0-1.08.225-2.07,2.43-.09.27-1.485,3.42-2.7,5.58-.63-.5-.855-.72-1.35-.72a1.723,1.723,0,0,0-1.575,1.755c0,.765.135.9,2.16,2.655,1.125.99,2.925,2.745,3.645,3.555-.4.63-2.205,3.42-2.565,4-2.385.045-3.42.045-3.42,1.665,0,1.755,1.125,1.755,1.8,1.755.72,0,2.79-.18,5.31-.36Zm-3.51-14.94c-1.215,0-1.44.63-1.53,1.44a43.513,43.513,0,0,1-.81,6.345c-.135.72-1.08,3.96-1.08,4.365A1.552,1.552,0,0,0-85.455.9C-84.24.9-84.06.045-83.61-1.62A52.433,52.433,0,0,0-82.26-11.2C-82.26-12.15-82.71-12.735-83.7-12.735Zm10.4.045c-.585,0-1.71,0-1.71,1.26a6.645,6.645,0,0,0,.135,1.215c.54,2.79.585,3.105.81,4.86.27,2.2.36,2.79,1.62,2.79A1.39,1.39,0,0,0-70.875-4.05a47.679,47.679,0,0,0-.72-5.085C-72.18-12.1-72.315-12.69-73.305-12.69Zm26.865-23.4a1.733,1.733,0,0,0-1.62-1.89c-.225,0-4.32.81-5.13.945A130.185,130.185,0,0,1-68.9-35.82a1.457,1.457,0,0,0-1.665,1.485,1.633,1.633,0,0,0,1.845,1.8c1.17,0,8.6-.315,16.02-1.26C-46.935-34.56-46.44-34.92-46.44-36.09Zm-20.385,4.05c-.4,0-1.665.45-1.665,1.53a2.5,2.5,0,0,0,.27.99c.225.54.675,1.575.81,1.935.675,1.755.855,2.2,1.935,2.2a1.7,1.7,0,0,0,1.8-1.53A12.791,12.791,0,0,0-64.8-30.06C-65.52-31.59-65.7-32.04-66.825-32.04Zm8.37-.675A1.721,1.721,0,0,0-60.3-31.23a28.744,28.744,0,0,0,1.4,3.87c.36,1.08.675,1.89,1.8,1.89A1.657,1.657,0,0,0-55.35-27a17.4,17.4,0,0,0-1.26-3.735C-57.24-32.175-57.42-32.715-58.455-32.715Zm29.2-.585c6.255-1.17,6.39-1.665,6.39-2.745a1.689,1.689,0,0,0-1.53-1.8c-.45,0-3.24.765-3.87.9a63.538,63.538,0,0,1-11.385,1.4c-.54.045-1.665.135-1.665,1.575a1.608,1.608,0,0,0,1.755,1.8c1.71,0,4.995-.4,6.75-.585v6.525H-39.78c-.9,0-1.89.27-1.89,1.755a1.612,1.612,0,0,0,1.89,1.665h6.93A40.8,40.8,0,0,1-41.04-9.09a2.578,2.578,0,0,0-.9,1.755A2.148,2.148,0,0,0-39.87-5.31c.765,0,1.215-.45,2.2-1.8a48.236,48.236,0,0,0,4.86-8.685V2.43c0,.855.225,1.755,1.755,1.755,1.755,0,1.8-1.215,1.8-1.755V-16.785a36.073,36.073,0,0,0,2.97,4.9c1.35,1.845,1.665,2.07,2.3,2.07a2.12,2.12,0,0,0,1.8-2.16,1.86,1.86,0,0,0-.765-1.44,37.552,37.552,0,0,1-6.3-8.775v-.63h5.535a1.624,1.624,0,0,0,1.89-1.71,1.624,1.624,0,0,0-1.89-1.71H-29.25Zm27.72,2.925c0-3.78-1.485-4.95-4.995-4.95H-15.39c-3.51,0-4.95,1.215-4.95,4.95V-2.2c0,3.915,1.575,4.95,4.95,4.95h8.865c3.42,0,4.995-1.08,4.995-4.95ZM-5.175-2.835a1.816,1.816,0,0,1-2.07,2.07h-7.47a1.8,1.8,0,0,1-2.025-2.07v-26.91c0-1.395.63-2.07,2.025-2.07h7.47a1.814,1.814,0,0,1,2.07,2.07ZM25.65-23.8c-.18,4.14-.36,8.82-2.25,12.96A23.763,23.763,0,0,1,15.615-1.98C13.86-.81,13.5-.54,13.5.27a2.246,2.246,0,0,0,2.115,2.16c1.26,0,4.41-2.43,6.03-3.915,7.47-7.02,7.785-14.8,8.1-22.32H40.41a1.727,1.727,0,0,0,1.98-1.935,1.749,1.749,0,0,0-1.98-1.935H15.66c.675-1.3,2.97-6.03,2.97-7.335,0-1.125-1.305-1.71-2.25-1.71-1.215.045-1.44.585-2.16,2.385A59.067,59.067,0,0,1,5.985-19.62c-1.62,2.07-1.8,2.3-1.8,2.88A2.078,2.078,0,0,0,6.3-14.85a2.015,2.015,0,0,0,1.62-.81A44.19,44.19,0,0,0,13.635-23.8ZM49.14-33.03c-.72,0-2.025.045-2.025,2.07a1.764,1.764,0,0,0,2.025,1.935H78.615c.315,0,.72,0,.72.315,0,.675-3.285,5.22-6.39,8.415-1.98,2.07-2.205,2.3-2.205,2.97a2.177,2.177,0,0,0,2.025,2.07c1.4,0,4.365-3.555,6.075-5.67,1.53-1.845,6.345-8.055,6.345-9.945,0-.315,0-2.16-3.015-2.16ZM53.55,2.2c1.4,0,5.9-2.835,8.865-6.66,4.86-6.345,4.86-15.885,4.86-16.38,0-1.71-.63-2.385-2.205-2.385s-1.845.945-1.935,1.575c-.045.315-.09,1.935-.09,2.3-.72,11.34-6.525,15.255-9.9,17.37C51.93-1.215,51.39-.9,51.39.045A2.241,2.241,0,0,0,53.55,2.2ZM-51.075,27.09c.81,0,1.755-.135,1.755-1.62,0-1.62-1.215-1.62-1.755-1.62H-64.35c-.54,0-1.71,0-1.71,1.62a1.461,1.461,0,0,0,1.71,1.62Zm13.59-7.38c.36,0,.54.315.855.9,1.98,3.87,9,11.43,10.935,11.43a2.2,2.2,0,0,0,1.89-2.16,1.775,1.775,0,0,0-1.035-1.665A31.991,31.991,0,0,1-34.6,17.46,2.854,2.854,0,0,0-37.53,15.8a2.907,2.907,0,0,0-2.925,1.8,27.773,27.773,0,0,1-7.74,8.685c-1.89,1.44-1.935,1.485-1.935,2.2A2.137,2.137,0,0,0-48.285,30.6c1.755,0,7.875-6.3,9.99-10.08C-38.115,20.16-37.89,19.71-37.485,19.71Zm-13.68,27.5c0-3.195-.9-4.1-4.05-4.1h-5.31c-3.285,0-4.05.99-4.05,4.1v5.76c0,3.1.855,4.05,4.05,4.05h5.31c3.24,0,4.05-.99,4.05-4.05ZM-54.45,52.47a1.267,1.267,0,0,1-1.44,1.44h-3.735a1.267,1.267,0,0,1-1.44-1.44V47.565c0-1.035.495-1.44,1.44-1.44h3.735a1.266,1.266,0,0,1,1.44,1.44Zm2.16-31.95a1.469,1.469,0,0,0,1.71-1.62,1.462,1.462,0,0,0-1.71-1.575H-63.045a1.491,1.491,0,0,0-1.755,1.62,1.494,1.494,0,0,0,1.755,1.575Zm-.4,12.825c.585,0,1.71-.045,1.71-1.62a1.461,1.461,0,0,0-1.71-1.62h-10.35a1.491,1.491,0,0,0-1.755,1.62,1.491,1.491,0,0,0,1.755,1.62Zm-.045,6.48a1.491,1.491,0,0,0,1.755-1.62,1.477,1.477,0,0,0-1.71-1.575h-10.35A1.506,1.506,0,0,0-64.8,38.25a1.494,1.494,0,0,0,1.755,1.575ZM-34.29,29.61a1.938,1.938,0,0,0-1.8-1.89c-.495,0-.54.045-2.385,1.665a28.473,28.473,0,0,1-7.29,4.545c-2.205.99-2.565,1.125-2.565,2.025,0,.675.63,1.935,1.755,1.935C-44.91,37.89-34.29,31.68-34.29,29.61ZM-48.555,55.62a1.832,1.832,0,0,0,1.8,1.89c1.4,0,11.52-3.1,19.08-9.63,1.17-.99,3.015-2.7,3.015-3.825a2.018,2.018,0,0,0-1.89-1.8,1.187,1.187,0,0,0-.675.225c-.135.09-1.89,1.89-2.115,2.115-2.52,2.565-9.27,7.02-17.505,9.18C-47.835,54.045-48.555,54.36-48.555,55.62Zm.765-9.945c0,.36.27,1.89,1.665,1.89a13.089,13.089,0,0,0,3.465-1.26,48.1,48.1,0,0,0,10.4-6.3c1.215-.945,3.51-2.79,3.51-3.87a1.928,1.928,0,0,0-1.8-1.755c-.45,0-.765.225-1.26.72a36.924,36.924,0,0,1-14.04,8.64C-47.565,44.37-47.79,44.46-47.79,45.675Zm63.72-7.2c2.565,1.665,2.88,1.665,3.24,1.665a1.878,1.878,0,0,0,1.755-1.935,1.349,1.349,0,0,0-.9-1.305c-.54-.27-3.06-1.575-3.645-1.89.81-.855,2.7-2.88,2.7-3.69a1.617,1.617,0,0,0-1.62-1.4,1.469,1.469,0,0,0-1.17.63,35.669,35.669,0,0,1-2.3,2.79,20.818,20.818,0,0,1-4.14-4.275H18.99c1.08,0,1.62-.405,1.62-1.53,0-1.44-1.08-1.44-1.62-1.44H4.41a4.316,4.316,0,0,0,.315-1.26c0-.99-1.215-1.35-1.845-1.35a1.312,1.312,0,0,0-1.17.63c-.135.27-.675,1.665-.81,1.98H-8.865c-1.17,0-1.62.495-1.62,1.53,0,1.305,1.035,1.44,1.62,1.44h8.1A21.856,21.856,0,0,1-4.41,33.255C-5.49,32.13-6.8,30.87-6.975,30.69a1.731,1.731,0,0,0-1.17-.585,1.648,1.648,0,0,0-1.62,1.44c0,.5.315.765,3.06,3.555-.45.27-2.745,1.71-3.285,2.025a1.489,1.489,0,0,0-.855,1.305,1.731,1.731,0,0,0,1.575,1.8c.315,0,.63,0,2.43-1.17v4.77c0,2.475.765,3.96,3.96,3.96H2.655v4.95c0,.945-.27,1.35-.945,1.485-.45.09-2.475,0-2.97,0s-1.62,0-1.62,1.485a1.623,1.623,0,0,0,.9,1.575c.36.135.4.18,2.7.18,4.005,0,5.625,0,5.625-4.23V47.79H11.97c3.375,0,3.96-1.71,3.96-3.96Zm-19.305.045c0-.945.4-1.485,1.44-1.485h12.96A1.312,1.312,0,0,1,12.51,38.52v1.35H-3.375Zm2.115-4.005A31.957,31.957,0,0,0,2.925,29.07h3.51a20.871,20.871,0,0,0,4.41,5.445ZM12.51,42.3v1.44a1.3,1.3,0,0,1-1.485,1.485H-1.935c-1.035,0-1.44-.54-1.44-1.485V42.3ZM-15.12,24.39V36.9a47.535,47.535,0,0,1-5.31,3.1,1.715,1.715,0,0,0-1.08,1.62c0,.72.36,2.07,1.53,2.07,1.08,0,3.33-1.8,4.725-2.925-.675,6.615-2.16,9-4.86,13.185A2.665,2.665,0,0,0-20.7,55.44a2,2,0,0,0,1.935,1.845c.72,0,1.215-.135,2.925-2.925,4.185-6.84,4.185-14.625,4.185-19.08V24.7A1.79,1.79,0,0,1-9.63,22.68H19.08c.675,0,1.8-.09,1.8-1.575s-1.305-1.53-1.8-1.53H4.14V17.37c0-1.35-.855-1.665-1.935-1.665-1.53,0-1.8.945-1.8,1.665v2.205h-10.71C-13.68,19.575-15.12,20.745-15.12,24.39Zm-4.32-1.17a1.7,1.7,0,0,0-1.71,1.53,3.244,3.244,0,0,0,.315,1.215c.675,1.71.9,2.115,1.215,3.105,1.08,3.15,1.08,3.285,2.025,3.285.63,0,2.025-.36,2.025-1.665a34.5,34.5,0,0,0-1.935-5.4C-18.135,23.76-18.495,23.22-19.44,23.22ZM-1.89,50.76a1.7,1.7,0,0,0-1.62-1.755c-.54,0-.585,0-2.52,1.4a28.7,28.7,0,0,1-4.275,2.475c-2.25,1.08-2.43,1.17-2.43,2.025a1.636,1.636,0,0,0,1.575,1.71c1.125,0,3.96-1.71,5.265-2.475C-4.635,53.37-1.89,51.705-1.89,50.76Zm12.195-.09c0,1.035,2.7,2.7,4.05,3.51,1.035.63,3.96,2.34,4.95,2.34a1.878,1.878,0,0,0,1.755-1.89,1.228,1.228,0,0,0-.9-1.215,38.825,38.825,0,0,1-6.3-3.465c-1.4-1.035-1.4-1.035-1.845-1.035A1.737,1.737,0,0,0,10.305,50.67ZM43.02,44.19H29.565a1.646,1.646,0,1,0,0,3.285H43.02V52.83H26.01a1.76,1.76,0,1,0,0,3.51H64.035a1.757,1.757,0,1,0,0-3.51H46.845V47.475H60.48c.54,0,1.8-.045,1.8-1.62,0-1.53-1.08-1.665-1.8-1.665H46.845V39.06c6.48-.36,7.785-.405,10.4-.675.36.36,2.07,2.25,2.25,2.385a1.784,1.784,0,0,0,1.215.54,2.206,2.206,0,0,0,1.98-1.98c0-.585-.09-.765-2.16-2.835a68.268,68.268,0,0,0-5.985-5.13,2.6,2.6,0,0,0-1.305-.495,1.8,1.8,0,0,0-1.71,1.71,1.357,1.357,0,0,0,.63,1.17c.315.315,1.845,1.62,2.16,1.89-8.415.45-8.64.45-15.885.675a66.794,66.794,0,0,0,3.6-6.165H58.455c.54,0,1.71-.045,1.71-1.575,0-1.4-.9-1.53-1.71-1.53H31.635c-.495,0-1.755,0-1.755,1.53S31.1,30.15,31.635,30.15h6.3a51.483,51.483,0,0,1-3.69,6.255c-.855,0-5.58.09-5.94.135a1.411,1.411,0,0,0-1.08,1.53c0,1.755,1.305,1.755,1.935,1.755.54,0,8.55-.225,13.86-.54Zm3.825-24.615V17.37c0-1.26-.675-1.62-2.025-1.62-1.755,0-1.845,1.08-1.845,1.62v2.205H30.1c-3.735,0-4.86,1.08-4.86,4.9v3.645c0,1.26.495,1.89,1.98,1.89a1.627,1.627,0,0,0,1.8-1.845V24.84c0-1.305.585-1.935,1.89-1.935h28.08A1.682,1.682,0,0,1,60.93,24.84v3.285c0,1.44.675,1.89,2.025,1.89a1.62,1.62,0,0,0,1.8-1.89V24.48c0-3.915-1.17-4.9-4.86-4.9Z" transform="translate(336.539 2258.213)" fill="#fff"/><rect width="1031.017" height="938.546" transform="translate(-26.595 1577.44)" fill="none"/></g></svg>