<svg xmlns="http://www.w3.org/2000/svg" xmlns:xlink="http://www.w3.org/1999/xlink" width="423.621" height="458.277" viewBox="0 0 423.621 458.277"><defs><clipPath id="a"><rect width="318.564" height="323.786" fill="none"/></clipPath><clipPath id="d"><rect width="299.985" height="321.588" fill="none"/></clipPath></defs><g transform="translate(-217.682 -3091.477)"><g transform="translate(217.682 3091.477)"><g clip-path="url(#a)"><g clip-path="url(#a)"><g style="mix-blend-mode:darken;isolation:isolate"><g clip-path="url(#a)"><path d="M111.326,323.543C46.82,323.543,0,285.815,0,233.834,0,192.362,108.4,24.951,118.508,15.021,125.481,8.168,137.894,0,157.43,0c26,0,114.136,37.714,136.824,82.463,8.216,16.206,24.734,127.061,24.3,161.426-1.111,88.465-173.458,79.653-207.23,79.653" fill="#f07800"/></g></g></g></g></g><g transform="translate(341.318 3228.166)"><g clip-path="url(#d)"><g clip-path="url(#d)"><g style="mix-blend-mode:darken;isolation:isolate"><g clip-path="url(#d)"><path d="M104.136,321.588c-92.423,0-107.306-156.5-103.64-182.72C4.528,110.038,36.211,0,102.146,0c7.509,0,12.713,1.4,39.086,8.808,5.4,1.52,12.8,3.6,14.673,4.042,16.873,4.14,39.1,8.177,54.538,9.622,62.1,5.812,89.541,112.331,89.541,151.031,0,50.892-27.655,93.53-77.868,120.059-33.218,17.548-77.325,28.026-117.98,28.026" transform="translate(0)" fill="#a8d800"/></g></g></g></g></g></g></svg>