<svg xmlns="http://www.w3.org/2000/svg" width="189.232" height="47.405" viewBox="0 0 189.232 47.405"><path d="M22.432-23.68a37.741,37.741,0,0,0,6.176-.928.925.925,0,0,0,.8-1.024,1.013,1.013,0,0,0-.992-1.12c-.224,0-3.072.576-3.648.672a106.484,106.484,0,0,1-10.624.768c-.736,0-1.28.064-1.28.992,0,1.088.768,1.088,1.728,1.088,1.376,0,3.584-.128,5.376-.256v2.048h-7.2c-.736,0-1.216.32-1.216,1.088,0,.9.672,1.056,1.216,1.056h7.2v1.888H15.936c-2.368,0-2.976.7-2.976,3.008v4.288c0,2.368.64,3.008,2.976,3.008h4.032V-4.9h-6.72c-.768,0-1.152.32-1.152,1.056,0,.7.416,1.024,1.12,1.024h6.752V-.224H12.7c-.576,0-1.216.224-1.216,1.056,0,.96.864,1.024,1.216,1.024H29.792c.672,0,1.216-.256,1.216-1.024,0-.9-.7-1.056-1.216-1.056h-7.36V-2.816H29.12c.832,0,1.152-.384,1.152-1.056,0-.736-.448-1.024-1.152-1.024H22.432V-7.1h4.1c2.4,0,3.008-.7,3.008-3.008V-14.4c0-2.336-.672-3.008-3.008-3.008h-4.1V-19.3h7.2c.7,0,1.184-.288,1.184-1.056,0-.928-.672-1.088-1.184-1.088h-7.2ZM15.3-14.752c0-.544.288-.768.8-.768h3.872v2.368H15.3Zm.8,5.792a.7.7,0,0,1-.8-.8v-1.7h4.672v2.5Zm6.336-4.192V-15.52h3.936c.512,0,.8.224.8.768v1.6ZM27.168-9.76a.7.7,0,0,1-.8.8H22.432v-2.5h4.736ZM8.7-8v6.752c0,1.12-.512,1.12-1.7,1.12-1.5,0-1.984.16-1.984,1.152,0,1.344.96,1.44,2.272,1.44,3.072,0,3.648-.768,3.648-3.008V-23.136c0-2.336-.64-3.008-3.008-3.008H5.408c-2.368,0-2.976.7-2.976,3.008v12.672a35.118,35.118,0,0,1-.768,8.1C1.568-1.856.7.48.7,1.056a1.336,1.336,0,0,0,1.408,1.28c.768,0,.928-.416,1.44-2.08A33.457,33.457,0,0,0,4.768-8ZM4.8-22.88c0-.544.224-.8.768-.8H7.936c.544,0,.768.288.768.8v4.768H4.8ZM8.7-10.3H4.8v-5.5H8.7Zm51.328-7.968c0-2.08-.7-2.688-2.752-2.688H45.568c-2.08,0-2.752.672-2.752,2.688v2.944c0,2.08.7,2.72,2.752,2.72H57.28c2.048,0,2.752-.672,2.752-2.72ZM45.408-17.7v-.768a.711.711,0,0,1,.8-.8H56.672a.7.7,0,0,1,.8.8v.768Zm12.064,2.624a.7.7,0,0,1-.8.8H46.208a.7.7,0,0,1-.8-.8v-1.056H57.472Zm-3.84,9.12A16.669,16.669,0,0,1,48.288-.48C46.272.7,46.048.832,46.048,1.344a1.323,1.323,0,0,0,1.216,1.312c1.152,0,6.336-3.648,8.928-8.608h1.5a.886.886,0,0,1,.992.928,18.369,18.369,0,0,1-.512,3.552C57.824-.128,57.248.064,56.512.1c-.224.032-2.016,0-2.4,0C53.44.1,52.64.1,52.64,1.152A1.192,1.192,0,0,0,53.984,2.4c.384.032,1.568.032,2.336.032,1.5,0,3.008-.064,3.808-2.08a21.029,21.029,0,0,0,1.024-5.728c0-2.272-1.376-2.5-2.848-2.5H46.944A17.428,17.428,0,0,0,48.1-9.312H61.6c.544,0,1.184-.192,1.184-1.024,0-.992-.992-.992-1.216-.992h-20.1A.951.951,0,0,0,40.416-10.3a.971.971,0,0,0,1.056.992h4c-.256.224-1.344,1.44-1.6,1.664A17.467,17.467,0,0,1,40.9-5.632c-1.472.7-1.568.768-1.568,1.344a1.07,1.07,0,0,0,.992,1.12c.448,0,2.272-.768,4.672-2.784H47.84c-.416.448-.96,1.088-1.216,1.344A15.748,15.748,0,0,1,42.4-1.728c-1.856.832-1.984.9-1.984,1.472A1.329,1.329,0,0,0,41.6,1.088,8.4,8.4,0,0,0,44.032,0a20.8,20.8,0,0,0,6.624-5.952ZM37.536-13.6c0,.448,0,.672-.032,1.664a30.317,30.317,0,0,1-3.232,1.824c-1.408.7-1.632.832-1.632,1.568,0,.64.352,1.44,1.088,1.44.512,0,1.12-.352,3.584-2.016A19.091,19.091,0,0,1,33.888.16a1.4,1.4,0,0,0-.352.9c0,.864.96,1.312,1.5,1.312s.992-.32,2.016-2.08C40.032-4.9,40.064-10.784,40.064-13.7v-7.36c0-.96.416-1.44,1.408-1.44h19.9c.384,0,1.312,0,1.312-1.12s-.96-1.12-1.312-1.12H50.816V-26.08c0-.64-.288-1.088-1.376-1.088-1.344,0-1.376.736-1.376,1.088v1.344H40.928c-2.4,0-3.392.832-3.392,3.392Zm-3.2-8.256c-.384,0-1.216.32-1.216,1.088a1.807,1.807,0,0,0,.224.832c.48,1.12,1.056,2.464,1.184,2.848.448,1.28.544,1.632,1.344,1.632a1.165,1.165,0,0,0,1.248-1.12,12.231,12.231,0,0,0-.96-2.816C35.2-21.568,35.1-21.856,34.336-21.856Zm42.688,6.08,11.392-.736c.448-.032.64-.032.64.192a19.522,19.522,0,0,1-3.488,4.672c-1.5,1.568-1.536,1.632-1.536,2.112a1.408,1.408,0,0,0,1.44,1.28c.832,0,1.856-1.216,2.752-2.24,1.632-1.92,4.672-5.76,4.672-7.2,0-1.76-1.792-1.632-3.04-1.568L77.024-18.5v-6.528c0-.544-.064-1.408-1.44-1.408-1.408,0-1.44.96-1.44,1.408v6.688l-6.592.416c-.7.032-1.408.256-1.408,1.344a1.294,1.294,0,0,0,1.568,1.408l6.432-.416V-4.928c0,5.28,3.232,5.76,8.832,5.76.8,0,4.1-.032,7.68-.192C91.52.608,92.512.448,92.512-.9A1.256,1.256,0,0,0,91.1-2.272c-.288,0-1.664.1-1.984.128-2.08.1-4.128.16-6.208.16-4.9,0-5.888-.256-5.888-3.392ZM123.9-17.7a1.439,1.439,0,0,0-1.216.832,37.245,37.245,0,0,1-4.8,5.792A34.111,34.111,0,0,1,102.816-2.4c-2.048.512-2.56.64-2.56,1.664A1.647,1.647,0,0,0,101.824.992,33.52,33.52,0,0,0,115.008-4.8c6.528-4.544,10.5-10.5,10.5-11.424A1.648,1.648,0,0,0,123.9-17.7Zm-22.048-6.112a1.555,1.555,0,0,0-1.568,1.5c0,.64.448.928.928,1.152,5.152,2.208,5.216,2.24,6.72,3.136a3.427,3.427,0,0,0,1.5.608,1.589,1.589,0,0,0,1.408-1.632c0-.64,0-1.12-4.288-3.072A22.159,22.159,0,0,0,101.856-23.808Zm40.32-.128c-2.752,0-2.944.16-4.192,2.3a25.01,25.01,0,0,1-5.76,6.944c-.8.672-1.152.96-1.152,1.568a1.582,1.582,0,0,0,1.472,1.472c.928,0,3.168-2.272,4.224-3.488a78.854,78.854,0,0,1,10.176,6.464A26.1,26.1,0,0,1,136.64-1.5c-1.184.448-1.92.736-1.92,1.6A1.494,1.494,0,0,0,136.1,1.6c.8,0,6.4-1.984,10.976-6.3a28.464,28.464,0,0,0,8.448-16.8c0-2.432-2.24-2.432-3.072-2.432Zm8.832,2.688c.608,0,1.344,0,1.344.864a15.341,15.341,0,0,1-.768,3.392,25.205,25.205,0,0,1-2.944,6.016,81.908,81.908,0,0,0-10.176-6.208c.384-.544,2.016-3.072,2.368-3.52a1.365,1.365,0,0,1,1.28-.544Zm12.672,7.616a1.265,1.265,0,0,0-1.472,1.408,1.266,1.266,0,0,0,1.472,1.376h24.64a1.257,1.257,0,0,0,1.472-1.344,1.265,1.265,0,0,0-1.472-1.44Z" transform="translate(-0.56 44.749)" fill="#585048"/><path d="M7.584-.736c-.784.064-1.1.1-1.1.656,0,.352.128.7.656.7a66.309,66.309,0,0,0,6.736-.96c.032.128.24,1.264.256,1.312.064.224.208.352.544.352a.7.7,0,0,0,.752-.7A30.531,30.531,0,0,0,13.7-5.824c-.384-.976-.48-1.1-.848-1.1a.616.616,0,0,0-.688.576,12.648,12.648,0,0,0,.608,1.808c.176.448.688,2.224.864,3.04-1.232.24-3.952.576-4.768.672a82.48,82.48,0,0,0,2.176-12.1.641.641,0,0,0-.7-.688c-.64,0-.64.24-.784,1.728-.064.736-.432,3.648-1.088,7.152C8.1-2.816,7.952-2.192,7.584-.736Zm-6.352-12.4a.573.573,0,0,0-.672.592.577.577,0,0,0,.672.608h3.36a.483.483,0,0,1,.544.544v1.568a.488.488,0,0,1-.544.56h-2c-.544,0-1.152.032-1.392.816C1.168-8.32.848-5.92.848-5.744c0,1.232,1.072,1.232,1.472,1.232h2.4c.5,0,.5.336.5.56A19.964,19.964,0,0,1,4.944-.9c-.16.816-.592.816-1.072.816-.4,0-1.44-.032-1.6-.032a.575.575,0,0,0-.656.64.661.661,0,0,0,.352.64c.128.048.192.064,1.376.064,1.616,0,2.384,0,2.72-1.184A25.228,25.228,0,0,0,6.5-4.384c0-.992-.48-1.344-1.5-1.344H2.56c-.128,0-.384,0-.384-.368,0-.176.208-1.6.224-1.664A.406.406,0,0,1,2.864-8.1H4.912C5.968-8.1,6.4-8.464,6.4-9.568v-2.1c0-1.1-.432-1.472-1.488-1.472ZM23.664-2.528V-.64a.463.463,0,0,1-.448.544c-.112,0-.816-.016-.96-.016-.256,0-.656,0-.656.608,0,.7.528.7.832.7,1.472,0,1.536,0,1.824-.1.64-.224.672-.864.672-1.392V-7.552c0-1.2-.368-1.5-1.5-1.5H20.432c-1.168,0-1.5.32-1.5,1.5V.672c0,.416.144.672.64.672.576,0,.64-.384.64-.672v-3.2ZM20.208-7.36c0-.336.144-.512.512-.512h2.432a.45.45,0,0,1,.512.512v1.024H20.208Zm3.456,3.728H20.208V-5.248h3.456Zm.176-7.888a11.347,11.347,0,0,0-.848-1.536.757.757,0,0,0-.672-.448c-.32,0-.8.208-.8.5a.957.957,0,0,0,.1.4c.064.16.512.912.592,1.088H18.5a.546.546,0,0,0-.64.592.555.555,0,0,0,.64.608H32.32a.55.55,0,0,0,.64-.608.551.551,0,0,0-.64-.592H28.768c.624-1.008.7-1.184.7-1.408,0-.5-.544-.592-.816-.592-.448,0-.576.256-.784.672-.448.9-.5.992-.688,1.328Zm4.24,3.072c0-.464-.208-.624-.7-.624a.547.547,0,0,0-.624.624V-2.1c0,.464.208.64.7.64a.55.55,0,0,0,.624-.64Zm3.84-.384c0-.512-.224-.64-.7-.64-.592,0-.624.4-.624.64V-.848c0,.688-.432.72-.768.72-.224,0-1.312-.016-1.552-.016-.224,0-.624.032-.624.64a.69.69,0,0,0,.336.656,8.271,8.271,0,0,0,1.312.064c1.264,0,1.664,0,2.032-.224A1.614,1.614,0,0,0,31.92-.5Zm9.952.64A9.914,9.914,0,0,1,35.936-.208c-.32.16-.512.3-.512.656a.754.754,0,0,0,.688.784,9.921,9.921,0,0,0,3.44-2.144,11.426,11.426,0,0,0,3.28-5.328A11.68,11.68,0,0,0,46.176-.88a9.142,9.142,0,0,0,3.216,2.064.8.8,0,0,0,.736-.8c0-.352-.208-.5-.5-.64a10.421,10.421,0,0,1-5.984-7.936H49.6c.32,0,.7-.1.7-.672a.61.61,0,0,0-.7-.656H43.376v-3.3c0-.48-.224-.672-.752-.672a.591.591,0,0,0-.672.672v3.3H35.936c-.336,0-.72.1-.72.672a.621.621,0,0,0,.72.656Zm14.32-2.72c.432-.112.56-.368.56-.576a3.882,3.882,0,0,0-.56-1.216c-.352-.576-.512-.816-.88-.816-.336,0-.736.224-.736.56a.906.906,0,0,0,.16.416c.064.1.416.672.48.8.384.688.416.768.608.832H54.9c-1.2,0-1.712.4-1.712,1.7v1.328c0,.5.224.656.72.656.624,0,.64-.448.64-.672V-9.088a.6.6,0,0,1,.672-.688h9.936c.464,0,.672.224.672.688V-7.9c0,.432.16.656.72.656.64,0,.64-.448.64-.656V-9.216c0-.656-.064-1.7-1.552-1.7H64.8a7.268,7.268,0,0,0,1.024-2.016c0-.448-.5-.608-.752-.608-.368,0-.432.144-.8.9a15.881,15.881,0,0,1-.928,1.728ZM60.976-4.3V-4.64a21.691,21.691,0,0,0,2.272-1.248c.864-.56,1.408-.96,1.408-1.6,0-.8-.7-.8-1.248-.8H55.856a.556.556,0,0,0-.624.592.529.529,0,0,0,.608.592h6.384c.208,0,.32,0,.32.144a7.788,7.788,0,0,1-2.3,1.424c-.464-.064-.64.176-.64.5V-4.3H53.376A.575.575,0,0,0,52.7-3.7a.577.577,0,0,0,.672.608H59.6v2.16c0,.72-.368.8-.848.8L57.1-.16a.566.566,0,0,0-.656.64.829.829,0,0,0,.288.64c.144.1.336.1.88.1h1.632c1.312,0,1.728-.48,1.728-1.728V-3.088h5.936c.224,0,.672-.016.672-.608a.572.572,0,0,0-.672-.608Zm-1.392-9.36c-.176,0-.688.16-.688.56,0,.144.048.24.48,1.04.528.96.544,1.024.9,1.024.192,0,.736-.1.736-.592a4.212,4.212,0,0,0-.624-1.408C60.048-13.6,59.984-13.664,59.584-13.664Zm19.3,7.376a7.069,7.069,0,0,0,.128-1.264v-.96h3.776a.538.538,0,0,0,.624-.576.531.531,0,0,0-.624-.56H76.272c.384-.8.416-.88.416-1.056a.617.617,0,0,0-.672-.592.6.6,0,0,0-.544.432,9.075,9.075,0,0,1-1.616,2.592c-.576.624-.64.688-.64.9a.741.741,0,0,0,.7.672.769.769,0,0,0,.528-.288,9.064,9.064,0,0,0,1.168-1.52H77.76v.992a9.227,9.227,0,0,1-.112,1.232H73.376c-.272,0-.608.048-.608.576,0,.56.416.56.608.56h3.888A5.743,5.743,0,0,1,73.408-2.1c-.256.08-.5.176-.5.528,0,.224.144.72.624.72a7.014,7.014,0,0,0,4.88-3.984,8.551,8.551,0,0,0,5.12,4c.512,0,.64-.528.64-.752a.432.432,0,0,0-.224-.432c-.1-.048-.608-.24-.736-.272a7.378,7.378,0,0,1-3.68-2.864h4c.176,0,.608,0,.608-.56a.524.524,0,0,0-.608-.576ZM72.864-12.9c-1.5,0-2.08.528-2.08,2.08v9.76c0,1.568.608,2.064,2.08,2.064H84.288A.572.572,0,0,0,84.96.4a.573.573,0,0,0-.672-.592H73.024c-.672,0-.912-.352-.912-.928v-9.648c0-.608.272-.928.912-.928H83.968c.176,0,.672,0,.672-.592a.577.577,0,0,0-.672-.608Zm18.112,1.984c.432-.112.56-.368.56-.576a3.882,3.882,0,0,0-.56-1.216c-.352-.576-.512-.816-.88-.816-.336,0-.736.224-.736.56a.906.906,0,0,0,.16.416c.064.1.416.672.48.8.384.688.416.768.608.832H89.68c-1.2,0-1.712.4-1.712,1.7v1.328c0,.5.224.656.72.656.624,0,.64-.448.64-.672V-9.088A.6.6,0,0,1,90-9.776h9.936c.464,0,.672.224.672.688V-7.9c0,.432.16.656.72.656.64,0,.64-.448.64-.656V-9.216c0-.656-.064-1.7-1.552-1.7h-.832a7.268,7.268,0,0,0,1.024-2.016c0-.448-.5-.608-.752-.608-.368,0-.432.144-.8.9a15.883,15.883,0,0,1-.928,1.728ZM95.76-4.3V-4.64a21.691,21.691,0,0,0,2.272-1.248c.864-.56,1.408-.96,1.408-1.6,0-.8-.7-.8-1.248-.8H90.64a.556.556,0,0,0-.624.592.529.529,0,0,0,.608.592h6.384c.208,0,.32,0,.32.144a7.788,7.788,0,0,1-2.3,1.424c-.464-.064-.64.176-.64.5V-4.3H88.16a.575.575,0,0,0-.672.608.577.577,0,0,0,.672.608h6.224v2.16c0,.72-.368.8-.848.8L91.888-.16a.566.566,0,0,0-.656.64.829.829,0,0,0,.288.64c.144.1.336.1.88.1h1.632c1.312,0,1.728-.48,1.728-1.728V-3.088H101.7c.224,0,.672-.016.672-.608A.572.572,0,0,0,101.7-4.3Zm-1.392-9.36c-.176,0-.688.16-.688.56,0,.144.048.24.48,1.04.528.96.544,1.024.9,1.024.192,0,.736-.1.736-.592a4.212,4.212,0,0,0-.624-1.408C94.832-13.6,94.768-13.664,94.368-13.664Zm11.536,1.84a.569.569,0,0,0-.656.576.567.567,0,0,0,.656.592h.56a20.927,20.927,0,0,1,.624,3.2H105.5a.529.529,0,0,0-.608.592c0,.592.432.592.624.592h7.344c.192,0,.624,0,.624-.576,0-.56-.368-.608-.624-.608h-1.7a31.569,31.569,0,0,0,.784-3.2h.576a.557.557,0,0,0,.64-.576.561.561,0,0,0-.64-.592h-2.672v-1.184c0-.16,0-.592-.624-.592-.464,0-.7.144-.7.592v1.184Zm4.768,1.168a25.614,25.614,0,0,1-.736,3.2H108.32a32.286,32.286,0,0,0-.64-3.2ZM107.52-4.768c-1.36,0-1.728.384-1.728,1.728V-.656c0,1.36.384,1.744,1.728,1.744h3.3c1.376,0,1.728-.416,1.728-1.744V-3.04c0-1.376-.4-1.728-1.728-1.728Zm3.76,4a.6.6,0,0,1-.688.688H107.76a.6.6,0,0,1-.688-.688V-2.944c0-.544.288-.7.688-.7h2.832c.432,0,.688.192.688.7Zm3.872-10.56c0-.32.128-.528.512-.528h1.728c.192,0,.512,0,.512.32a18.026,18.026,0,0,1-1.52,3.344,1.6,1.6,0,0,0-.192.672c0,.368.032.4.96,1.424a4.529,4.529,0,0,1,1.216,2.8c0,.656-.224,1.76-1.44,1.76-.1,0-.624-.032-.736-.032-.432,0-.544.256-.544.608,0,.608.32.656.464.688.144.016,1.024.016,1.264,0a2.559,2.559,0,0,0,2.336-2.816,4.923,4.923,0,0,0-.72-2.528,6.348,6.348,0,0,0-1.36-1.68.433.433,0,0,1-.16-.3.6.6,0,0,1,.08-.256c.528-.96.576-1.056.864-1.68.768-1.664.832-1.984.832-2.4,0-1.152-.928-1.152-1.664-1.152h-2.24c-1.184,0-1.5.352-1.5,1.5V.768c0,.48.192.672.688.672a.571.571,0,0,0,.624-.672ZM124-11.36c0-.32.144-.512.528-.512h.96c.128,0,.432,0,.432.336a12.254,12.254,0,0,1-.784,2.352c-.32.752-.384.9-.384,1.136,0,.288.048.368.48,1.056a4.339,4.339,0,0,1,.816,2.592c0,1.136-.48,1.136-1.344,1.136-.272,0-.432.176-.432.512,0,.752.416.752.832.752.88,0,2.208,0,2.208-2.128a5.885,5.885,0,0,0-1.12-3.376c-.24-.336-.272-.448-.272-.592,0-.176.064-.3.5-1.344a8.655,8.655,0,0,0,.8-2.624c0-1.04-.848-1.04-1.472-1.04h-1.472c-1.2,0-1.5.336-1.5,1.488V.768c0,.384.128.656.624.656.576,0,.608-.4.608-.656ZM128.544.784a.579.579,0,0,0,.624.672c.608,0,.64-.432.64-.672V-9.888a12.959,12.959,0,0,0,.928-3.12c0-.448-.448-.528-.688-.528-.464,0-.56.272-.624.608a13.1,13.1,0,0,1-1.84,4.32c-.048.08-.7.96-.7.992a.562.562,0,0,0-.08.32.748.748,0,0,0,.688.784c.24,0,.432-.08,1.056-1.008Zm7.408-9.648h.656c.256,0,.576-.08.576-.64,0-.528-.32-.624-.576-.624h-.656v-2.8c0-.224-.016-.64-.656-.64-.656,0-.656.448-.656.64v2.8h-3.712c-.256,0-.624.048-.624.64,0,.624.432.624.624.624h3.712v8c0,.544-.192.7-.624.736-.112.016-.656,0-.768,0-.608,0-1.056,0-1.056.608,0,.224.08.592.384.672a8.16,8.16,0,0,0,1.28.064c1.232,0,2.1-.048,2.1-1.712ZM131.408-7.1a.6.6,0,0,0-.64.544,4.911,4.911,0,0,0,.416,1.024,14.685,14.685,0,0,1,.784,1.888c.288.864.336.96.7.96.24,0,.736-.112.736-.608a11.7,11.7,0,0,0-.912-2.352C131.808-7.088,131.712-7.1,131.408-7.1Zm16.416,5.84c-.384.016-2.064.1-2.464.144-.192.016-.56.048-.56.48,0,.544.464.544.64.544.384,0,4.064-.352,5.344-.528.256.592.288.64.544.64a.466.466,0,0,0,.5-.448,5.566,5.566,0,0,0-.752-1.7c-.128-.24-.24-.3-.416-.3-.128,0-.464.064-.464.384,0,.16.048.24.192.56-.464.064-.608.08-1.328.128V-2.768h3.232a.476.476,0,0,1,.544.544V-.48a.477.477,0,0,1-.544.544c-.144,0-.88-.032-1.04-.032a.515.515,0,0,0-.592.544c0,.64.5.64.832.64a7.1,7.1,0,0,0,1.952-.1c.64-.208.688-.848.688-1.408V-2.224c0-1.168-.336-1.488-1.5-1.488h-3.568v-.944h3.312c.848,0,1.152-.208,1.152-1.136v-.592c0-.912-.288-1.136-1.152-1.136h-3.312v-.816c1.728-.08,2.448-.128,3.1-.192.9-.1,1.136-.128,1.136-.544a.451.451,0,0,0-.464-.512c-.16,0-1.3.144-1.552.16-2.416.208-4.848.224-7.3.24-.3,0-.624,0-.624.48s.368.48.768.48c.688,0,3.376-.064,3.7-.064v.768h-3.168c-.912,0-1.152.256-1.152,1.136v.592c0,.928.288,1.136,1.152,1.136h3.168v.944h-3.44c-1.184,0-1.5.336-1.5,1.488V.736c0,.32.064.624.64.624s.624-.352.624-.624v-2.96a.476.476,0,0,1,.544-.544h3.136ZM145.1-5.552c-.256,0-.384-.112-.384-.384v-.32a.339.339,0,0,1,.384-.384h2.72v1.088Zm3.952-1.088H151.9a.345.345,0,0,1,.384.384v.32a.339.339,0,0,1-.384.384h-2.848ZM142.24-10h10.416c.944,0,1.184-.272,1.184-1.168v-.64c0-.928-.256-1.184-1.184-1.184H142.448c-1.168,0-1.488.336-1.488,1.5V-6.72A26.208,26.208,0,0,1,140.768-4a13.029,13.029,0,0,1-1.056,3.856,1.194,1.194,0,0,0-.128.512.735.735,0,0,0,.736.672c.336,0,.5-.144.848-1.04a21.191,21.191,0,0,0,1.072-6.752Zm0-1.472a.448.448,0,0,1,.512-.512h9.392c.288,0,.4.144.4.384v.24a.349.349,0,0,1-.4.4h-9.9Zm27.216,5.824A.477.477,0,0,1,170-5.1V-.5c0,.56-.336.576-.608.576-.032,0-.88-.032-1.04-.016a.493.493,0,0,0-.544.56.549.549,0,0,0,.432.576c.144.032.816.032,1.232.032,1.216,0,1.792-.048,1.792-1.5V-5.248c0-1.12-.432-1.472-1.472-1.472h-2.976c.032-.256.128-1.408.128-1.664h4.24c.16,0,.656,0,.656-.56,0-.544-.416-.576-.656-.576h-9.44c-.192,0-.656.016-.656.576,0,.464.3.56.656.56H165.7c0,.16-.016.928-.08,1.664H163.1c-1.056,0-1.472.384-1.472,1.472V.688a.561.561,0,0,0,.608.656c.448,0,.656-.16.656-.656V-5.1c0-.384.192-.544.56-.544h2a5.151,5.151,0,0,1-2.144,3.328.547.547,0,0,0-.272.448.719.719,0,0,0,.624.672c.416,0,1.872-1.1,2.672-3.328a8.356,8.356,0,0,0,1.68,2.4c.3.3.9.848,1.216.848a.613.613,0,0,0,.608-.576c0-.208-.016-.224-.688-.768a5.763,5.763,0,0,1-2.144-3.024Zm-10.032-.96c0,.176-.016.528-.016.656a19.871,19.871,0,0,1-1.888.912c-.544.24-.688.3-.688.688,0,.224.128.736.56.736a8.629,8.629,0,0,0,1.888-.928,9.151,9.151,0,0,1-1.808,4.56.809.809,0,0,0-.224.512.734.734,0,0,0,.736.672c.224,0,.4,0,1.04-.976a12.513,12.513,0,0,0,1.664-6.672v-3.744a.629.629,0,0,1,.72-.72H171.2c.416,0,.64-.144.64-.624,0-.56-.464-.56-.64-.56h-5.3v-.848c0-.48-.272-.592-.72-.592-.5,0-.672.192-.672.592v.848H161.12c-1.216,0-1.7.416-1.7,1.7Zm-1.712-4.24a.628.628,0,0,0-.64.56,1.125,1.125,0,0,0,.128.416c.208.448.512,1.12.64,1.472.272.7.32.8.64.8a.687.687,0,0,0,.72-.592,6.524,6.524,0,0,0-.624-1.568C158.112-10.736,158.064-10.848,157.712-10.848Zm27.232-1.12v-1.056c0-.24-.064-.592-.64-.592-.64,0-.64.448-.64.592v1.056H181.1c-1.008,0-1.472.32-1.472,1.472v1.28c0,.272.048.672.64.672a.576.576,0,0,0,.624-.672v-1.056a.45.45,0,0,1,.512-.512h5.728a.455.455,0,0,1,.512.512v1.056c0,.352.1.656.64.656.608,0,.624-.432.624-.656V-10.5c0-1.136-.448-1.472-1.472-1.472ZM186.96-7.9c.192,0,.624,0,.624-.576s-.432-.576-.624-.576h-5.3a.53.53,0,0,0-.624.576.53.53,0,0,0,.624.576ZM174.9.752c0,.256.032.672.624.672.544,0,.624-.336.624-.672V-11.36c0-.336.144-.528.512-.528h.992c.16,0,.416,0,.416.336a13.719,13.719,0,0,1-.784,2.288c-.336.848-.384.944-.384,1.12a1.133,1.133,0,0,0,.256.656,5.294,5.294,0,0,1,1.024,3.056c0,1.12-.384,1.12-1.008,1.12-.432,0-.72,0-.72.64,0,.576.416.688.768.688a2.573,2.573,0,0,0,1.408-.208,2.107,2.107,0,0,0,.8-1.968,6.06,6.06,0,0,0-1.136-3.44c-.224-.3-.3-.416-.3-.56a4,4,0,0,1,.416-1.056,9,9,0,0,0,.9-2.848c0-1.056-.768-1.056-1.552-1.056H176.4c-1.168,0-1.5.3-1.5,1.488ZM185.984-5.04h2.688c.192,0,.672,0,.672-.608a.572.572,0,0,0-.672-.608h-8.64a.583.583,0,0,0-.688.608.583.583,0,0,0,.688.608h1.936c-.064,3.456-1.056,4.224-2.912,5.072-.288.128-.5.24-.5.576a.7.7,0,0,0,.64.72A4.75,4.75,0,0,0,181.184.32c1.7-1.36,1.984-3.168,2.032-5.36h1.5V-.224c0,1.44.56,1.5,1.824,1.5,1.648,0,1.968,0,2.256-.384a5.356,5.356,0,0,0,.5-2.352.555.555,0,0,0-.624-.64.465.465,0,0,0-.48.272c-.048.176-.128,1.072-.176,1.28-.112.592-.112.592-1.072.592-.72,0-.96,0-.96-.56Z" transform="translate(-0.56 13.664)" fill="#585048"/></svg>