<svg xmlns="http://www.w3.org/2000/svg" width="235.002" height="67.267" viewBox="0 0 235.002 67.267"><g transform="translate(-468.696 -5472.539)"><path d="M27.858-29.408a46.87,46.87,0,0,0,7.67-1.152,1.149,1.149,0,0,0,.993-1.272,1.258,1.258,0,0,0-1.232-1.391c-.278,0-3.815.715-4.53.835a132.24,132.24,0,0,1-13.194.954c-.914,0-1.59.079-1.59,1.232,0,1.351.954,1.351,2.146,1.351,1.709,0,4.451-.159,6.676-.318v2.543H15.856c-.914,0-1.51.4-1.51,1.351,0,1.113.835,1.311,1.51,1.311H24.8v2.345H19.791c-2.941,0-3.7.874-3.7,3.736v5.325c0,2.941.795,3.736,3.7,3.736H24.8V-6.08H16.452c-.954,0-1.431.4-1.431,1.311,0,.874.517,1.272,1.391,1.272H24.8V-.278H15.777c-.715,0-1.51.278-1.51,1.311,0,1.192,1.073,1.272,1.51,1.272H37c.835,0,1.51-.318,1.51-1.272,0-1.113-.874-1.311-1.51-1.311h-9.14V-3.5h8.306c1.033,0,1.431-.477,1.431-1.311,0-.914-.556-1.272-1.431-1.272H27.858V-8.822h5.087c2.98,0,3.736-.874,3.736-3.736v-5.325c0-2.9-.835-3.736-3.736-3.736H27.858v-2.345H36.8c.874,0,1.47-.358,1.47-1.311,0-1.152-.835-1.351-1.47-1.351H27.858ZM19-18.32c0-.676.358-.954.994-.954H24.8v2.941H19Zm.994,7.193A.868.868,0,0,1,19-12.121v-2.106h5.8v3.1Zm7.869-5.206v-2.941h4.888c.636,0,.993.278.993.954v1.987Zm5.882,4.212a.866.866,0,0,1-.993.994H27.858v-3.1h5.882ZM10.809-9.935V-1.55c0,1.391-.636,1.391-2.106,1.391-1.868,0-2.464.2-2.464,1.431,0,1.669,1.192,1.788,2.822,1.788,3.815,0,4.53-.954,4.53-3.736V-28.732c0-2.9-.795-3.736-3.736-3.736H6.716c-2.941,0-3.7.874-3.7,3.736v15.737A43.612,43.612,0,0,1,2.066-2.941C1.947-2.3.874.6.874,1.311A1.659,1.659,0,0,0,2.623,2.9c.954,0,1.152-.517,1.788-2.583A41.55,41.55,0,0,0,5.921-9.935ZM5.961-28.414c0-.676.278-.994.954-.994H9.856c.676,0,.954.358.954.994v5.921H5.961ZM10.809-12.8H5.961v-6.835h4.848Zm63.743-9.9c0-2.583-.874-3.338-3.418-3.338H56.59c-2.583,0-3.418.835-3.418,3.338v3.656c0,2.583.874,3.378,3.418,3.378H71.135c2.543,0,3.418-.835,3.418-3.378Zm-18.161.715v-.954a.883.883,0,0,1,.994-.993H70.38a.868.868,0,0,1,.993.993v.954Zm14.982,3.259a.868.868,0,0,1-.993.993H57.385a.868.868,0,0,1-.994-.993v-1.311H71.373ZM66.6-7.392A20.7,20.7,0,0,1,59.968-.6c-2.5,1.47-2.782,1.629-2.782,2.265A1.644,1.644,0,0,0,58.7,3.3c1.431,0,7.869-4.53,11.087-10.69h1.868a1.1,1.1,0,0,1,1.232,1.152,22.812,22.812,0,0,1-.636,4.411C71.81-.159,71.095.079,70.181.119c-.278.04-2.5,0-2.98,0-.835,0-1.828,0-1.828,1.311a1.481,1.481,0,0,0,1.669,1.55c.477.04,1.947.04,2.9.04,1.868,0,3.736-.079,4.729-2.583a26.115,26.115,0,0,0,1.272-7.113c0-2.822-1.709-3.1-3.537-3.1H58.3a21.644,21.644,0,0,0,1.431-1.788H76.5c.676,0,1.47-.238,1.47-1.272,0-1.232-1.232-1.232-1.51-1.232H51.5A1.182,1.182,0,0,0,50.192-12.8,1.206,1.206,0,0,0,51.5-11.564h4.967c-.318.278-1.669,1.788-1.987,2.066a21.691,21.691,0,0,1-3.7,2.5c-1.828.874-1.947.954-1.947,1.669a1.328,1.328,0,0,0,1.232,1.391c.556,0,2.822-.954,5.8-3.457h3.537c-.517.556-1.192,1.351-1.51,1.669a19.557,19.557,0,0,1-5.246,3.577c-2.3,1.033-2.464,1.113-2.464,1.828a1.651,1.651,0,0,0,1.47,1.669A10.438,10.438,0,0,0,54.682,0a25.832,25.832,0,0,0,8.226-7.392Zm-19.989-9.5c0,.556,0,.835-.04,2.066a37.649,37.649,0,0,1-4.014,2.265c-1.749.874-2.027,1.033-2.027,1.947,0,.795.437,1.788,1.351,1.788.636,0,1.391-.437,4.451-2.5A23.708,23.708,0,0,1,42.085.2a1.736,1.736,0,0,0-.437,1.113c0,1.073,1.192,1.629,1.868,1.629s1.232-.4,2.5-2.583c3.7-6.438,3.736-13.75,3.736-17.366v-9.14c0-1.192.517-1.788,1.749-1.788H76.221c.477,0,1.629,0,1.629-1.391s-1.192-1.391-1.629-1.391H63.107v-1.669c0-.795-.358-1.351-1.709-1.351-1.669,0-1.709.914-1.709,1.351v1.669H50.827c-2.98,0-4.212,1.033-4.212,4.212ZM42.641-27.142c-.477,0-1.51.4-1.51,1.351a2.244,2.244,0,0,0,.278,1.033c.6,1.391,1.311,3.06,1.47,3.537.556,1.59.676,2.027,1.669,2.027a1.447,1.447,0,0,0,1.55-1.391,15.189,15.189,0,0,0-1.192-3.5C43.714-26.785,43.595-27.142,42.641-27.142Zm53.013,7.551,14.147-.914c.556-.04.795-.04.795.238,0,.358-1.709,2.98-4.332,5.8-1.868,1.947-1.908,2.027-1.908,2.623a1.749,1.749,0,0,0,1.788,1.59c1.033,0,2.3-1.51,3.418-2.782,2.027-2.384,5.8-7.153,5.8-8.941,0-2.186-2.225-2.027-3.775-1.947l-15.936.954v-8.107c0-.676-.079-1.749-1.788-1.749-1.749,0-1.788,1.192-1.788,1.749v8.306l-8.186.517c-.874.04-1.749.318-1.749,1.669a1.607,1.607,0,0,0,1.947,1.749l7.988-.517V-6.12c0,6.557,4.014,7.153,10.968,7.153.993,0,5.087-.04,9.538-.238,1.073-.04,2.3-.238,2.3-1.908a1.56,1.56,0,0,0-1.749-1.709c-.358,0-2.066.119-2.464.159-2.583.119-5.126.2-7.71.2-6.08,0-7.312-.318-7.312-4.212Zm58.219-2.384a1.787,1.787,0,0,0-1.51,1.033A46.253,46.253,0,0,1,146.4-13.75a42.361,42.361,0,0,1-18.718,10.77c-2.543.636-3.179.795-3.179,2.066a2.046,2.046,0,0,0,1.947,2.146c.874,0,8.425-1.629,16.373-7.193C150.933-11.6,155.86-19,155.86-20.148A2.046,2.046,0,0,0,153.873-21.976Zm-27.381-7.59a1.932,1.932,0,0,0-1.947,1.868c0,.795.556,1.152,1.152,1.431,6.4,2.742,6.478,2.782,8.345,3.895a4.256,4.256,0,0,0,1.868.755,1.974,1.974,0,0,0,1.749-2.027c0-.795,0-1.391-5.325-3.815A27.518,27.518,0,0,0,126.492-29.567Zm50.072-.159c-3.418,0-3.656.2-5.206,2.861a31.06,31.06,0,0,1-7.153,8.624c-.993.835-1.431,1.192-1.431,1.947a1.964,1.964,0,0,0,1.828,1.828c1.152,0,3.934-2.822,5.246-4.332a97.925,97.925,0,0,1,12.637,8.027,32.413,32.413,0,0,1-12.8,8.9c-1.47.556-2.384.914-2.384,1.987a1.855,1.855,0,0,0,1.709,1.868c.993,0,7.948-2.464,13.631-7.829a35.349,35.349,0,0,0,10.491-20.864c0-3.02-2.782-3.02-3.815-3.02Zm10.968,3.338c.755,0,1.669,0,1.669,1.073a19.051,19.051,0,0,1-.954,4.212,31.3,31.3,0,0,1-3.656,7.471,101.719,101.719,0,0,0-12.637-7.71c.477-.676,2.5-3.815,2.941-4.371a1.7,1.7,0,0,1,1.59-.676Zm15.737,9.458a1.571,1.571,0,0,0-1.828,1.749,1.572,1.572,0,0,0,1.828,1.709h30.6a1.561,1.561,0,0,0,1.828-1.669,1.571,1.571,0,0,0-1.828-1.788Z" transform="translate(468.001 5536.508)" fill="#f0f0d8"/><path d="M9.418-.914c-.974.079-1.371.119-1.371.815,0,.437.159.874.815.874A82.348,82.348,0,0,0,17.227-.417c.04.159.3,1.57.318,1.629.079.278.258.437.676.437a.863.863,0,0,0,.934-.874,37.915,37.915,0,0,0-2.146-8.008c-.477-1.212-.6-1.371-1.053-1.371a.765.765,0,0,0-.854.715,15.708,15.708,0,0,0,.755,2.245c.219.556.854,2.762,1.073,3.775-1.53.3-4.908.715-5.921.835a102.43,102.43,0,0,0,2.7-15.022.8.8,0,0,0-.874-.854c-.795,0-.795.3-.974,2.146-.079.914-.536,4.53-1.351,8.882C10.054-3.5,9.875-2.722,9.418-.914ZM1.53-16.313a.712.712,0,0,0-.835.735.717.717,0,0,0,.835.755H5.7a.6.6,0,0,1,.676.676V-12.2a.606.606,0,0,1-.676.7H3.219c-.676,0-1.431.04-1.729,1.013-.04.159-.437,3.139-.437,3.358,0,1.53,1.331,1.53,1.828,1.53h2.98c.616,0,.616.417.616.7a24.792,24.792,0,0,1-.338,3.8C5.941-.1,5.4-.1,4.809-.1c-.5,0-1.788-.04-1.987-.04a.715.715,0,0,0-.815.795.82.82,0,0,0,.437.795c.159.06.238.079,1.709.079,2.007,0,2.961,0,3.378-1.47a31.33,31.33,0,0,0,.536-5.5c0-1.232-.6-1.669-1.868-1.669H3.179c-.159,0-.477,0-.477-.457,0-.219.258-1.987.278-2.066a.5.5,0,0,1,.576-.417H6.1c1.311,0,1.848-.457,1.848-1.828v-2.6c0-1.371-.536-1.828-1.848-1.828ZM29.388-3.139V-.795a.576.576,0,0,1-.556.676c-.139,0-1.013-.02-1.192-.02-.318,0-.815,0-.815.755,0,.874.656.874,1.033.874,1.828,0,1.908,0,2.265-.119.795-.278.835-1.073.835-1.729V-9.379c0-1.49-.457-1.868-1.868-1.868H25.374c-1.451,0-1.868.4-1.868,1.868V.835c0,.517.179.835.795.835.715,0,.795-.477.795-.835V-3.139Zm-4.292-6c0-.417.179-.636.636-.636h3.02a.559.559,0,0,1,.636.636v1.272H25.1Zm4.292,4.63H25.1V-6.517h4.292Zm.219-9.8a14.091,14.091,0,0,0-1.053-1.908.94.94,0,0,0-.835-.556c-.4,0-.993.258-.993.616a1.189,1.189,0,0,0,.119.5c.079.2.636,1.133.735,1.351H22.97a.678.678,0,0,0-.795.735.69.69,0,0,0,.795.755H40.137a.683.683,0,0,0,.795-.755.684.684,0,0,0-.795-.735H35.726c.775-1.252.874-1.47.874-1.749,0-.616-.676-.735-1.013-.735-.556,0-.715.318-.974.835-.556,1.113-.616,1.232-.854,1.649Zm5.266,3.815c0-.576-.258-.775-.874-.775a.68.68,0,0,0-.775.775V-2.6c0,.576.258.795.874.795a.683.683,0,0,0,.775-.795Zm4.769-.477c0-.636-.278-.795-.874-.795-.735,0-.775.5-.775.795v9.915c0,.854-.536.894-.954.894-.278,0-1.629-.02-1.927-.02-.278,0-.775.04-.775.795a.857.857,0,0,0,.417.815,10.271,10.271,0,0,0,1.629.079c1.57,0,2.066,0,2.523-.278a2,2,0,0,0,.735-1.848ZM52-10.173A12.312,12.312,0,0,1,44.628-.258c-.4.2-.636.378-.636.815a.936.936,0,0,0,.854.974c.556,0,2.722-1.272,4.272-2.663a14.189,14.189,0,0,0,4.073-6.617,14.505,14.505,0,0,0,4.153,6.656C58.756.2,60.762,1.47,61.339,1.47a1,1,0,0,0,.914-.994c0-.437-.258-.616-.616-.795-5.444-2.8-6.656-6.438-7.431-9.856H61.6c.4,0,.874-.119.874-.835a.758.758,0,0,0-.874-.815H53.868v-4.093c0-.6-.278-.835-.934-.835a.734.734,0,0,0-.835.835v4.093H44.628c-.417,0-.894.119-.894.835a.772.772,0,0,0,.894.815Zm17.784-3.378c.536-.139.7-.457.7-.715a4.821,4.821,0,0,0-.7-1.51c-.437-.715-.636-1.013-1.093-1.013-.417,0-.914.278-.914.7a1.126,1.126,0,0,0,.2.517c.079.119.517.835.6.993.477.854.517.954.755,1.033H68.174c-1.49,0-2.126.5-2.126,2.106V-9.8c0,.616.278.815.894.815.775,0,.795-.556.795-.835v-1.47a.744.744,0,0,1,.835-.854H80.911c.576,0,.835.278.835.854v1.47c0,.536.2.815.894.815.795,0,.795-.556.795-.815v-1.629c0-.815-.079-2.106-1.927-2.106H80.474a9.025,9.025,0,0,0,1.272-2.5c0-.556-.616-.755-.934-.755-.457,0-.536.179-.993,1.113a19.724,19.724,0,0,1-1.152,2.146Zm5.941,8.206v-.417a26.938,26.938,0,0,0,2.822-1.55c1.073-.7,1.749-1.192,1.749-1.987,0-.994-.874-.994-1.55-.994H69.366a.691.691,0,0,0-.775.735.657.657,0,0,0,.755.735h7.928c.258,0,.4,0,.4.179a9.671,9.671,0,0,1-2.861,1.768c-.576-.079-.795.219-.795.616v.914H66.286a.714.714,0,0,0-.835.755.717.717,0,0,0,.835.755h7.729v2.682c0,.894-.457.993-1.053.993-.06,0-2.007-.04-2.047-.04A.7.7,0,0,0,70.1.6a1.029,1.029,0,0,0,.358.795c.179.119.417.119,1.093.119h2.027c1.629,0,2.146-.6,2.146-2.146v-3.2H83.1c.278,0,.835-.02.835-.755a.71.71,0,0,0-.835-.755ZM74-16.969c-.219,0-.854.2-.854.7,0,.179.06.3.6,1.292.656,1.192.676,1.272,1.113,1.272.238,0,.914-.119.914-.735a5.231,5.231,0,0,0-.775-1.749C74.572-16.89,74.493-16.969,74-16.969Zm23.963,9.16a8.778,8.778,0,0,0,.159-1.57v-1.192h4.689a.669.669,0,0,0,.775-.715.66.66,0,0,0-.775-.7H94.72c.477-.993.517-1.093.517-1.311a.766.766,0,0,0-.835-.735.739.739,0,0,0-.676.536,11.27,11.27,0,0,1-2.007,3.219c-.715.775-.795.854-.795,1.113a.92.92,0,0,0,.874.835.955.955,0,0,0,.656-.358,11.257,11.257,0,0,0,1.451-1.888h2.663v1.232a11.458,11.458,0,0,1-.139,1.53H91.124c-.338,0-.755.06-.755.715,0,.7.517.7.755.7h4.828a7.132,7.132,0,0,1-4.789,3.8c-.318.1-.616.219-.616.656,0,.278.179.894.775.894A8.711,8.711,0,0,0,97.383-6c1.47,3.179,5.7,4.967,6.358,4.967.636,0,.795-.656.795-.934a.536.536,0,0,0-.278-.536c-.119-.06-.755-.3-.914-.338A9.162,9.162,0,0,1,98.774-6.4h4.967c.219,0,.755,0,.755-.7a.651.651,0,0,0-.755-.715Zm-7.471-8.206c-1.868,0-2.583.656-2.583,2.583V-1.311c0,1.947.755,2.563,2.583,2.563h14.187A.71.71,0,0,0,105.51.5a.712.712,0,0,0-.835-.735H90.687c-.835,0-1.133-.437-1.133-1.152V-13.373c0-.755.338-1.152,1.133-1.152h13.591c.219,0,.835,0,.835-.735a.717.717,0,0,0-.835-.755Zm22.493,2.464c.536-.139.7-.457.7-.715a4.821,4.821,0,0,0-.7-1.51c-.437-.715-.636-1.013-1.093-1.013-.417,0-.914.278-.914.7a1.126,1.126,0,0,0,.2.517c.079.119.517.835.6.993.477.854.517.954.755,1.033h-1.152c-1.49,0-2.126.5-2.126,2.106V-9.8c0,.616.278.815.894.815.775,0,.795-.556.795-.835v-1.47a.744.744,0,0,1,.835-.854h12.339c.576,0,.835.278.835.854v1.47c0,.536.2.815.894.815.795,0,.795-.556.795-.815v-1.629c0-.815-.079-2.106-1.927-2.106h-1.033a9.025,9.025,0,0,0,1.272-2.5c0-.556-.616-.755-.934-.755-.457,0-.536.179-.993,1.113a19.724,19.724,0,0,1-1.152,2.146Zm5.941,8.206v-.417a26.937,26.937,0,0,0,2.822-1.55c1.073-.7,1.749-1.192,1.749-1.987,0-.994-.874-.994-1.55-.994h-9.379a.691.691,0,0,0-.775.735.657.657,0,0,0,.755.735h7.928c.258,0,.4,0,.4.179a9.671,9.671,0,0,1-2.861,1.768c-.576-.079-.795.219-.795.616v.914h-7.729a.714.714,0,0,0-.835.755.717.717,0,0,0,.835.755h7.729v2.682c0,.894-.457.993-1.053.993-.06,0-2.007-.04-2.047-.04A.7.7,0,0,0,113.3.6a1.029,1.029,0,0,0,.358.795c.179.119.417.119,1.093.119h2.027c1.629,0,2.146-.6,2.146-2.146v-3.2h7.372c.278,0,.835-.02.835-.755a.71.71,0,0,0-.835-.755Zm-1.729-11.624c-.219,0-.854.2-.854.7,0,.179.06.3.6,1.292.656,1.192.676,1.272,1.113,1.272.238,0,.914-.119.914-.735a5.231,5.231,0,0,0-.775-1.749C117.769-16.89,117.69-16.969,117.193-16.969Zm14.326,2.285a.707.707,0,0,0-.815.715.7.7,0,0,0,.815.735h.7a25.987,25.987,0,0,1,.775,3.974h-1.967a.657.657,0,0,0-.755.735c0,.735.536.735.775.735h9.12c.238,0,.775,0,.775-.715,0-.7-.457-.755-.775-.755h-2.106a39.2,39.2,0,0,0,.974-3.974h.715a.692.692,0,0,0,.795-.715.7.7,0,0,0-.795-.735h-3.318v-1.47c0-.2,0-.735-.775-.735-.576,0-.874.179-.874.735v1.47Zm5.921,1.451a31.808,31.808,0,0,1-.914,3.974H134.52a40.1,40.1,0,0,0-.795-3.974Zm-3.914,7.312c-1.689,0-2.146.477-2.146,2.146V-.815c0,1.689.477,2.166,2.146,2.166h4.093c1.709,0,2.146-.517,2.146-2.166V-3.775c0-1.709-.5-2.146-2.146-2.146ZM138.2-.954a.75.75,0,0,1-.854.854h-3.517a.75.75,0,0,1-.854-.854v-2.7c0-.676.358-.874.854-.874h3.517c.536,0,.854.238.854.874ZM143-14.068c0-.4.159-.656.636-.656h2.146c.238,0,.636,0,.636.4a22.386,22.386,0,0,1-1.888,4.153,1.991,1.991,0,0,0-.238.835c0,.457.04.5,1.192,1.768A5.624,5.624,0,0,1,147-4.093c0,.815-.278,2.186-1.788,2.186-.119,0-.775-.04-.914-.04-.536,0-.676.318-.676.755,0,.755.4.815.576.854.179.02,1.272.02,1.57,0,2.583-.139,2.9-2.583,2.9-3.5a6.114,6.114,0,0,0-.894-3.139,7.884,7.884,0,0,0-1.689-2.086.538.538,0,0,1-.2-.378.75.75,0,0,1,.1-.318c.656-1.192.715-1.311,1.073-2.086.954-2.066,1.033-2.464,1.033-2.981,0-1.431-1.152-1.431-2.066-1.431h-2.782c-1.47,0-1.868.437-1.868,1.868V.954c0,.6.238.835.854.835A.71.71,0,0,0,143,.954Zm10.988-.04c0-.4.179-.636.656-.636h1.192c.159,0,.536,0,.536.417a15.218,15.218,0,0,1-.974,2.921c-.4.934-.477,1.113-.477,1.411,0,.358.06.457.6,1.311a5.389,5.389,0,0,1,1.013,3.219c0,1.411-.6,1.411-1.669,1.411-.338,0-.536.219-.536.636,0,.934.517.934,1.033.934,1.093,0,2.742,0,2.742-2.643a7.309,7.309,0,0,0-1.391-4.193c-.3-.417-.338-.556-.338-.735,0-.219.079-.378.616-1.669a10.749,10.749,0,0,0,.993-3.259c0-1.292-1.053-1.292-1.828-1.292H154.33c-1.49,0-1.868.417-1.868,1.848V.954c0,.477.159.815.775.815.715,0,.755-.5.755-.815ZM159.636.974a.72.72,0,0,0,.775.835c.755,0,.795-.536.795-.835V-12.28a16.093,16.093,0,0,0,1.152-3.875c0-.556-.556-.656-.854-.656-.576,0-.7.338-.775.755a16.27,16.27,0,0,1-2.285,5.365c-.06.1-.874,1.192-.874,1.232a.7.7,0,0,0-.1.4.929.929,0,0,0,.854.974c.3,0,.536-.1,1.311-1.252Zm9.2-11.982h.815c.318,0,.715-.1.715-.795,0-.656-.4-.775-.715-.775h-.815v-3.477c0-.278-.02-.795-.815-.795-.815,0-.815.556-.815.795v3.477H162.6c-.318,0-.775.06-.775.795,0,.775.536.775.775.775h4.61v9.935c0,.676-.238.874-.775.914-.139.02-.815,0-.954,0-.755,0-1.311,0-1.311.755,0,.278.1.735.477.835a10.133,10.133,0,0,0,1.59.079c1.53,0,2.6-.06,2.6-2.126Zm-5.643,2.186a.748.748,0,0,0-.795.676,6.1,6.1,0,0,0,.517,1.272,18.234,18.234,0,0,1,.974,2.345c.358,1.073.417,1.192.874,1.192.3,0,.914-.139.914-.755a14.534,14.534,0,0,0-1.133-2.921C163.689-8.8,163.57-8.822,163.192-8.822ZM183.579-1.57c-.477.02-2.563.119-3.06.179-.238.02-.7.06-.7.6,0,.676.576.676.795.676.477,0,5.047-.437,6.637-.656.318.735.358.795.676.795a.579.579,0,0,0,.616-.556,6.912,6.912,0,0,0-.934-2.106c-.159-.3-.3-.378-.517-.378-.159,0-.576.079-.576.477,0,.2.06.3.238.7-.576.079-.755.1-1.649.159V-3.438h4.014a.591.591,0,0,1,.676.676V-.6a.592.592,0,0,1-.676.676c-.179,0-1.093-.04-1.292-.04a.64.64,0,0,0-.735.676c0,.795.616.795,1.033.795a8.812,8.812,0,0,0,2.424-.119c.795-.258.854-1.053.854-1.749v-2.4c0-1.451-.417-1.848-1.868-1.848h-4.431V-5.782h4.113c1.053,0,1.431-.258,1.431-1.411v-.735c0-1.133-.358-1.411-1.431-1.411h-4.113v-1.013c2.146-.1,3.04-.159,3.855-.238,1.113-.119,1.411-.159,1.411-.676a.561.561,0,0,0-.576-.636c-.2,0-1.609.179-1.927.2-3,.258-6.021.278-9.061.3-.378,0-.775,0-.775.6s.457.6.954.6c.854,0,4.193-.079,4.59-.079v.954h-3.934c-1.133,0-1.431.318-1.431,1.411v.735c0,1.152.358,1.411,1.431,1.411h3.934V-4.61h-4.272c-1.47,0-1.868.417-1.868,1.848V.914c0,.4.079.775.795.775s.775-.437.775-.775V-2.762a.591.591,0,0,1,.676-.676h3.895ZM180.2-6.895c-.318,0-.477-.139-.477-.477v-.4a.422.422,0,0,1,.477-.477h3.378v1.351Zm4.908-1.351h3.537a.428.428,0,0,1,.477.477v.4a.421.421,0,0,1-.477.477h-3.537Zm-8.465-4.173H189.58c1.172,0,1.47-.338,1.47-1.451v-.795c0-1.152-.318-1.47-1.47-1.47H176.9c-1.451,0-1.848.417-1.848,1.868v5.921a32.541,32.541,0,0,1-.238,3.378A16.18,16.18,0,0,1,173.5-.179a1.482,1.482,0,0,0-.159.636.913.913,0,0,0,.914.835c.417,0,.616-.179,1.053-1.292a26.316,26.316,0,0,0,1.331-8.385Zm0-1.828a.556.556,0,0,1,.636-.636h11.664c.358,0,.5.179.5.477v.3a.434.434,0,0,1-.5.5h-12.3Zm33.8,7.233a.592.592,0,0,1,.676.676V-.616c0,.7-.417.715-.755.715-.04,0-1.093-.04-1.292-.02a.612.612,0,0,0-.676.7.681.681,0,0,0,.536.715c.179.04,1.013.04,1.53.04,1.51,0,2.225-.06,2.225-1.868v-6.18c0-1.391-.536-1.828-1.828-1.828h-3.7c.04-.318.159-1.749.159-2.066h5.266c.2,0,.815,0,.815-.7,0-.676-.517-.715-.815-.715H200.866c-.238,0-.815.02-.815.715,0,.576.378.7.815.7h4.908c0,.2-.02,1.152-.1,2.066h-3.12c-1.311,0-1.828.477-1.828,1.828V.854a.7.7,0,0,0,.755.815c.556,0,.815-.2.815-.815V-6.339c0-.477.238-.676.7-.676h2.484a6.4,6.4,0,0,1-2.663,4.133.679.679,0,0,0-.338.556.893.893,0,0,0,.775.835c.517,0,2.325-1.371,3.318-4.133a10.377,10.377,0,0,0,2.086,2.98c.378.378,1.113,1.053,1.51,1.053a.761.761,0,0,0,.755-.715c0-.258-.02-.278-.854-.954A7.156,7.156,0,0,1,207.4-7.014ZM197.985-8.206c0,.219-.02.656-.02.815a24.678,24.678,0,0,1-2.345,1.133c-.676.3-.854.378-.854.854,0,.278.159.914.7.914a10.717,10.717,0,0,0,2.345-1.152A11.365,11.365,0,0,1,195.561.02a1,1,0,0,0-.278.636.912.912,0,0,0,.914.835c.278,0,.5,0,1.292-1.212a15.539,15.539,0,0,0,2.066-8.286v-4.65a.781.781,0,0,1,.894-.894h12.16c.517,0,.795-.179.795-.775,0-.7-.576-.7-.795-.7h-6.577v-1.053c0-.6-.338-.735-.894-.735-.616,0-.835.238-.835.735v1.053h-4.212c-1.51,0-2.106.517-2.106,2.106Zm-2.126-5.266a.78.78,0,0,0-.795.7,1.4,1.4,0,0,0,.159.517c.258.556.636,1.391.795,1.828.338.874.4.993.795.993a.854.854,0,0,0,.894-.735,8.1,8.1,0,0,0-.775-1.947C196.355-13.333,196.3-13.472,195.859-13.472Zm33.819-1.391v-1.311c0-.3-.079-.735-.795-.735-.795,0-.795.556-.795.735v1.311h-3.179c-1.252,0-1.828.4-1.828,1.828v1.59c0,.338.06.835.795.835a.716.716,0,0,0,.775-.835v-1.311a.558.558,0,0,1,.636-.636H232.4a.565.565,0,0,1,.636.636v1.311c0,.437.119.815.795.815.755,0,.775-.536.775-.815v-1.59c0-1.411-.556-1.828-1.828-1.828Zm2.5,5.047c.238,0,.775,0,.775-.715s-.536-.715-.775-.715H225.6a.659.659,0,0,0-.775.715.659.659,0,0,0,.775.715ZM217.2.934c0,.318.04.835.775.835.676,0,.775-.417.775-.835V-14.108c0-.417.179-.656.636-.656h1.232c.2,0,.517,0,.517.417a17.039,17.039,0,0,1-.974,2.841c-.417,1.053-.477,1.172-.477,1.391A1.407,1.407,0,0,0,220-9.3a6.575,6.575,0,0,1,1.272,3.8c0,1.391-.477,1.391-1.252,1.391-.536,0-.894,0-.894.795,0,.715.517.854.954.854a3.2,3.2,0,0,0,1.749-.258,2.617,2.617,0,0,0,.993-2.444,7.526,7.526,0,0,0-1.411-4.272c-.278-.378-.378-.517-.378-.7a4.967,4.967,0,0,1,.517-1.311,11.177,11.177,0,0,0,1.113-3.537c0-1.311-.954-1.311-1.927-1.311h-1.669c-1.451,0-1.868.378-1.868,1.848Zm13.77-7.193h3.338c.238,0,.835,0,.835-.755a.71.71,0,0,0-.835-.755h-10.73a.724.724,0,0,0-.854.755.724.724,0,0,0,.854.755h2.4c-.079,4.292-1.311,5.246-3.616,6.3-.358.159-.616.3-.616.715a.87.87,0,0,0,.795.894A5.9,5.9,0,0,0,225.008.4c2.106-1.689,2.464-3.934,2.523-6.656H229.4V-.278c0,1.788.7,1.868,2.265,1.868,2.047,0,2.444,0,2.8-.477a6.651,6.651,0,0,0,.616-2.921.689.689,0,0,0-.775-.795.577.577,0,0,0-.6.338c-.06.219-.159,1.331-.219,1.59-.139.735-.139.735-1.331.735-.894,0-1.192,0-1.192-.7Z" transform="translate(468.001 5489.508)" fill="#f0f0d8"/></g></svg>