<svg xmlns="http://www.w3.org/2000/svg" xmlns:xlink="http://www.w3.org/1999/xlink" width="252" height="58.358" viewBox="0 0 252 58.358"><defs><clipPath id="a"><rect width="252" height="58.359" fill="none"/></clipPath></defs><g transform="translate(0 0)"><g clip-path="url(#a)"><path d="M21.938,58.3c-10.03,0-17.763-4.925-20.684-13.176C.239,42.182-.12,38.958.033,34.289L.851,11.851A16.179,16.179,0,0,1,1.878,5.762,8.911,8.911,0,0,1,10.51.439c10.4,0,40.182,17.978,40.182,31.674,0,3.81-3.139,9.375-4.1,10.99-2.167,3.715-8.865,15.2-24.654,15.2" transform="translate(0 -0.104)" fill="#c04890"/></g></g><path d="M3.248-4.544A6.918,6.918,0,0,0,3.5-1.952C4.144-.144,5.824.688,7.888.688a6.507,6.507,0,0,0,5.84-3.7,7.468,7.468,0,0,0,.976-2.3c0-.432-.464-.672-.8-.672-.464,0-.544.208-.848.944-1.152,2.848-2.864,4.3-5.168,4.3A2.852,2.852,0,0,1,4.88-2.576a7.1,7.1,0,0,1-.16-2.1l.272-6.976c.032-.928.064-1.408-.736-1.408-.7,0-.7.352-.752,1.472Z" transform="translate(15.937 35.242)" fill="#fff"/><g transform="translate(0 0)"><g clip-path="url(#a)"><path d="M109.333,58.237c-3.707,0-17.234-2.779-19.915-11.894-1.325-4.506-1.288-12.764-1.288-13.689,0-4.673.517-12.564,1.62-16.144l0,0C92.2,7,112.846,6.417,116.23,6.417c11.629,0,20.549,14.088,20.549,25.734,0,18.159-18.743,26.087-27.446,26.087" transform="translate(-20.831 -1.517)" fill="#00a8c0"/></g></g><path d="M8.8-8.736c-2.464.4-4,2.576-4.88,5.3-.016-.288-.032-.576-.032-1.024A20.337,20.337,0,0,1,4.08-7.12c.032-.24.272-1.7.272-1.76,0-.4-.448-.5-.656-.5a.5.5,0,0,0-.528.3,20.317,20.317,0,0,0-.416,4.464A17.957,17.957,0,0,0,3.072-.9a.564.564,0,0,0,.576.48c.48,0,.528-.3.576-.7.224-1.632,1.52-5.856,4.624-6.48l.064,1.5A12,12,0,0,1,8.5-2.08a3.482,3.482,0,0,1-1.088-.928c-.16-.192-.256-.32-.5-.32a.556.556,0,0,0-.528.544c0,.416.688,1.216,1.616,1.68A5.261,5.261,0,0,1,7.008-.016c-.432.368-.48.416-.48.624a.658.658,0,0,0,.64.592C7.536,1.2,8.5.448,9.232-.752a3.117,3.117,0,0,0,.5.032,3.78,3.78,0,0,0,3.84-4.048,3.807,3.807,0,0,0-3.52-4L10-9.872c-.016-.336-.016-.752-.64-.752s-.608.448-.592.832Zm1.264,1.12a2.617,2.617,0,0,1,2.32,2.8A2.747,2.747,0,0,1,9.7-1.792a10.813,10.813,0,0,0,.432-4.288Z" transform="translate(83.066 35.242)" fill="#fff"/><g transform="translate(0 0)"><g clip-path="url(#a)"><path d="M190.477,58.314c-11.411,0-19.693-6.8-19.693-16.169,0-7.474,19.175-37.648,20.963-39.438A9.43,9.43,0,0,1,198.632,0c4.6,0,20.191,6.8,24.2,14.863,1.453,2.921,4.376,22.9,4.3,29.1-.2,15.945-30.684,14.356-36.658,14.356" transform="translate(-40.367 0)" fill="#f07800"/></g></g><path d="M8.672-8.448c1.248-.048,2.784-.144,4.016-.32.432-.064.832-.16.832-.688,0-.208-.08-.736-.608-.736-.3,0-1.76.24-2.08.272-.272.032-1.04.1-2.176.128l-.032-2.64c0-.288-.016-.8-.72-.8-.736,0-.72.544-.72.8l.144,7.616a13.794,13.794,0,0,0-1.568-.1c-3.312,0-4.384,1.5-4.384,2.752C1.376-.288,3.264.656,5.312.656c3.488,0,3.456-2.08,3.424-3.9a16.925,16.925,0,0,1,4.32,1.936c.544.336.768.464.928.464a.7.7,0,0,0,.656-.736c0-.528-.784-.944-1.664-1.392a18.266,18.266,0,0,0-4.256-1.6ZM7.344-3.52c0,2.08-.016,2.912-2.16,2.912-.8,0-2.512-.288-2.512-1.536,0-.928,1.12-1.52,3.024-1.52A11.355,11.355,0,0,1,7.344-3.52Z" transform="translate(150.197 35.242)" fill="#fff"/><g transform="translate(0 0)"><g clip-path="url(#a)"><path d="M278.93,58.336c-16.349,0-18.982-28.207-18.333-32.933.713-5.2,6.318-25.029,17.981-25.029,1.328,0,2.249.252,6.914,1.588.956.274,2.265.649,2.6.729a73.976,73.976,0,0,0,9.648,1.734c10.986,1.048,15.839,20.246,15.839,27.221,0,9.172-4.892,16.857-13.774,21.638a46.04,46.04,0,0,1-20.87,5.051" transform="translate(-61.575 -0.088)" fill="#a8d800"/></g></g><path d="M4.464-12.3c0,.416.192.528,1.344.864a26.705,26.705,0,0,0,5.056.992c.64,0,.64-.72.64-.736,0-.528-.416-.592-.64-.624-1.12-.16-2.32-.352-3.28-.592-.4-.1-2.3-.672-2.48-.672A.689.689,0,0,0,4.464-12.3ZM1.712-7.44a.722.722,0,0,0,.7.768A15.55,15.55,0,0,0,4.1-7.12,22.392,22.392,0,0,1,9.312-8.1c2.832,0,3.12,1.632,3.12,2.656,0,2.608-2.608,4.432-6.768,4.736-1.024.08-1.3.1-1.3.672C4.368.7,4.96.7,5.216.7,8.384.7,13.9-.784,13.9-5.456,13.9-7.744,12.5-9.44,9.376-9.44a22.349,22.349,0,0,0-5.408.88C1.968-8.064,1.712-8,1.712-7.44Z" transform="translate(217.322 35.242)" fill="#fff"/></svg>