<svg xmlns="http://www.w3.org/2000/svg" width="66.383" height="75.771" viewBox="0 0 66.383 75.771"><path d="M28.728,76.21c-13.135,0-23.261-6.45-27.086-17.254C.313,55.1-.157,50.881.044,44.767l1.07-29.384c.125-2.916.232-5.433,1.346-7.973.919-2.1,3.861-6.971,11.3-6.971,13.613,0,52.619,23.542,52.619,41.478,0,4.989-4.11,12.277-5.369,14.392-2.838,4.865-11.609,19.9-32.285,19.9" transform="translate(0.001 -0.439)" fill="#c04890"/><path d="M9.253-9.768a15.568,15.568,0,0,0,2.548-.383.382.382,0,0,0,.33-.422.418.418,0,0,0-.409-.462c-.092,0-1.267.238-1.5.277a43.925,43.925,0,0,1-4.382.317c-.3,0-.528.026-.528.409,0,.449.317.449.713.449.568,0,1.478-.053,2.218-.106v.845H5.267c-.3,0-.5.132-.5.449,0,.37.277.436.5.436h2.97v.779H6.574c-.977,0-1.228.29-1.228,1.241v1.769c0,.977.264,1.241,1.228,1.241H8.237v.911H5.465c-.317,0-.475.132-.475.436s.172.422.462.422H8.237V-.092h-3c-.238,0-.5.092-.5.436,0,.4.356.422.5.422h7.049c.277,0,.5-.106.5-.422,0-.37-.29-.436-.5-.436H9.253V-1.162h2.759c.343,0,.475-.158.475-.436,0-.3-.185-.422-.475-.422H9.253V-2.93h1.69c.99,0,1.241-.29,1.241-1.241V-5.94c0-.964-.277-1.241-1.241-1.241H9.253V-7.96h2.97c.29,0,.488-.119.488-.436,0-.383-.277-.449-.488-.449H9.253ZM6.31-6.085c0-.224.119-.317.33-.317h1.6v.977H6.31ZM6.64-3.7a.288.288,0,0,1-.33-.33v-.7H8.237V-3.7ZM9.253-5.425V-6.4h1.624c.211,0,.33.092.33.317v.66Zm1.954,1.4a.288.288,0,0,1-.33.33H9.253v-1.03h1.954ZM3.59-3.3V-.515c0,.462-.211.462-.7.462-.62,0-.818.066-.818.475,0,.554.4.594.937.594,1.267,0,1.5-.317,1.5-1.241V-9.544c0-.964-.264-1.241-1.241-1.241H2.231c-.977,0-1.228.29-1.228,1.241v5.227A14.486,14.486,0,0,1,.686-.977C.647-.766.29.2.29.436A.551.551,0,0,0,.871.964c.317,0,.383-.172.594-.858a13.8,13.8,0,0,0,.5-3.406ZM1.98-9.438c0-.224.092-.33.317-.33h.977c.224,0,.317.119.317.33v1.967H1.98ZM3.59-4.25H1.98v-2.27H3.59ZM24.763-7.537c0-.858-.29-1.109-1.135-1.109H18.8c-.858,0-1.135.277-1.135,1.109v1.214c0,.858.29,1.122,1.135,1.122h4.831c.845,0,1.135-.277,1.135-1.122ZM18.731-7.3v-.317a.293.293,0,0,1,.33-.33h4.316a.288.288,0,0,1,.33.33V-7.3Zm4.976,1.082a.288.288,0,0,1-.33.33H19.061a.288.288,0,0,1-.33-.33v-.436h4.976ZM22.123-2.455A6.876,6.876,0,0,1,19.919-.2c-.832.488-.924.541-.924.752a.546.546,0,0,0,.5.541c.475,0,2.614-1.5,3.683-3.551h.62a.365.365,0,0,1,.409.383A7.577,7.577,0,0,1,24-.607c-.145.554-.383.634-.686.647-.092.013-.832,0-.99,0-.277,0-.607,0-.607.436a.492.492,0,0,0,.554.515c.158.013.647.013.964.013.62,0,1.241-.026,1.571-.858a8.674,8.674,0,0,0,.422-2.363c0-.937-.568-1.03-1.175-1.03H19.364a7.189,7.189,0,0,0,.475-.594h5.57c.224,0,.488-.079.488-.422,0-.409-.409-.409-.5-.409h-8.29a.392.392,0,0,0-.436.422.4.4,0,0,0,.436.409h1.65c-.106.092-.554.594-.66.686a7.2,7.2,0,0,1-1.228.832c-.607.29-.647.317-.647.554a.441.441,0,0,0,.409.462,4.852,4.852,0,0,0,1.927-1.148h1.175c-.172.185-.4.449-.5.554A6.5,6.5,0,0,1,17.49-.713c-.766.343-.818.37-.818.607a.548.548,0,0,0,.488.554,3.467,3.467,0,0,0,1-.449A8.58,8.58,0,0,0,20.9-2.455ZM15.484-5.61c0,.185,0,.277-.013.686a12.506,12.506,0,0,1-1.333.752c-.581.29-.673.343-.673.647,0,.264.145.594.449.594.211,0,.462-.145,1.478-.832A7.875,7.875,0,0,1,13.979.066a.576.576,0,0,0-.145.37c0,.356.4.541.62.541s.409-.132.832-.858A11.508,11.508,0,0,0,16.526-5.65V-8.686c0-.4.172-.594.581-.594h8.21c.158,0,.541,0,.541-.462s-.4-.462-.541-.462H20.962v-.554c0-.264-.119-.449-.568-.449-.554,0-.568.3-.568.449v.554H16.883c-.99,0-1.4.343-1.4,1.4Zm-1.32-3.406c-.158,0-.5.132-.5.449a.745.745,0,0,0,.092.343c.2.462.436,1.016.488,1.175.185.528.224.673.554.673a.481.481,0,0,0,.515-.462A5.045,5.045,0,0,0,14.916-8C14.52-8.9,14.48-9.016,14.164-9.016Z" transform="translate(5.46 26.983)" fill="#fff"/><path d="M5.372-6.508l4.7-.3c.185-.013.264-.013.264.079A8.053,8.053,0,0,1,8.9-4.8c-.62.647-.634.673-.634.871a.581.581,0,0,0,.594.528c.343,0,.766-.5,1.135-.924.673-.792,1.927-2.376,1.927-2.97,0-.726-.739-.673-1.254-.647L5.372-7.63v-2.693c0-.224-.026-.581-.594-.581s-.594.4-.594.581v2.759l-2.719.172c-.29.013-.581.106-.581.554a.534.534,0,0,0,.647.581l2.653-.172v4.4C4.184.145,5.518.343,7.828.343,8.158.343,9.517.33,11,.264c.356-.013.766-.079.766-.634a.518.518,0,0,0-.581-.568c-.119,0-.686.04-.818.053-.858.04-1.7.066-2.561.066-2.02,0-2.429-.106-2.429-1.4ZM24.71-7.3a.593.593,0,0,0-.5.343,15.363,15.363,0,0,1-1.98,2.389A14.071,14.071,0,0,1,16.012-.99c-.845.211-1.056.264-1.056.686A.68.68,0,0,0,15.6.409,13.827,13.827,0,0,0,21.041-1.98c2.693-1.874,4.33-4.33,4.33-4.712A.68.68,0,0,0,24.71-7.3ZM15.616-9.821a.642.642,0,0,0-.647.62c0,.264.185.383.383.475a18.153,18.153,0,0,1,2.772,1.294,1.414,1.414,0,0,0,.62.251.656.656,0,0,0,.581-.673c0-.264,0-.462-1.769-1.267A9.14,9.14,0,0,0,15.616-9.821Zm16.632-.053c-1.135,0-1.214.066-1.729.95a10.317,10.317,0,0,1-2.376,2.864c-.33.277-.475.4-.475.647a.653.653,0,0,0,.607.607c.383,0,1.307-.937,1.742-1.439a32.527,32.527,0,0,1,4.2,2.666A10.766,10.766,0,0,1,29.964-.62c-.488.185-.792.3-.792.66a.616.616,0,0,0,.568.62,10.765,10.765,0,0,0,4.528-2.6,11.742,11.742,0,0,0,3.485-6.93c0-1-.924-1-1.267-1Zm3.643,1.109c.251,0,.554,0,.554.356a6.328,6.328,0,0,1-.317,1.4,10.4,10.4,0,0,1-1.214,2.482,33.787,33.787,0,0,0-4.2-2.561c.158-.224.832-1.267.977-1.452a.563.563,0,0,1,.528-.224Zm5.227,3.142a.522.522,0,0,0-.607.581.522.522,0,0,0,.607.568H51.282a.518.518,0,0,0,.607-.554.522.522,0,0,0-.607-.594Z" transform="translate(5.46 42.388)" fill="#fff"/><path d="M1.531-4.33A15.524,15.524,0,0,0,2.046.04a.563.563,0,0,0,.568.409.528.528,0,0,0,.581-.475,3.544,3.544,0,0,0-.132-.7A14.706,14.706,0,0,1,2.68-4.264a22.936,22.936,0,0,1,.541-4.871,3.166,3.166,0,0,0,.119-.66.547.547,0,0,0-.594-.528.515.515,0,0,0-.515.317A24.778,24.778,0,0,0,1.531-4.33ZM11.563-8.672a.5.5,0,0,0-.264-.475A11.435,11.435,0,0,0,9.108-9.28a29.156,29.156,0,0,0-3.01.172c-.422.053-.66.2-.66.594,0,.581.317.581.515.581.053,0,.5-.026.594-.04.766-.066,1.584-.145,2.6-.145.277,0,1.769.066,1.822.066C11.154-8.052,11.563-8.052,11.563-8.672ZM4.976-2.442C4.976-.449,7.339-.29,9.068-.29a14.072,14.072,0,0,0,2.706-.238.554.554,0,0,0,.383-.568.5.5,0,0,0-.568-.554,5.271,5.271,0,0,0-.528.053,16.74,16.74,0,0,1-2.086.158c-1.822,0-2.917-.224-2.917-1.188a1.8,1.8,0,0,1,.475-1,.583.583,0,0,0,.145-.343c0-.264-.317-.409-.541-.409C5.544-4.382,4.976-3.155,4.976-2.442Zm9.676-5.742c-.37.092-.7.211-.7.634a.6.6,0,0,0,.581.673,9.84,9.84,0,0,0,1.2-.317,21.905,21.905,0,0,1,5.148-1A2.947,2.947,0,0,1,24.13-5.174c0,3.643-4.673,3.828-5.689,3.868-.95.04-1.188.053-1.188.541,0,.66.528.66.845.66a15.532,15.532,0,0,0,3.538-.488A4.552,4.552,0,0,0,25.37-5.161c0-2.191-1.478-4.158-4.488-4.158a12.956,12.956,0,0,0-3.26.436Zm14.018-1.7c-.462,0-.528.356-.568.554a19.877,19.877,0,0,0-.264,3.26c0,4.264,1.558,6.283,2.838,6.283,1.742,0,2.772-3.538,2.772-3.722a.564.564,0,0,0-.607-.5c-.3,0-.343.079-.634.845-.33.884-.924,2.072-1.492,2.072-.964,0-1.7-2.191-1.7-4.91a18.068,18.068,0,0,1,.145-2.31c.026-.158.145-.924.145-1.1C29.3-9.755,28.974-9.887,28.67-9.887Zm7.524.937a.577.577,0,0,0-.568.541c0,.132.04.185.356.673a10.319,10.319,0,0,1,1.5,4.514c.079.937.119,1.333.62,1.333.607,0,.607-.568.607-.858a10.687,10.687,0,0,0-.884-4.039C37.514-7.511,36.762-8.95,36.194-8.95ZM47.876-8.8c-2.323,1.056-3.854,2.627-3.854,4.871,0,3.841,4.5,4.435,4.8,4.435a.622.622,0,0,0,.62-.634c0-.436-.238-.488-.924-.634-.95-.2-3.326-.937-3.326-3.274,0-2.389,2.838-4.422,5.689-4.752C51.665-8.884,51.9-8.91,51.9-9.4c0-.607-.383-.607-.581-.607-.106,0-.37.013-.5.026l-8.554.607c-.013,0-1.122.053-1.32.079a.558.558,0,0,0-.554.594.565.565,0,0,0,.541.62,5.6,5.6,0,0,0,.568-.053Z" transform="translate(5.46 57.792)" fill="#fff"/></svg>