<svg xmlns="http://www.w3.org/2000/svg" width="69.491" height="75.902" viewBox="0 0 69.491 75.902"><path d="M284.632,76.276c-21.41,0-24.857-36.938-24.008-43.126.934-6.8,8.273-32.776,23.547-32.776,1.739,0,2.945.33,9.054,2.079,1.252.359,2.966.85,3.4.954a96.873,96.873,0,0,0,12.634,2.271C323.644,7.05,330,32.191,330,41.325c0,12.011-6.406,22.075-18.038,28.336a60.291,60.291,0,0,1-27.33,6.615" transform="translate(-260.509 -0.374)" fill="#a8d800"/><path d="M4.25-8.422C3.656-8.4,3.01-8.4,2.864-8.4s-.832-.026-.977-.026c-.277,0-.594.092-.594.554,0,.581.356.581,1.492.581.634,0,1.241-.026,1.465-.04v2.059C2.825-4.594,1-3.419,1-1.8,1-.317,2.653.541,3.788.541c1.571,0,1.584-1.386,1.584-2.27V-4.62A8.141,8.141,0,0,1,8.118-5.2c1.914,0,2.772.99,2.772,2.284a1.93,1.93,0,0,1-2.2,2.086A2.527,2.527,0,0,1,8.092-.9a1.554,1.554,0,0,0-.356-.066.508.508,0,0,0-.5.528c0,.62.845.726,1.518.726a3.047,3.047,0,0,0,3.3-3.234c0-1.782-1.241-3.313-3.749-3.313a8.546,8.546,0,0,0-2.93.554v-1.7c.211-.013,1.7-.185,2.336-.33.277-.066.634-.172.634-.568a.532.532,0,0,0-.5-.554c-.053,0-.673.119-.779.132-.488.092-1.241.185-1.69.224v-1.808a.525.525,0,0,0-.568-.607c-.554,0-.554.436-.554.607Zm.013,6.653c0,.686,0,1.241-.634,1.241S2.059-1.043,2.059-1.782c0-1.162,1.848-2.138,2.2-2.336Zm5.359-7.92a.558.558,0,0,0-.541.515.6.6,0,0,0,.277.449A11.205,11.205,0,0,1,10.771-7.5c.7.766.726.779.95.779a.606.606,0,0,0,.594-.581c0-.4-.779-1.069-1.214-1.439S9.953-9.689,9.623-9.689ZM15.378.594c0,.211.026.554.528.554.462,0,.541-.264.541-.554V-5.663a7.123,7.123,0,0,0,1.32-2.152.577.577,0,0,0-.607-.528c-.185,0-.3.106-.422.3a11.045,11.045,0,0,1-1.769,2.416c-.2.211-1.241,1.1-1.346,1.254a.546.546,0,0,0-.106.317.568.568,0,0,0,.528.634c.343,0,1-.673,1.333-1.016Zm7.5-5.135c.277,0,.488,0,.488.29a4.666,4.666,0,0,1-1.822,2.376,7.183,7.183,0,0,1-1.531-2.178.559.559,0,0,0-.515-.33.533.533,0,0,0-.568.475A6.91,6.91,0,0,0,20.7-1.28,10.415,10.415,0,0,1,17.82-.066c-.343.079-.568.158-.568.475,0,.251.172.647.515.647A10.016,10.016,0,0,0,21.529-.581,10.174,10.174,0,0,0,25.4,1.056a.594.594,0,0,0,.568-.647c0-.356-.2-.436-.528-.5A10.871,10.871,0,0,1,22.4-1.254a5.858,5.858,0,0,0,2.2-3.34c0-.964-.95-.964-1.373-.964H18.256c-.211,0-.528.04-.528.515s.343.5.528.5Zm-5.557-6.085a.564.564,0,0,0-.568-.475c-.251,0-.29.053-.858.832a9.678,9.678,0,0,1-1.94,1.8c-.185.132-.317.224-.317.488a.613.613,0,0,0,.541.634c.185,0,.356-.092.673-.343a12.458,12.458,0,0,0,2.1-2.191C17.305-10.388,17.318-10.454,17.318-10.626Zm4.7.858c.356,0,.436.2.436.422v1.584c0,1.228.4,1.228,1.927,1.228.568,0,.924-.013,1.214-.436a3.089,3.089,0,0,0,.4-1.465.52.52,0,0,0-.554-.515c-.33,0-.343.092-.515.884-.119.528-.211.541-.766.541-.422,0-.66,0-.66-.462V-9.557c0-.95-.264-1.241-1.241-1.241H20.341c-.779,0-1.228.158-1.294,1.056a2.948,2.948,0,0,1-1.175,2.6c-.172.132-.3.251-.3.462a.618.618,0,0,0,.594.594c.3,0,.713-.4.818-.5a3.829,3.829,0,0,0,1.109-2.64c.026-.475.106-.541.475-.541Zm11.59.422v-1.267c0-.37-.132-.568-.62-.568a.5.5,0,0,0-.568.568v1.267H27.9c-.264,0-.581.066-.581.541a.5.5,0,0,0,.581.528h10.2a.506.506,0,0,0,.594-.541.511.511,0,0,0-.594-.528ZM29.964-7.418c-.515,0-.66.3-.66.488a1.232,1.232,0,0,0,.053.29,21.307,21.307,0,0,1,1.1,4.871.531.531,0,0,0,.554.528.583.583,0,0,0,.62-.554,23.744,23.744,0,0,0-1.03-4.7C30.386-7.154,30.294-7.418,29.964-7.418Zm5.412,1.584A26.914,26.914,0,0,1,33.515-.5H27.43a.511.511,0,0,0-.594.541.507.507,0,0,0,.594.528H38.6a.5.5,0,0,0,.581-.541A.5.5,0,0,0,38.6-.5H34.7a28,28,0,0,0,2.152-6.574.584.584,0,0,0-.634-.528.545.545,0,0,0-.581.5ZM44.5-7.55a43,43,0,0,0,5.716-.607c.33-.066.673-.145.673-.581,0-.026,0-.581-.5-.581-.092,0-.752.132-1.135.2a29.174,29.174,0,0,1-4.422.488,14.028,14.028,0,0,0,.449-1.822c0-.422-.554-.449-.62-.449-.436,0-.5.29-.554.5s-.409,1.742-.422,1.8H43.23c-.33,0-1.9-.079-2.086-.079a.506.506,0,0,0-.541.568.5.5,0,0,0,.436.541,22.567,22.567,0,0,0,2.35.053c-.5,1.7-.977,2.878-1.069,3.1a6.792,6.792,0,0,0-.343.937.61.61,0,0,0,.62.568c.2,0,.277-.066.594-.277A8.221,8.221,0,0,1,47.533-4.66c1.9,0,2.548.977,2.548,1.835C50.081-.5,46.292-.5,45.632-.5A14.335,14.335,0,0,1,43.573-.66a2.863,2.863,0,0,0-.449-.053.538.538,0,0,0-.515.541.558.558,0,0,0,.449.541,14.208,14.208,0,0,0,2.614.211c1.043,0,5.584,0,5.584-3.366,0-1.386-1.016-2.891-3.643-2.891a8.124,8.124,0,0,0-4.171,1.228C43.982-5.874,44.114-6.283,44.5-7.55ZM10.982,14.56v.832c0,.251-.079.4-.317.436-.106.013-.818,0-.977,0-.238,0-.541,0-.541.488a.467.467,0,0,0,.356.5c.145.026.858.026,1.069.026,1.1,0,1.492-.106,1.492-1.241V11.761c0-.924-.37-1.214-1.214-1.214H6.389c-.871,0-1.214.3-1.214,1.214v4.752c0,.409.185.541.554.541a.463.463,0,0,0,.5-.541V14.56ZM6.23,12.21v-.37c0-.317.158-.436.422-.436H10.56c.29,0,.422.145.422.436v.37Zm4.752,1.584H6.23v-.818h4.752Zm-7.8-8.7c0-.251-.053-.515-.528-.515s-.515.33-.515.515V16.553c0,.356.158.5.554.5a.433.433,0,0,0,.488-.5ZM1.241,7.273c-.29,0-.422.04-.449.409A18.7,18.7,0,0,1,.5,9.926a7.437,7.437,0,0,0-.185.818.413.413,0,0,0,.462.37c.317,0,.37-.211.462-.62A15.6,15.6,0,0,0,1.6,7.735C1.6,7.6,1.6,7.273,1.241,7.273Zm2.653-.462a.384.384,0,0,0-.409.356,1.035,1.035,0,0,0,.079.3c.04.119.224.607.264.713.2.581.224.647.462.647a.424.424,0,0,0,.449-.4,4.092,4.092,0,0,0-.317-.964C4.184,6.93,4.118,6.811,3.894,6.811Zm5.227-1.28V5.042c0-.185-.053-.449-.541-.449-.422,0-.528.224-.528.449v.488H5.2c-.422,0-.5.224-.5.436,0,.264.132.436.5.436H8.052v.871h-2.6c-.436,0-.436.264-.436.4,0,.2.066.4.436.4h2.6V8.95H4.871c-.356,0-.488.158-.488.449,0,.317.2.436.488.436H12.2c.409,0,.488-.211.488-.449,0-.3-.158-.436-.488-.436H9.121V8.065h2.614c.264,0,.449-.119.449-.4,0-.343-.264-.4-.449-.4H9.121V6.4h2.838c.264,0,.488-.106.488-.436a.435.435,0,0,0-.488-.436ZM24.05,10.639c.172,0,.488,0,.488.33a2.949,2.949,0,0,1-.092.528,8.07,8.07,0,0,1-.832,2.218A8.438,8.438,0,0,1,22.6,11.59c-.066-.185-.145-.4-.449-.4a.451.451,0,0,0-.488.449,8.389,8.389,0,0,0,1.4,2.97,6.366,6.366,0,0,1-1.109,1.122c-.145.132-.277.251-.277.449a.609.609,0,0,0,.554.581c.4,0,1.175-.964,1.465-1.333.4.449,1.228,1.386,1.637,1.386a.591.591,0,0,0,.3-1.082,11.18,11.18,0,0,1-1.36-1.188A9.182,9.182,0,0,0,25.5,10.718c0-1.03-.858-1.03-1.254-1.03h-2.93V6.706a.52.52,0,0,1,.594-.594h2.046c.37,0,.436.132.436.383a5.362,5.362,0,0,1-.132,1.016c-.079.264-.158.462-.462.488-.145.013-.818,0-.977,0s-.488,0-.488.449c0,.528.37.528.673.528,1.346,0,1.637,0,1.927-.33a5.022,5.022,0,0,0,.528-2.508c0-.845-.488-1.043-1.175-1.043H21.7c-1.1,0-1.412.436-1.412,1.412v9.887c0,.383.145.541.541.541a.464.464,0,0,0,.488-.541V10.639ZM17.371,5.953V5.161c0-.37-.145-.5-.568-.5a.429.429,0,0,0-.488.5v.792H14.533c-.238,0-.515.053-.515.488,0,.475.343.488.515.488h1.782V8.3H14.15a.441.441,0,0,0-.5.488.407.407,0,0,0,.462.449h.554A14.872,14.872,0,0,1,15.18,11H14.2a.439.439,0,0,0-.488.488.446.446,0,0,0,.515.475h2.086V13.49H14.546c-.211,0-.528.04-.528.488a.454.454,0,0,0,.528.488h1.769v1.954c0,.29.066.554.528.554.515,0,.528-.343.528-.554V14.467h1.835a.489.489,0,1,0,0-.977H17.371V11.959h2.165c.356,0,.462-.185.462-.488A.416.416,0,0,0,19.536,11h-.9a13.708,13.708,0,0,0,.475-1.756H19.6c.409,0,.449-.264.449-.475,0-.356-.2-.462-.475-.462h-2.2V6.93H19.18c.224,0,.5-.053.5-.488a.429.429,0,0,0-.5-.488ZM16.157,11c-.066-.29-.475-1.65-.515-1.756h2.416A9.976,9.976,0,0,1,17.648,11Z" transform="translate(8.246 34.951)" fill="#fff"/></svg>