<svg xmlns="http://www.w3.org/2000/svg" width="73.795" height="76.421" viewBox="0 0 73.795 76.421"><path d="M196.572,76.364c-14.943,0-25.788-8.9-25.788-21.174,0-9.788,25.11-49.3,27.452-51.645A12.349,12.349,0,0,1,207.252,0c6.022,0,26.44,8.9,31.7,19.463,1.9,3.825,5.73,29.99,5.63,38.1-.258,20.88-40.182,18.8-48,18.8" transform="translate(-170.784)" fill="#f07800"/><path d="M7.115-3.67H10.89c.845,0,1.188-.211,1.188-1.148v-.62c0-.937-.356-1.148-1.188-1.148H7.115v-.805h3.524c.845,0,1.2-.2,1.2-1.148v-.607c0-.911-.33-1.135-1.188-1.135H7.115v-.475c0-.37-.185-.462-.581-.462-.449,0-.488.264-.488.462v.475H2.508c-.884,0-1.175.251-1.175,1.135v.607c0,.937.33,1.148,1.175,1.148H6.046v.805h-3.8c-.845,0-1.188.224-1.188,1.148v.62c0,.95.37,1.148,1.188,1.148h3.8v.343c0,.277.145.409.568.409.475,0,.5-.264.5-.409ZM2.825-8.21A.372.372,0,0,1,2.4-8.633v-.436a.372.372,0,0,1,.422-.422H6.046v1.28Zm4.29-1.28h3.234a.372.372,0,0,1,.422.422v.436a.372.372,0,0,1-.422.422H7.115ZM2.587-4.475c-.3,0-.422-.145-.422-.422v-.449a.372.372,0,0,1,.422-.422H6.046v1.294ZM7.115-5.768h3.432a.371.371,0,0,1,.422.422V-4.9c0,.251-.092.422-.422.422H7.115Zm-4.976,3.1c-.33,0-.422.3-.475.462A7.226,7.226,0,0,1,.858-.475C.475.053.436.106.436.251a.605.605,0,0,0,.62.541c.185,0,.356,0,.964-1.1a6.7,6.7,0,0,0,.752-1.874C2.772-2.653,2.165-2.666,2.138-2.666Zm2.627.752c0-.2-.013-.515-.554-.515s-.554.343-.554.515V-.2c0,.95.5,1.122,1.32,1.122h2.9C8.646.924,8.963.818,9.2.607a3.021,3.021,0,0,0,.541-1.624c0-.488-.528-.541-.647-.541-.409,0-.462.251-.5.5-.119.634-.145.858-.4.937a16.86,16.86,0,0,1-2.759.053c-.409,0-.673,0-.673-.462Zm5.927-.964a.582.582,0,0,0-.66.5.751.751,0,0,0,.211.462A12.618,12.618,0,0,1,11.51-.106c.3.515.343.594.62.594a.6.6,0,0,0,.62-.541,5.109,5.109,0,0,0-.805-1.492C11.642-1.98,11.035-2.825,10.692-2.878Zm-5-.092a.538.538,0,0,0-.5.488c0,.185.092.264.251.356a9.636,9.636,0,0,1,1.228.752c.4.29.488.356.673.356a.531.531,0,0,0,.488-.528c0-.158,0-.264-.647-.673A5.106,5.106,0,0,0,5.689-2.97ZM22.07-7.22c.554-.488.911-.805,1.676-1.571.409-.409,1.36-1.4,1.36-1.782A.6.6,0,0,0,24.5-11.1c-.251,0-.356.145-.541.4a17.147,17.147,0,0,1-3.5,3.485h-.977V-8.87h2.442a.474.474,0,0,0,.554-.475c0-.475-.409-.475-.554-.475H19.483v-.884c0-.409-.238-.515-.581-.515a.463.463,0,0,0-.528.515v.884H15.167a.479.479,0,0,0-.554.475c0,.475.409.475.554.475h3.208v1.65H14.216a.477.477,0,0,0-.554.488.479.479,0,0,0,.554.475h4.858a20.572,20.572,0,0,1-4.792,2.231c-.3.092-.594.2-.594.568a.573.573,0,0,0,.541.594A11.734,11.734,0,0,0,16.012-3.5V-.581c0,1.122.462,1.452,1.465,1.452h5.465c1.016,0,1.452-.343,1.452-1.452V-3.524c0-1.135-.462-1.452-1.452-1.452H18.916a22.065,22.065,0,0,0,1.94-1.28h4.528a.477.477,0,0,0,.554-.488.474.474,0,0,0-.554-.475ZM17.094-2.574V-3.5a.507.507,0,0,1,.581-.568h5.069a.508.508,0,0,1,.581.568v.924Zm6.23.884V-.634a.507.507,0,0,1-.581.568H17.675c-.422,0-.581-.211-.581-.568V-1.69ZM34.782-7.55a22.694,22.694,0,0,0,3.01-.845c.264-.106.5-.224.5-.541a.61.61,0,0,0-.541-.647,8.5,8.5,0,0,0-.937.3,15.626,15.626,0,0,1-2.64.726c-.568-.964-.713-1.254-1.069-1.967-.106-.2-.224-.449-.554-.449-.277,0-.66.158-.66.5a.7.7,0,0,0,.092.343c.092.172.937,1.637,1.016,1.769a22.5,22.5,0,0,1-3.208.238c-.211,0-1.267-.026-1.492-.026s-.62,0-.62.554c0,.607.488.607,1.307.607a30.41,30.41,0,0,0,4.646-.356A33.285,33.285,0,0,0,35.68-4.448a9.685,9.685,0,0,0-1.069-.343A.457.457,0,0,0,34.2-4.3a.34.34,0,0,0,.277.383c.172.053,1.016.29,1.2.356a7.633,7.633,0,0,0,1.28.515.6.6,0,0,0,.581-.594.768.768,0,0,0-.238-.488A31.653,31.653,0,0,1,34.782-7.55ZM29.528-2.442a1.332,1.332,0,0,1,.185-.713,1.354,1.354,0,0,0,.224-.488.547.547,0,0,0-.581-.462c-.554,0-.964.99-.964,1.716,0,.9.515,2.97,5.029,2.97A16.335,16.335,0,0,0,36.5.317c.4-.079.7-.2.7-.607a.508.508,0,0,0-.515-.554c-.04,0-.924.132-1.03.158A15.9,15.9,0,0,1,33.4-.528C31.891-.528,29.528-.805,29.528-2.442ZM43.943-5.069c.29-.568,1.214-2.363,2.323-4.448.29-.541.29-.607.29-.713a.623.623,0,0,0-.634-.515c-.317,0-.436.2-.752.832-1.254,2.495-3.234,6.508-4.488,9-.172.356-.211.422-.211.607A.6.6,0,0,0,41.1.224c.211,0,.317-.092.5-.409.185-.343.99-2.033,1.2-2.4,1.386-2.521,3.062-2.561,3.353-2.561a.76.76,0,0,1,.845.805c0,.4-.33,2.323-.33,2.759A1.818,1.818,0,0,0,48.668.383c2.442,0,3.485-2.917,3.485-3.274a.579.579,0,0,0-.607-.528c-.29,0-.356.145-.568.634-.726,1.663-1.6,2.059-2.244,2.059a.823.823,0,0,1-.924-.858c0-.211.092-.818.172-1.439s.172-1.241.172-1.465A1.635,1.635,0,0,0,46.385-6.23,3.7,3.7,0,0,0,43.943-5.069Z" transform="translate(14.168 42.827)" fill="#fff"/><path d="M5.174-9.121c-.7,0-1.056.462-1.61,1.214-.95,1.254-1.478,1.98-2.125,2.772s-.713.884-.713,1.1a.705.705,0,0,0,.686.673.512.512,0,0,0,.409-.2c.132-.145.528-.7,1.241-1.69C4.844-7.775,4.884-7.775,5.188-7.775s.356.092.924.871A53.017,53.017,0,0,0,9.874-2.138c1.584,1.729,1.8,1.729,1.98,1.729a.663.663,0,0,0,.634-.647c0-.277-.092-.356-.937-1.162A35.512,35.512,0,0,1,7.656-6.758C6.046-8.923,5.9-9.121,5.174-9.121Z" transform="translate(33.969 58.231)" fill="#fff"/></svg>