<svg xmlns="http://www.w3.org/2000/svg" width="63.707" height="67.86" viewBox="0 0 63.707 67.86"><path d="M115.9,74.277c-4.855,0-22.568-3.639-26.079-15.576-1.735-5.9-1.687-16.715-1.687-17.926,0-6.12.677-16.453,2.122-21.141l0,0C93.463,7.182,120.5,6.417,124.928,6.417c15.229,0,26.909,18.449,26.909,33.7,0,23.779-24.544,34.161-35.941,34.161" transform="translate(-88.13 -6.417)" fill="#00a8c0"/><path d="M4.25-8.422C3.656-8.4,3.01-8.4,2.864-8.4s-.832-.026-.977-.026c-.277,0-.594.092-.594.554,0,.581.356.581,1.492.581.634,0,1.241-.026,1.465-.04v2.059C2.825-4.594,1-3.419,1-1.8,1-.317,2.653.541,3.788.541c1.571,0,1.584-1.386,1.584-2.27V-4.62A8.141,8.141,0,0,1,8.118-5.2c1.914,0,2.772.99,2.772,2.284a1.93,1.93,0,0,1-2.2,2.086A2.527,2.527,0,0,1,8.092-.9a1.554,1.554,0,0,0-.356-.066.508.508,0,0,0-.5.528c0,.62.845.726,1.518.726a3.047,3.047,0,0,0,3.3-3.234c0-1.782-1.241-3.313-3.749-3.313a8.546,8.546,0,0,0-2.93.554v-1.7c.211-.013,1.7-.185,2.336-.33.277-.066.634-.172.634-.568a.532.532,0,0,0-.5-.554c-.053,0-.673.119-.779.132-.488.092-1.241.185-1.69.224v-1.808a.525.525,0,0,0-.568-.607c-.554,0-.554.436-.554.607Zm.013,6.653c0,.686,0,1.241-.634,1.241S2.059-1.043,2.059-1.782c0-1.162,1.848-2.138,2.2-2.336Zm5.359-7.92a.558.558,0,0,0-.541.515.6.6,0,0,0,.277.449A11.205,11.205,0,0,1,10.771-7.5c.7.766.726.779.95.779a.606.606,0,0,0,.594-.581c0-.4-.779-1.069-1.214-1.439S9.953-9.689,9.623-9.689Zm6.547.277a5.763,5.763,0,0,0,.449-1.307c0-.29-.317-.475-.62-.475-.251,0-.37.119-.462.37A10.531,10.531,0,0,1,13.82-7.471a.783.783,0,0,0-.185.436.623.623,0,0,0,.594.528.541.541,0,0,0,.422-.238,9.708,9.708,0,0,0,1.016-1.637h1.1v2.746h-2.68c-.29,0-.554.092-.554.528a.482.482,0,0,0,.554.515h2.6A5.824,5.824,0,0,1,13.926.026c-.158.119-.33.251-.33.475a.672.672,0,0,0,.581.62c.264,0,.884-.515,1.175-.752a6.74,6.74,0,0,0,1.993-2.944C17.912-1.465,19.127.2,19.628.2A.583.583,0,0,0,20.2-.383c0-.2-.079-.277-.832-1.03a9.014,9.014,0,0,1-1.676-2.534c.026-.172.066-.356.092-.647h1.9c.211,0,.554-.026.554-.528a.471.471,0,0,0-.554-.515H17.833V-8.382H19.4c.383,0,.554-.158.554-.541a.473.473,0,0,0-.554-.488Zm9.319.317c0-1.069-.409-1.4-1.4-1.4H21.859c-.977,0-1.4.317-1.4,1.4v8.54c0,1.082.422,1.4,1.4,1.4H24.09c1,0,1.4-.343,1.4-1.4Zm-1.082,8.3c0,.409-.185.594-.594.594H22.1A.52.52,0,0,1,21.5-.792V-8.884a.52.52,0,0,1,.594-.594h1.716c.422,0,.594.2.594.594ZM35.759-9.266c0-.4-.264-.462-.818-.634a21.613,21.613,0,0,0-3.973-.845.553.553,0,0,0-.607.554c0,.37.356.488.62.528a29.281,29.281,0,0,1,3.392.752,4.035,4.035,0,0,0,.884.224A.532.532,0,0,0,35.759-9.266Zm2.2,6.059c0-1.61-1.148-3.023-3.775-3.023A8.371,8.371,0,0,0,29.594-4.7c.066-.4.172-1.016.356-1.822.053-.264.422-1.888.422-1.914,0-.277-.277-.462-.607-.462-.462,0-.515.251-.686,1.082-.092.449-.726,3.524-.726,4.039a.6.6,0,0,0,.634.62c.2,0,.264-.04.871-.5a7.3,7.3,0,0,1,4.33-1.5c1.69,0,2.614.726,2.614,1.927C36.8-.673,33-.673,32.168-.673c-.488,0-.884-.04-1.373-.066-.106-.013-.594-.066-.713-.066a.5.5,0,0,0-.528.554c0,.409.066.7,2.521.7a9.357,9.357,0,0,0,3.6-.541A3.3,3.3,0,0,0,37.963-3.208ZM49.685-7.748c0-.317-.026-2.165-.053-2.429s-.04-.607-.581-.607c-.462,0-.581.277-.581.634s.066,2.1.066,2.495l-4.633.4V-9.874a.522.522,0,0,0-.568-.594c-.568,0-.581.383-.581.607v2.693l-.422.04c-.224.026-1.346.079-1.6.119a.466.466,0,0,0-.422.515.506.506,0,0,0,.554.568c.185,0,1.307-.119,1.558-.145l.33-.026v2.785C42.755-.066,44.048.422,47.4.422s3.353-.238,3.353-.686A.514.514,0,0,0,50.2-.818c-.026,0-.62.026-.937.053-.29.013-1.135.079-2.165.079-3.181,0-3.194-.7-3.194-3.168V-6.191l4.646-.4C48.51-4.2,48.5-3.841,47.19-3.775c-.845.04-1.056.053-1.056.528,0,.568.541.568.726.568,2.746,0,2.759-1.188,2.825-4l.475-.053c.092-.013,1.518-.119,1.571-.132a.48.48,0,0,0,.37-.515c0-.356-.172-.554-.515-.554-.211,0-1.228.119-1.465.145Z" transform="translate(4.99 36.41)" fill="#fff"/></svg>