<svg xmlns="http://www.w3.org/2000/svg" width="283.848" height="82.493" viewBox="0 0 283.848 82.493"><g transform="translate(-53.84 -383.997)"><path d="M33.648-35.52a56.613,56.613,0,0,0,9.264-1.392,1.387,1.387,0,0,0,1.2-1.536,1.52,1.52,0,0,0-1.488-1.68c-.336,0-4.608.864-5.472,1.008a159.725,159.725,0,0,1-15.936,1.152c-1.1,0-1.92.1-1.92,1.488,0,1.632,1.152,1.632,2.592,1.632,2.064,0,5.376-.192,8.064-.384v3.072h-10.8c-1.1,0-1.824.48-1.824,1.632,0,1.344,1.008,1.584,1.824,1.584h10.8v2.832H23.9c-3.552,0-4.464,1.056-4.464,4.512v6.432c0,3.552.96,4.512,4.464,4.512h6.048v3.312H19.872c-1.152,0-1.728.48-1.728,1.584,0,1.056.624,1.536,1.68,1.536H29.952V-.336h-10.9c-.864,0-1.824.336-1.824,1.584,0,1.44,1.3,1.536,1.824,1.536H44.688c1.008,0,1.824-.384,1.824-1.536,0-1.344-1.056-1.584-1.824-1.584H33.648V-4.224H43.68c1.248,0,1.728-.576,1.728-1.584,0-1.1-.672-1.536-1.728-1.536H33.648v-3.312h6.144c3.6,0,4.512-1.056,4.512-4.512V-21.6c0-3.5-1.008-4.512-4.512-4.512H33.648v-2.832h10.8c1.056,0,1.776-.432,1.776-1.584,0-1.392-1.008-1.632-1.776-1.632h-10.8Zm-10.7,13.392c0-.816.432-1.152,1.2-1.152h5.808v3.552H22.944Zm1.2,8.688a1.048,1.048,0,0,1-1.2-1.2v-2.544h7.008v3.744Zm9.5-6.288V-23.28h5.9c.768,0,1.2.336,1.2,1.152v2.4Zm7.1,5.088a1.047,1.047,0,0,1-1.2,1.2h-5.9v-3.744h7.1ZM13.056-12V-1.872c0,1.68-.768,1.68-2.544,1.68-2.256,0-2.976.24-2.976,1.728,0,2.016,1.44,2.16,3.408,2.16,4.608,0,5.472-1.152,5.472-4.512V-34.7c0-3.5-.96-4.512-4.512-4.512H8.112c-3.552,0-4.464,1.056-4.464,4.512V-15.7A52.677,52.677,0,0,1,2.5-3.552c-.144.768-1.44,4.272-1.44,5.136A2,2,0,0,0,3.168,3.5C4.32,3.5,4.56,2.88,5.328.384A50.186,50.186,0,0,0,7.152-12ZM7.2-34.32c0-.816.336-1.2,1.152-1.2H11.9c.816,0,1.152.432,1.152,1.2v7.152H7.2Zm5.856,18.864H7.2v-8.256h5.856ZM90.048-27.408c0-3.12-1.056-4.032-4.128-4.032H68.352c-3.12,0-4.128,1.008-4.128,4.032v4.416c0,3.12,1.056,4.08,4.128,4.08H85.92c3.072,0,4.128-1.008,4.128-4.08Zm-21.936.864V-27.7a1.066,1.066,0,0,1,1.2-1.2h15.7a1.048,1.048,0,0,1,1.2,1.2v1.152Zm18.1,3.936a1.048,1.048,0,0,1-1.2,1.2h-15.7a1.048,1.048,0,0,1-1.2-1.2v-1.584h18.1Zm-5.76,13.68A25,25,0,0,1,72.432-.72c-3.024,1.776-3.36,1.968-3.36,2.736A1.985,1.985,0,0,0,70.9,3.984c1.728,0,9.5-5.472,13.392-12.912h2.256a1.329,1.329,0,0,1,1.488,1.392,27.554,27.554,0,0,1-.768,5.328C86.736-.192,85.872.1,84.768.144c-.336.048-3.024,0-3.6,0-1.008,0-2.208,0-2.208,1.584A1.789,1.789,0,0,0,80.976,3.6c.576.048,2.352.048,3.5.048,2.256,0,4.512-.1,5.712-3.12a31.543,31.543,0,0,0,1.536-8.592c0-3.408-2.064-3.744-4.272-3.744H70.416a26.141,26.141,0,0,0,1.728-2.16H92.4c.816,0,1.776-.288,1.776-1.536,0-1.488-1.488-1.488-1.824-1.488H62.208a1.427,1.427,0,0,0-1.584,1.536,1.457,1.457,0,0,0,1.584,1.488h6c-.384.336-2.016,2.16-2.4,2.5a26.2,26.2,0,0,1-4.464,3.024C59.136-7.392,58.992-7.3,58.992-6.432a1.6,1.6,0,0,0,1.488,1.68c.672,0,3.408-1.152,7.008-4.176H71.76c-.624.672-1.44,1.632-1.824,2.016A23.621,23.621,0,0,1,63.6-2.592c-2.784,1.248-2.976,1.344-2.976,2.208A1.994,1.994,0,0,0,62.4,1.632c.768,0,2.736-1.1,3.648-1.632a31.2,31.2,0,0,0,9.936-8.928ZM56.3-20.4c0,.672,0,1.008-.048,2.5a45.475,45.475,0,0,1-4.848,2.736C49.3-14.112,48.96-13.92,48.96-12.816c0,.96.528,2.16,1.632,2.16.768,0,1.68-.528,5.376-3.024A28.636,28.636,0,0,1,50.832.24,2.1,2.1,0,0,0,50.3,1.584c0,1.3,1.44,1.968,2.256,1.968s1.488-.48,3.024-3.12C60.048-7.344,60.1-16.176,60.1-20.544v-11.04c0-1.44.624-2.16,2.112-2.16H92.064c.576,0,1.968,0,1.968-1.68s-1.44-1.68-1.968-1.68H76.224V-39.12c0-.96-.432-1.632-2.064-1.632-2.016,0-2.064,1.1-2.064,1.632V-37.1h-10.7c-3.6,0-5.088,1.248-5.088,5.088ZM51.5-32.784c-.576,0-1.824.48-1.824,1.632a2.71,2.71,0,0,0,.336,1.248c.72,1.68,1.584,3.7,1.776,4.272.672,1.92.816,2.448,2.016,2.448a1.748,1.748,0,0,0,1.872-1.68,18.346,18.346,0,0,0-1.44-4.224C52.8-32.352,52.656-32.784,51.5-32.784Zm64.032,9.12,17.088-1.1c.672-.048.96-.048.96.288,0,.432-2.064,3.6-5.232,7.008-2.256,2.352-2.3,2.448-2.3,3.168a2.112,2.112,0,0,0,2.16,1.92c1.248,0,2.784-1.824,4.128-3.36,2.448-2.88,7.008-8.64,7.008-10.8,0-2.64-2.688-2.448-4.56-2.352l-19.248,1.152v-9.792c0-.816-.1-2.112-2.16-2.112-2.112,0-2.16,1.44-2.16,2.112V-27.5l-9.888.624c-1.056.048-2.112.384-2.112,2.016a1.941,1.941,0,0,0,2.352,2.112l9.648-.624V-7.392c0,7.92,4.848,8.64,13.248,8.64,1.2,0,6.144-.048,11.52-.288,1.3-.048,2.784-.288,2.784-2.3a1.884,1.884,0,0,0-2.112-2.064c-.432,0-2.5.144-2.976.192-3.12.144-6.192.24-9.312.24-7.344,0-8.832-.384-8.832-5.088Zm70.32-2.88a2.158,2.158,0,0,0-1.824,1.248,55.867,55.867,0,0,1-7.2,8.688A51.166,51.166,0,0,1,154.224-3.6c-3.072.768-3.84.96-3.84,2.5a2.471,2.471,0,0,0,2.352,2.592c1.056,0,10.176-1.968,19.776-8.688,9.792-6.816,15.744-15.744,15.744-17.136A2.472,2.472,0,0,0,185.856-26.544Zm-33.072-9.168a2.333,2.333,0,0,0-2.352,2.256c0,.96.672,1.392,1.392,1.728,7.728,3.312,7.824,3.36,10.08,4.7a5.141,5.141,0,0,0,2.256.912,2.384,2.384,0,0,0,2.112-2.448c0-.96,0-1.68-6.432-4.608C157.056-34.416,153.7-35.712,152.784-35.712Zm60.48-.192c-4.128,0-4.416.24-6.288,3.456a37.516,37.516,0,0,1-8.64,10.416c-1.2,1.008-1.728,1.44-1.728,2.352a2.373,2.373,0,0,0,2.208,2.208c1.392,0,4.752-3.408,6.336-5.232a118.277,118.277,0,0,1,15.264,9.7A39.15,39.15,0,0,1,204.96-2.256c-1.776.672-2.88,1.1-2.88,2.4A2.241,2.241,0,0,0,204.144,2.4c1.2,0,9.6-2.976,16.464-9.456a42.7,42.7,0,0,0,12.672-25.2c0-3.648-3.36-3.648-4.608-3.648Zm13.248,4.032c.912,0,2.016,0,2.016,1.3a23.012,23.012,0,0,1-1.152,5.088,37.807,37.807,0,0,1-4.416,9.024A122.861,122.861,0,0,0,207.7-25.776c.576-.816,3.024-4.608,3.552-5.28a2.047,2.047,0,0,1,1.92-.816ZM245.52-20.448a1.9,1.9,0,0,0-2.208,2.112,1.9,1.9,0,0,0,2.208,2.064h36.96a1.885,1.885,0,0,0,2.208-2.016,1.9,1.9,0,0,0-2.208-2.16Z" transform="translate(53 462.507)" fill="#585048"/><path d="M11.376-1.1C10.2-1.008,9.72-.96,9.72-.12c0,.528.192,1.056.984,1.056A99.464,99.464,0,0,0,20.808-.5c.048.192.36,1.9.384,1.968.1.336.312.528.816.528A1.042,1.042,0,0,0,23.136.936a45.8,45.8,0,0,0-2.592-9.672c-.576-1.464-.72-1.656-1.272-1.656a.924.924,0,0,0-1.032.864,18.973,18.973,0,0,0,.912,2.712c.264.672,1.032,3.336,1.3,4.56C18.6-1.9,14.52-1.392,13.3-1.248A123.72,123.72,0,0,0,16.56-19.392.962.962,0,0,0,15.5-20.424c-.96,0-.96.36-1.176,2.592-.1,1.1-.648,5.472-1.632,10.728C12.144-4.224,11.928-3.288,11.376-1.1ZM1.848-19.7a.86.86,0,0,0-1.008.888.866.866,0,0,0,1.008.912h5.04a.724.724,0,0,1,.816.816v2.352a.732.732,0,0,1-.816.84h-3c-.816,0-1.728.048-2.088,1.224-.048.192-.528,3.792-.528,4.056,0,1.848,1.608,1.848,2.208,1.848h3.6c.744,0,.744.5.744.84a29.945,29.945,0,0,1-.408,4.584C7.176-.12,6.528-.12,5.808-.12c-.6,0-2.16-.048-2.4-.048a.863.863,0,0,0-.984.96.991.991,0,0,0,.528.96c.192.072.288.1,2.064.1,2.424,0,3.576,0,4.08-1.776a37.842,37.842,0,0,0,.648-6.648c0-1.488-.72-2.016-2.256-2.016H3.84c-.192,0-.576,0-.576-.552,0-.264.312-2.4.336-2.5a.609.609,0,0,1,.7-.5H7.368c1.584,0,2.232-.552,2.232-2.208V-17.5c0-1.656-.648-2.208-2.232-2.208ZM35.5-3.792V-.96a.7.7,0,0,1-.672.816c-.168,0-1.224-.024-1.44-.024-.384,0-.984,0-.984.912,0,1.056.792,1.056,1.248,1.056,2.208,0,2.3,0,2.736-.144.96-.336,1.008-1.3,1.008-2.088v-10.9c0-1.8-.552-2.256-2.256-2.256H30.648c-1.752,0-2.256.48-2.256,2.256V1.008c0,.624.216,1.008.96,1.008.864,0,.96-.576.96-1.008v-4.8ZM30.312-11.04c0-.5.216-.768.768-.768h3.648a.676.676,0,0,1,.768.768V-9.5H30.312ZM35.5-5.448H30.312V-7.872H35.5ZM35.76-17.28a17.02,17.02,0,0,0-1.272-2.3,1.135,1.135,0,0,0-1.008-.672c-.48,0-1.2.312-1.2.744a1.436,1.436,0,0,0,.144.6c.1.24.768,1.368.888,1.632H27.744a.818.818,0,0,0-.96.888.833.833,0,0,0,.96.912H48.48a.825.825,0,0,0,.96-.912.826.826,0,0,0-.96-.888H43.152c.936-1.512,1.056-1.776,1.056-2.112,0-.744-.816-.888-1.224-.888-.672,0-.864.384-1.176,1.008-.672,1.344-.744,1.488-1.032,1.992Zm6.36,4.608c0-.7-.312-.936-1.056-.936a.821.821,0,0,0-.936.936v9.528c0,.7.312.96,1.056.96a.825.825,0,0,0,.936-.96Zm5.76-.576c0-.768-.336-.96-1.056-.96-.888,0-.936.6-.936.96V-1.272c0,1.032-.648,1.08-1.152,1.08-.336,0-1.968-.024-2.328-.024-.336,0-.936.048-.936.96a1.035,1.035,0,0,0,.5.984,12.406,12.406,0,0,0,1.968.1c1.9,0,2.5,0,3.048-.336A2.421,2.421,0,0,0,47.88-.744Zm14.928.96A14.872,14.872,0,0,1,53.9-.312c-.48.24-.768.456-.768.984a1.131,1.131,0,0,0,1.032,1.176c.672,0,3.288-1.536,5.16-3.216a17.139,17.139,0,0,0,4.92-7.992,17.52,17.52,0,0,0,5.016,8.04c1.7,1.56,4.128,3.1,4.824,3.1a1.2,1.2,0,0,0,1.1-1.2c0-.528-.312-.744-.744-.96-6.576-3.384-8.04-7.776-8.976-11.9H74.4c.48,0,1.056-.144,1.056-1.008A.915.915,0,0,0,74.4-14.28H65.064v-4.944c0-.72-.336-1.008-1.128-1.008a.886.886,0,0,0-1.008,1.008v4.944H53.9c-.5,0-1.08.144-1.08,1.008a.932.932,0,0,0,1.08.984Zm21.48-4.08c.648-.168.84-.552.84-.864a5.823,5.823,0,0,0-.84-1.824c-.528-.864-.768-1.224-1.32-1.224-.5,0-1.1.336-1.1.84a1.36,1.36,0,0,0,.24.624c.1.144.624,1.008.72,1.2.576,1.032.624,1.152.912,1.248H82.344c-1.8,0-2.568.6-2.568,2.544v1.992c0,.744.336.984,1.08.984.936,0,.96-.672.96-1.008v-1.776a.9.9,0,0,1,1.008-1.032h14.9c.7,0,1.008.336,1.008,1.032v1.776c0,.648.24.984,1.08.984.96,0,.96-.672.96-.984v-1.968c0-.984-.1-2.544-2.328-2.544H97.2a10.9,10.9,0,0,0,1.536-3.024c0-.672-.744-.912-1.128-.912-.552,0-.648.216-1.2,1.344a23.823,23.823,0,0,1-1.392,2.592Zm7.176,9.912v-.5a32.537,32.537,0,0,0,3.408-1.872c1.3-.84,2.112-1.44,2.112-2.4,0-1.2-1.056-1.2-1.872-1.2H83.784a.834.834,0,0,0-.936.888.794.794,0,0,0,.912.888h9.576c.312,0,.48,0,.48.216,0,.288-2.208,1.608-3.456,2.136-.7-.1-.96.264-.96.744v1.1H80.064a.863.863,0,0,0-1.008.912.866.866,0,0,0,1.008.912H89.4v3.24c0,1.08-.552,1.2-1.272,1.2-.072,0-2.424-.048-2.472-.048a.848.848,0,0,0-.984.96,1.243,1.243,0,0,0,.432.96c.216.144.5.144,1.32.144h2.448c1.968,0,2.592-.72,2.592-2.592V-4.632h8.9c.336,0,1.008-.024,1.008-.912a.858.858,0,0,0-1.008-.912ZM89.376-20.5c-.264,0-1.032.24-1.032.84,0,.216.072.36.72,1.56.792,1.44.816,1.536,1.344,1.536.288,0,1.1-.144,1.1-.888a6.318,6.318,0,0,0-.936-2.112C90.072-20.4,89.976-20.5,89.376-20.5ZM118.32-9.432a10.6,10.6,0,0,0,.192-1.9v-1.44h5.664a.808.808,0,0,0,.936-.864.8.8,0,0,0-.936-.84h-9.768c.576-1.2.624-1.32.624-1.584a.925.925,0,0,0-1.008-.888.892.892,0,0,0-.816.648,13.612,13.612,0,0,1-2.424,3.888c-.864.936-.96,1.032-.96,1.344a1.111,1.111,0,0,0,1.056,1.008,1.153,1.153,0,0,0,.792-.432,13.6,13.6,0,0,0,1.752-2.28h3.216v1.488a13.84,13.84,0,0,1-.168,1.848h-6.408c-.408,0-.912.072-.912.864,0,.84.624.84.912.84H115.9a8.614,8.614,0,0,1-5.784,4.584c-.384.12-.744.264-.744.792,0,.336.216,1.08.936,1.08a10.522,10.522,0,0,0,7.32-5.976c1.776,3.84,6.888,6,7.68,6,.768,0,.96-.792.96-1.128a.647.647,0,0,0-.336-.648c-.144-.072-.912-.36-1.1-.408a11.066,11.066,0,0,1-5.52-4.3h6c.264,0,.912,0,.912-.84a.787.787,0,0,0-.912-.864ZM109.3-19.344c-2.256,0-3.12.792-3.12,3.12v14.64c0,2.352.912,3.1,3.12,3.1h17.136A.858.858,0,0,0,127.44.6a.86.86,0,0,0-1.008-.888h-16.9c-1.008,0-1.368-.528-1.368-1.392V-16.152c0-.912.408-1.392,1.368-1.392h16.416c.264,0,1.008,0,1.008-.888a.866.866,0,0,0-1.008-.912Zm27.168,2.976c.648-.168.84-.552.84-.864a5.823,5.823,0,0,0-.84-1.824c-.528-.864-.768-1.224-1.32-1.224-.5,0-1.1.336-1.1.84a1.36,1.36,0,0,0,.24.624c.1.144.624,1.008.72,1.2.576,1.032.624,1.152.912,1.248H134.52c-1.8,0-2.568.6-2.568,2.544v1.992c0,.744.336.984,1.08.984.936,0,.96-.672.96-1.008v-1.776A.9.9,0,0,1,135-14.664h14.9c.7,0,1.008.336,1.008,1.032v1.776c0,.648.24.984,1.08.984.96,0,.96-.672.96-.984v-1.968c0-.984-.1-2.544-2.328-2.544h-1.248a10.9,10.9,0,0,0,1.536-3.024c0-.672-.744-.912-1.128-.912-.552,0-.648.216-1.2,1.344a23.826,23.826,0,0,1-1.392,2.592Zm7.176,9.912v-.5a32.535,32.535,0,0,0,3.408-1.872c1.3-.84,2.112-1.44,2.112-2.4,0-1.2-1.056-1.2-1.872-1.2H135.96a.834.834,0,0,0-.936.888.794.794,0,0,0,.912.888h9.576c.312,0,.48,0,.48.216,0,.288-2.208,1.608-3.456,2.136-.7-.1-.96.264-.96.744v1.1H132.24a.863.863,0,0,0-1.008.912.866.866,0,0,0,1.008.912h9.336v3.24c0,1.08-.552,1.2-1.272,1.2-.072,0-2.424-.048-2.472-.048a.848.848,0,0,0-.984.96,1.243,1.243,0,0,0,.432.96c.216.144.5.144,1.32.144h2.448c1.968,0,2.592-.72,2.592-2.592V-4.632h8.9c.336,0,1.008-.024,1.008-.912a.858.858,0,0,0-1.008-.912ZM141.552-20.5c-.264,0-1.032.24-1.032.84,0,.216.072.36.72,1.56.792,1.44.816,1.536,1.344,1.536.288,0,1.1-.144,1.1-.888a6.318,6.318,0,0,0-.936-2.112C142.248-20.4,142.152-20.5,141.552-20.5Zm17.3,2.76a.853.853,0,0,0-.984.864.851.851,0,0,0,.984.888h.84a31.391,31.391,0,0,1,.936,4.8h-2.376a.794.794,0,0,0-.912.888c0,.888.648.888.936.888H169.3c.288,0,.936,0,.936-.864,0-.84-.552-.912-.936-.912h-2.544a47.353,47.353,0,0,0,1.176-4.8h.864a.836.836,0,0,0,.96-.864.842.842,0,0,0-.96-.888h-4.008v-1.776c0-.24,0-.888-.936-.888-.7,0-1.056.216-1.056.888v1.776Zm7.152,1.752a38.424,38.424,0,0,1-1.1,4.8H162.48a48.426,48.426,0,0,0-.96-4.8ZM161.28-7.152c-2.04,0-2.592.576-2.592,2.592V-.984c0,2.04.576,2.616,2.592,2.616h4.944c2.064,0,2.592-.624,2.592-2.616V-4.56c0-2.064-.6-2.592-2.592-2.592Zm5.64,6A.906.906,0,0,1,165.888-.12H161.64a.906.906,0,0,1-1.032-1.032V-4.416c0-.816.432-1.056,1.032-1.056h4.248c.648,0,1.032.288,1.032,1.056Zm5.808-15.84c0-.48.192-.792.768-.792h2.592c.288,0,.768,0,.768.48,0,.72-1.728,3.984-2.28,5.016a2.4,2.4,0,0,0-.288,1.008c0,.552.048.6,1.44,2.136a6.793,6.793,0,0,1,1.824,4.2c0,.984-.336,2.64-2.16,2.64-.144,0-.936-.048-1.1-.048-.648,0-.816.384-.816.912,0,.912.48.984.7,1.032.216.024,1.536.024,1.9,0,3.12-.168,3.5-3.12,3.5-4.224a7.385,7.385,0,0,0-1.08-3.792,9.523,9.523,0,0,0-2.04-2.52.65.65,0,0,1-.24-.456.905.905,0,0,1,.12-.384c.792-1.44.864-1.584,1.3-2.52,1.152-2.5,1.248-2.976,1.248-3.6,0-1.728-1.392-1.728-2.5-1.728h-3.36c-1.776,0-2.256.528-2.256,2.256V1.152c0,.72.288,1.008,1.032,1.008a.857.857,0,0,0,.936-1.008ZM186-17.04c0-.48.216-.768.792-.768h1.44c.192,0,.648,0,.648.5a18.381,18.381,0,0,1-1.176,3.528c-.48,1.128-.576,1.344-.576,1.7,0,.432.072.552.72,1.584A6.509,6.509,0,0,1,189.072-6.6c0,1.7-.72,1.7-2.016,1.7-.408,0-.648.264-.648.768C186.408-3,187.032-3,187.656-3c1.32,0,3.312,0,3.312-3.192a8.828,8.828,0,0,0-1.68-5.064c-.36-.5-.408-.672-.408-.888,0-.264.1-.456.744-2.016a12.983,12.983,0,0,0,1.2-3.936c0-1.56-1.272-1.56-2.208-1.56h-2.208c-1.8,0-2.256.5-2.256,2.232V1.152c0,.576.192.984.936.984.864,0,.912-.6.912-.984Zm6.816,18.216a.869.869,0,0,0,.936,1.008c.912,0,.96-.648.96-1.008V-14.832a19.439,19.439,0,0,0,1.392-4.68c0-.672-.672-.792-1.032-.792-.7,0-.84.408-.936.912a19.653,19.653,0,0,1-2.76,6.48c-.072.12-1.056,1.44-1.056,1.488a.843.843,0,0,0-.12.48,1.122,1.122,0,0,0,1.032,1.176c.36,0,.648-.12,1.584-1.512ZM203.928-13.3h.984c.384,0,.864-.12.864-.96,0-.792-.48-.936-.864-.936h-.984v-4.2c0-.336-.024-.96-.984-.96-.984,0-.984.672-.984.96v4.2h-5.568c-.384,0-.936.072-.936.96,0,.936.648.936.936.936h5.568v12c0,.816-.288,1.056-.936,1.1-.168.024-.984,0-1.152,0-.912,0-1.584,0-1.584.912,0,.336.12.888.576,1.008a12.24,12.24,0,0,0,1.92.1c1.848,0,3.144-.072,3.144-2.568Zm-6.816,2.64a.9.9,0,0,0-.96.816,7.367,7.367,0,0,0,.624,1.536,22.027,22.027,0,0,1,1.176,2.832c.432,1.3.5,1.44,1.056,1.44.36,0,1.1-.168,1.1-.912a17.556,17.556,0,0,0-1.368-3.528C197.712-10.632,197.568-10.656,197.112-10.656ZM221.736-1.9c-.576.024-3.1.144-3.7.216-.288.024-.84.072-.84.72,0,.816.7.816.96.816.576,0,6.1-.528,8.016-.792.384.888.432.96.816.96a.7.7,0,0,0,.744-.672,8.349,8.349,0,0,0-1.128-2.544c-.192-.36-.36-.456-.624-.456-.192,0-.7.1-.7.576,0,.24.072.36.288.84-.7.1-.912.12-1.992.192V-4.152h4.848a.714.714,0,0,1,.816.816V-.72a.715.715,0,0,1-.816.816c-.216,0-1.32-.048-1.56-.048a.773.773,0,0,0-.888.816c0,.96.744.96,1.248.96a10.644,10.644,0,0,0,2.928-.144c.96-.312,1.032-1.272,1.032-2.112v-2.9c0-1.752-.5-2.232-2.256-2.232h-5.352V-6.984h4.968c1.272,0,1.728-.312,1.728-1.7v-.888c0-1.368-.432-1.7-1.728-1.7h-4.968V-12.5c2.592-.12,3.672-.192,4.656-.288,1.344-.144,1.7-.192,1.7-.816a.677.677,0,0,0-.7-.768c-.24,0-1.944.216-2.328.24-3.624.312-7.272.336-10.944.36-.456,0-.936,0-.936.72s.552.72,1.152.72c1.032,0,5.064-.1,5.544-.1v1.152h-4.752c-1.368,0-1.728.384-1.728,1.7v.888c0,1.392.432,1.7,1.728,1.7h4.752v1.416h-5.16c-1.776,0-2.256.5-2.256,2.232V1.1c0,.48.1.936.96.936s.936-.528.936-.936v-4.44a.714.714,0,0,1,.816-.816h4.7Zm-4.08-6.432c-.384,0-.576-.168-.576-.576v-.48a.509.509,0,0,1,.576-.576h4.08v1.632Zm5.928-1.632h4.272a.517.517,0,0,1,.576.576v.48a.509.509,0,0,1-.576.576h-4.272ZM213.36-15h15.624c1.416,0,1.776-.408,1.776-1.752v-.96c0-1.392-.384-1.776-1.776-1.776H213.672c-1.752,0-2.232.5-2.232,2.256v7.152A39.31,39.31,0,0,1,211.152-6a19.543,19.543,0,0,1-1.584,5.784,1.79,1.79,0,0,0-.192.768,1.1,1.1,0,0,0,1.1,1.008c.5,0,.744-.216,1.272-1.56a31.786,31.786,0,0,0,1.608-10.128Zm0-2.208a.672.672,0,0,1,.768-.768h14.088c.432,0,.6.216.6.576v.36a.524.524,0,0,1-.6.6H213.36Zm40.824,8.736a.715.715,0,0,1,.816.816V-.744c0,.84-.5.864-.912.864-.048,0-1.32-.048-1.56-.024a.739.739,0,0,0-.816.84.823.823,0,0,0,.648.864c.216.048,1.224.048,1.848.048,1.824,0,2.688-.072,2.688-2.256V-7.872c0-1.68-.648-2.208-2.208-2.208h-4.464c.048-.384.192-2.112.192-2.5h6.36c.24,0,.984,0,.984-.84,0-.816-.624-.864-.984-.864h-14.16c-.288,0-.984.024-.984.864,0,.7.456.84.984.84h5.928c0,.24-.024,1.392-.12,2.5h-3.768c-1.584,0-2.208.576-2.208,2.208v8.9a.841.841,0,0,0,.912.984c.672,0,.984-.24.984-.984V-7.656c0-.576.288-.816.84-.816h3a7.727,7.727,0,0,1-3.216,4.992.82.82,0,0,0-.408.672A1.079,1.079,0,0,0,245.5-1.8c.624,0,2.808-1.656,4.008-4.992a12.535,12.535,0,0,0,2.52,3.6c.456.456,1.344,1.272,1.824,1.272a.92.92,0,0,0,.912-.864c0-.312-.024-.336-1.032-1.152a8.644,8.644,0,0,1-3.216-4.536Zm-15.048-1.44c0,.264-.024.792-.024.984A29.809,29.809,0,0,1,236.28-7.56c-.816.36-1.032.456-1.032,1.032,0,.336.192,1.1.84,1.1a12.944,12.944,0,0,0,2.832-1.392,13.727,13.727,0,0,1-2.712,6.84,1.214,1.214,0,0,0-.336.768,1.1,1.1,0,0,0,1.1,1.008c.336,0,.6,0,1.56-1.464,2.04-3.12,2.5-7.128,2.5-10.008v-5.616a.944.944,0,0,1,1.08-1.08H256.8c.624,0,.96-.216.96-.936,0-.84-.7-.84-.96-.84h-7.944v-1.272c0-.72-.408-.888-1.08-.888-.744,0-1.008.288-1.008.888v1.272H241.68c-1.824,0-2.544.624-2.544,2.544Zm-2.568-6.36a.942.942,0,0,0-.96.84,1.688,1.688,0,0,0,.192.624c.312.672.768,1.68.96,2.208.408,1.056.48,1.2.96,1.2a1.031,1.031,0,0,0,1.08-.888,9.787,9.787,0,0,0-.936-2.352C237.168-16.1,237.1-16.272,236.568-16.272Zm40.848-1.68v-1.584c0-.36-.1-.888-.96-.888-.96,0-.96.672-.96.888v1.584h-3.84c-1.512,0-2.208.48-2.208,2.208v1.92c0,.408.072,1.008.96,1.008a.865.865,0,0,0,.936-1.008v-1.584a.675.675,0,0,1,.768-.768H280.7a.682.682,0,0,1,.768.768v1.584c0,.528.144.984.96.984.912,0,.936-.648.936-.984v-1.92c0-1.7-.672-2.208-2.208-2.208Zm3.024,6.1c.288,0,.936,0,.936-.864s-.648-.864-.936-.864H272.5a.8.8,0,0,0-.936.864.8.8,0,0,0,.936.864Zm-18.1,12.984c0,.384.048,1.008.936,1.008.816,0,.936-.5.936-1.008V-17.04c0-.5.216-.792.768-.792h1.488c.24,0,.624,0,.624.5A20.581,20.581,0,0,1,265.92-13.9c-.5,1.272-.576,1.416-.576,1.68a1.7,1.7,0,0,0,.384.984,7.942,7.942,0,0,1,1.536,4.584c0,1.68-.576,1.68-1.512,1.68-.648,0-1.08,0-1.08.96,0,.864.624,1.032,1.152,1.032a3.859,3.859,0,0,0,2.112-.312c.984-.552,1.2-1.776,1.2-2.952a9.091,9.091,0,0,0-1.7-5.16c-.336-.456-.456-.624-.456-.84a6,6,0,0,1,.624-1.584,13.5,13.5,0,0,0,1.344-4.272c0-1.584-1.152-1.584-2.328-1.584H264.6c-1.752,0-2.256.456-2.256,2.232ZM278.976-7.56h4.032c.288,0,1.008,0,1.008-.912a.858.858,0,0,0-1.008-.912h-12.96a.875.875,0,0,0-1.032.912.875.875,0,0,0,1.032.912h2.9c-.1,5.184-1.584,6.336-4.368,7.608-.432.192-.744.36-.744.864a1.051,1.051,0,0,0,.96,1.08A7.126,7.126,0,0,0,271.776.48c2.544-2.04,2.976-4.752,3.048-8.04h2.256V-.336c0,2.16.84,2.256,2.736,2.256,2.472,0,2.952,0,3.384-.576a8.034,8.034,0,0,0,.744-3.528.833.833,0,0,0-.936-.96.7.7,0,0,0-.72.408c-.072.264-.192,1.608-.264,1.92-.168.888-.168.888-1.608.888-1.08,0-1.44,0-1.44-.84Z" transform="translate(53 404.493)" fill="#585048"/></g></svg>