<svg xmlns="http://www.w3.org/2000/svg" xmlns:xlink="http://www.w3.org/1999/xlink" width="76.928" height="76.929" viewBox="0 0 76.928 76.929"><defs><clipPath id="a"><rect width="76.928" height="76.929" transform="translate(0 0)" fill="none"/></clipPath></defs><g transform="translate(0 0)"><g clip-path="url(#a)"><path d="M45.428,74.967a15.864,15.864,0,0,1-9.507-8,16.039,16.039,0,0,1-.787-12.7c1.794-5.084,7.89-7.589,14.347-10.241,4.834-1.988,9.83-4.042,12.847-7.166,5.66-5.857,6.385-13.747,1.689-18.356-5.982-5.878-14.972-.9-15.35-.684l-2.026,1.145-.537-2.26c-.1-.405-2.522-10.044-11.14-9.305l-.027,0c-3.482.305-6.081,1.644-7.731,3.985A11.085,11.085,0,0,0,25.455,15.7a13.147,13.147,0,0,1,4.155-.945,12.188,12.188,0,0,1,9.312,3.135,13.745,13.745,0,0,1,4.225,10.2c.032,5.4-2.187,9.635-4.144,13.367a21.77,21.77,0,0,0-2.561,6.221,1.743,1.743,0,0,1-3.412.269,32.422,32.422,0,0,0-4.367-8.919,42.285,42.285,0,0,1-5.955-12.937c-.231-.874-.424-1.733-.573-2.574a12.4,12.4,0,0,0-1.1,4.4l-.1,2.688-2.416-1.178c-.066-.033-6.779-3.208-10.217.71-3.759,4.278-1.422,10.425,2.062,13.769,3.221,3.089,7.811,3.849,12.466,4.375,3.1.35,6.025.677,8.319,1.836a1.743,1.743,0,1,1-1.57,3.112v0c-1.737-.878-4.36-1.174-7.139-1.482-5.052-.572-10.421-1.57-14.661-5.5C2.759,41.589.975,33.2,5.685,27.836c3.669-4.178,9.133-3.319,12.16-2.387a14.387,14.387,0,0,1,3.862-7.289,15.851,15.851,0,0,1,2.652-8.782A13.19,13.19,0,0,1,34.668,3.929c8.024-.691,12.453,5.376,14.2,9.942,3.621-1.511,11.574-3.771,17.6,2.146,6.1,5.989,5.4,15.993-1.627,23.27-3.524,3.646-8.863,5.842-14.029,7.967C45.093,49.6,39.7,51.819,38.423,55.43a12.566,12.566,0,0,0,.614,9.961,12.34,12.34,0,0,0,7.4,6.234c4.571,1.381,9.9.57,14.783-2.145a38.391,38.391,0,1,0-12.747,6.127,18.444,18.444,0,0,1-3.041-.64" fill="#e75500"/><path d="M26.077,25.2a38.808,38.808,0,0,0,5.535,11.96,52.259,52.259,0,0,1,3.008,5.213c.4-.834.84-1.675,1.291-2.534,1.857-3.539,3.773-7.193,3.743-11.727a10.3,10.3,0,0,0-3.1-7.659,8.748,8.748,0,0,0-6.677-2.221A9.751,9.751,0,0,0,25.2,19.779a26.4,26.4,0,0,0,.874,5.423" fill="#e75500"/></g></g></svg>